/* XPM */
static char *result[] = {
/* columns rows colors chars-per-pixel */
"120 120 41 1 ",
"  c black",
". c #010101",
"X c gray1",
"o c #040404",
"O c gray2",
"+ c #070707",
"@ c gray3",
"# c #0B0B0B",
"$ c gray5",
"% c gray6",
"& c #101010",
"* c gray7",
"= c gray8",
"- c #161616",
"; c gray10",
": c #1D1D1D",
"> c gray12",
", c #222222",
"< c #252525",
"1 c gray15",
"2 c gray17",
"3 c #2F2F2F",
"4 c gray20",
"5 c #373737",
"6 c gray23",
"7 c #3F3F3F",
"8 c #434343",
"9 c gray31",
"0 c #5F5F5F",
"q c gray43",
"w c #6F6F6F",
"e c gray50",
"r c gray56",
"t c #9F9F9F",
"y c #AFAFAF",
"u c gray75",
"i c gray81",
"p c #DFDFDF",
"a c #EFEFEF",
"s c white",
"d c None",
/* pixels */
"dddddddddddddddddddddddddddddddddddddddddddddddddddddddddddddddddddddddddddddddddddddddddddddddddddddddddddddddddddddddd",
"dddddddddddddddddddddddddddddddddddddddddddddddddddddddddddddddddddddddddddddddddddddddddddddddddddddddddddddddddddddddd",
"dddddddddddddddddddddddddddddddddddddddddddddddddddddddddddddddddddddddddddddddddddddddddddddddddddddddddddddddddddddddd",
"dddddddddddddddddddddddddddddddddddddddddddddddddddddddddddddddddddddddddddddddddddddddddddddddddddddddddddddddddddddddd",
"dddddddddddddddddddddddddddddddddddddddddddddddddddddddddddddddddddddddddddddddddddddddddddddddddddddddddddddddddddddddd",
"dddddddddddddddddddddddddddddddddddddddddddddddddddddddddddddddddddddddddddddddddddddddddddddddddddddddddddddddddddddddd",
"dddddddddddddddddddddddddddddddddddddddddddddddddddddddddddddddddddddddddddddddddddddddddddddddddddddddddddddddddddddddd",
"dddddddddddddddddddddddddddddddddddddddddddddddddddddddddddddddddddddddddddddddddddddddddddddddddddddddddddddddddddddddd",
"dddddddddddddddddddddddddddddddddddddddddddddddddddddddddddddddddddddddddddddddddddddddddddddddddddddddddddddddddddddddd",
"dddddddddddddddddddddddddddddddddddddddddddddddddddddddddddddddddddddddddddddddddddddddddddddddddddddddddddddddddddddddd",
"dddddddddddddddddddddddddddddddddddddddddddddddddddddddddddddddddddddddddddddddddddddddddddddddddddddddddddddddddddddddd",
"dddddddddddddddddddddddddddddddddddddddddddddddddddddddddddddddddddddddddddddddddddddddddddddddddddddddddddddddddddddddd",
"dddddddddddddddddddddddddddddddddddddddddddddddddddddddddddddddddddddddddddddddddddddddddddddddddddddddddddddddddddddddd",
"dddddddddddddddddddddddddddddddddddddddddddddddddddddddddddddddddddddddddddddddddddddddddddddddddddddddddddddddddddddddd",
"dddddddddddddddddddddddddddddddddddddddddddddddddddddddddddddddddddddddddddddddddddddddddddddddddddddddddddddddddddddddd",
"dddddddddddddddddddddddddddddddddddddddddddddddddddddddddddddddddddddddddddddddddddddddddddddddddddddddddddddddddddddddd",
"dddddddddddddddddddddddddddddddddddddddddddddddddddddddddddddddddddddddddddddddddddddddddddddddddddddddddddddddddddddddd",
"dddddddddddddddddddddddddddddddddddddddddddddddddddddddddddddddddddddddddddddddddddddddddddddddddddddddddddddddddddddddd",
"dddddddddddddddddddddddddddddddddddddddddddddddddddddddddddddddddddddddddddddddddddddddddddddddddddddddddddddddddddddddd",
"dddddddddddddddddddddddddddddddddddddddddddddddddddddddddddddddddddddddddddddddddddddddddddddddddddddddddddddddddddddddd",
"dddddddddddddddddddddddddddddddddddddddddddddddddddddddddddddddddddddddddddddddddddddddddddddddddddddddddddddddddddddddd",
"dddddddddddddddddddddddddddddddddddddddddddddddddddddddddddddddddddddddddddddddddddddddddddddddddddddddddddddddddddddddd",
"dddddddddddddddddddddddddddddddddddddddddddddddddddddddddddddddddddddddddddddddddddddddddddddddddddddddddddddddddddddddd",
"dddddddddddddddddddddddddddddddddddddddddddddddddddddddddddddddddddddddddddddddddddddddddddddddddddddddddddddddddddddddd",
"dddddddddddddddddddddddddddddddddddddddddddddddddddddddddddddddddddddddddddddddddddddddddddddddddddddddddddddddddddddddd",
"dddddddddddddddddddddddddddddddddddddddddddddddddddddddddddddddddddddddddddddddddddddddddddddddddddddddddddddddddddddddd",
"dddddddddddddddddddddddddddddddddddddddddddddddddddddddddddddddddddddddddddddddddddddddddddddddddddddddddddddddddddddddd",
"ddddddddddddddddddddddddddddddddddddddd               dddddddddddddddddddddddddddddddddddddddddddddddddddddddddddddddddd",
"dddddddddddddddddddddddddddddd       7777770eeeeeeeeeee077    dddddddddddddddddddddddddddddddddddddddddddddddddddddddddd",
"dddddddddddddddddddddddddd   3eruisssssssssssssssssssssssssspurw8=dddddddddddddddddddddddddddddddddddddddddddddddddddddd",
"ddddddddddddddddddddddddd %tpsssssssssssssssssssssssssssssssssssssut9 dddddddddddddddddddddddddddddddddddddddddddddddddd",
"ddddddddddddddddddddddd %essssssssssssssssssssssssssssssssssssssssssssiw-ddddddddddddddddddddddddddddddddddddddddddddddd",
"dddddddddddddddddddddd 3psssssssssssssssssssssssssssssssssssssssssssssssa0 ddddddddddddddddddddddddddddddddddddddddddddd",
"ddddddddddddddddddddd 3asssssssssssssssssssssssssssssssssssssssssssssssssspe%ddddddddddddddddddddddddddddddddddddddddddd",
"dddddddddddddddddddd 3asssssssssssssssssssssssssssssssssssssssssssssssssssssa0 ddddddddddddddddddddddddddddddddddddddddd",
"ddddddddddddddddddd %issssssssssssssssssssssssssssssssssssssssssssssssssssssssu> ddddddddddddddddddddddddddddddddddddddd",
"dddddddddddddddddd  ussssssssssssssssssssssssssssssssssssssssssssssssssssssssssa7 ddd  ddddddddddddddddddddddddddddddddd",
"ddddddddddddddddd  wssssssssssssssssssssssssssssssssssssssssssssssssssssssssssssar%dd %d ddddddddddddddddddddddddddddddd",
"dddddddddddddddd   sssssssssssssssssssssssssssssssssssssssssssssssssssssssssssssssa7  t  ddddddddddddddddddddddddddddddd",
"dddddddddddddddd  7ssssssssssssssssssssssssssssssssssssssssssssssssssssssssssssssssse u >ddddddddddddddddddddddddddddddd",
"ddddddddddddddddddwssssssssssssssssssssssssssssssssssssssssssssssssssssssssssssssssss30 9 dddddddddddddddddddddddddddddd",
"ddddddddddddddddddtssssssssssssssssssssssssssssssssssssssssssssssssssssssssssssssssssw3 t dddddddddddddddddddddddddddddd",
"ddddddddddddddddddisssssssssssssssssssssssssssssssssssssssssssssssssssssssssssssssssssst3 dddddddddddddddddddddddddddddd",
"ddddddddddddddddd*ssssssssssssssssssssssssssssssssssssssssssssssssssssssssssssssssssssssu dddddddddddddddddddddddddddddd",
"ddddddddddddddddd7sssssssssssssssssssssssssssssssssssssssssssssssssssssssssssssssssssssssy& dd ddddddddddddddddddddddddd",
"dddddddddddddddd esssssssssssssssssssssssssssssssssssssssssssssssssssssssssssssssssssssssst    ddddddddddddddddddddddddd",
"dddddddddddddddd usssssssssssssssssssssssssssssssssssssssssssssssssssssssssssssssssssssssssy    dddddddddddddddddddddddd",
"dddddddddddddddd asssssssssssssssssssssssssssssssssssssssssssssssssssssssssssssssssssieyssssi%  d dddddddddddddddddddddd",
"dddddddddddddddd sssssssssssssssssssssssssssssssssssssssssssssssssssssssssssssssssssse %sssssu%    ddddddddddddddddddddd",
"dddddddddddddddd7ssssssssssssssssssssssssssssssssssssssssssssssssssssssssssssssssssssr  usssssi9   ddddddddddddddddddddd",
"dddddddddddddddd7sssssssssssssssssssssssssssssssssssssssssssssssssssssssssssssssssssst  usssssss>  ddddddddddddddddddddd",
"dddddddddddddddd%ssssssssssssssssssssssssssssssssssssssssssssssssssssssssssssssssssssy  esssssssr  ddddddddddddddddddddd",
"dddddddddddddddd pssssssssssssssssssssssssssssssssssssssssssssssssssssssssssssssssssss3 esssssssu  ddddddddddddddddddddd",
"dddddddddddddddd ysssssssssssssssssssssssssssssssssssssssssssssssssssssssssssssssssssspuasssssssi  ddddddddddddddddddddd",
"dddddddddddddddd essssssssssssssssssssssssssssssssssssssssssss7 rsssssssssss3ssssssssssssssssssss  ddddddddddddddddddddd",
"dddddddddddddddd 7ssssssssssssssrtsssssssssssssssssssssssssssst  ysssssssssp sssssssssssssssssssi dddddddddddddddddddddd",
"dddddddddddddddd %sssssssssssssa%tsssssssssssssssssssssssssssss> %assssssssr ssssssssssssssssssse dddddddddddddddddddddd",
"ddddddddddddddddd asssssssssssse pssssssssssssssssssssssssssssst  essssssss0 eeruuusssssssssssst ddddddddddddddddddddddd",
"ddddddddddddddddd usssssssssssa%9sssssssssssssssssssssssssaersss> >ssssssss3        >7eyuassur> dddddddddddddddddddddddd",
"ddddddddddddddddd usssssssssssw e %9yasssssssssssssssssssa3 pssst  ysssssss  ddddd             ddddddddddddddddddddddddd",
"dddddddddddddddd  assssssssssa%0spr9   7eeeeeeeeeeeeeeeee9 essssa% 0sssssss9 ddddddddddddddddddddddddddddddddddddddddddd",
"dddddddddddddddd  ssssssssssse%psssssi> ddd               %pssssse >sssssssr ddddddddddddddddddddddddddddddddddddddddddd",
"dddddddddddddddd 3sssssssssss%wssssssp  dddddddddddddddd  tssssssp  pssssssu ddddddddddddddddddddddddddddddddddddddddddd",
"dddddddddddddddd 9ssssssssssr>asssssse ddddddddddddddddd >ssssssssw ussssssu ddddddddddddddddddddddddddddddddddddddddddd",
"ddddddddddddddd  rssssssssss7wsssssss7 dddddddddddddddd  wsssssssse essssssa ddddddddddddddddddddddddddddddddddddddddddd",
"ddddddddddddddd  isssssssssi 7sssssss  dddddddddddddddd  psssssssa> esssssss ddddddddddddddddddddddddddddddddddddddddddd",
"ddddddddddddddd >sssssssssa1 7ssssssu  dddddddddddddddd 7sssssssse d7sssssss ddddddddddddddddddddddddddddddddddddddddddd",
"dddddddddddddd  essssssssa4dO ssssssw ddddddddddddddddd ysssssssi.dd>sssssss ddddddddddddddddddddddddddddddddddddddddddd",
"dddddddddddddd  asssssssa3;d+ ssssss3 &dddddddddddddddO%sssssssa>&d< assssss ddddddddddddddddddddddddddddddddddddddddddd",
"dddddddddddddd %sssssssu>-dd+ ssssss  <dddddddddddddddXessssssa7+dddXysssssi ddddddddddddddddddddddddddddddddddddddddddd",
"dddddddddddddd wsssssp9 -ddd+ sssssu Xddddddddddddddd< pssssss0o2ddd$0sssssyoddddddddddddddddddddddddddddddddddddddddddd",
"dddddddddddddd %euut7 X,dddd+ ssssse $ddddddddddddddd:>ssssssto2dddd;>sssssw#ddddddddddddddddddddddddddddddddddddddddddd",
"ddddddddddddddd#    X&2ddddd+ assss7 ,ddddddddddddddd: ussssi@2ddddd2.ussss>;ddddddddddddddddddddddddddddddddddddddddddd",
"dddddddddddddddddddddddddddd+ 3sssse#ddddddddddddddddd6eyuuq5dddddddd#0sssu 2ddddddddddddddddddddddddddddddddddddddddddd",
"ddddddddddddddddddddddddddddd# 0uueX2ddddddddddddddddd<:::<dddddddddd< isa3#dddddddddddddddddddddddddddddddddddddddddddd",
"dddddddddddddddddddddddddddddd=.  +<dddddddddddddddddddddddddddddddddd$>7>o2dddddddddddddddddddddddddddddddddddddddddddd",
"ddddddddddddddddddddddddddddddddddddddddddddddddddddddddddddddddddddddd=&=2ddddddddddddddddddddddddddddddddddddddddddddd",
"dddddddddddddddddddddddddddddddddddddddddddddddddddddddddddddddddddddddddddddddddddddddddddddddddddddddddddddddddddddddd",
"dddddddddddddddddddddddddddddddddddddddddddddddddddddddddddddddddddddddddddddddddddddddddddddddddddddddddddddddddddddddd",
"dddddddddddddddddddddddddddddddddddddddddddddddddddddddddddddddddddddddddddddddddddddddddddddddddddddddddddddddddddddddd",
"dddddddddddddddddddddddddddddddddddddddddddddddddddddddddddddddddddddddddddddddddddddddddddddddddddddddddddddddddddddddd",
"dddddddddddddddddddddddddddddddddddddddddddddddddddddddddddddddddddddddddddddddddddddddddddddddddddddddddddddddddddddddd",
"dddddddddddddddddddddddddddddddddddddddddddddddddddddddddddddddddddddddddddddddddddddddddddddddddddddddddddddddddddddddd",
"dddddddddddddddddddddddddddddddddddddddddddddddddddddddddddddddddddddddddddddddddddddddddddddddddddddddddddddddddddddddd",
"dddddddddddddddddddddddddddddddddddddddddddddddddddddddddddddddddddddddddddddddddddddddddddddddddddddddddddddddddddddddd",
"dddddddddddddddddddddddddddddddddddddddddddddddddddddddddddddddddddddddddddddddddddddddddddddddddddddddddddddddddddddddd",
"dddddddddddddddddddddddddddddddddddddddddddddddddddddddddddddddddddddddddddddddddddddddddddddddddddddddddddddddddddddddd",
"dddddddddddddddddddddddddddddddddddddddddddddddddddddddddddddddddddddddddddddddddddddddddddddddddddddddddddddddddddddddd",
"dddddddddddddddddddddddddddddddddddddddddddddddddddddddddddddddddddddddddddddddddddddddddddddddddddddddddddddddddddddddd",
"dddddddddddddddddddddddddddddddddddddddddddddddddddddddddddddddddddddddddddddddddddddddddddddddddddddddddddddddddddddddd",
"dddddddddddddddddddddddddddddddddddddddddddddddddddddddddddddddddddddddddddddddddddddddddddddddddddddddddddddddddddddddd",
"dddddddddddddddddddddddddddddddddddddddddddddddddddddddddddddddddddddddddddddddddddddddddddddddddddddddddddddddddddddddd",
"dddddddddddddddddddddddddddddddddddddddddddddddddddddddddddddddddddddddddddddddddddddddddddddddddddddddddddddddddddddddd",
"dddddddddddddddddddddddddddddddddddddddddddddddddddddddddddddddddddddddddddddddddddddddddddddddddddddddddddddddddddddddd",
"dddddddddddddddddddddddddddddddddddddddddddddddddddddddddddddddddddddddddddddddddddddddddddddddddddddddddddddddddddddddd",
"dddddddddddddddddddddddddddddddddddddddddddddddddddddddddddddddddddddddddddddddddddddddddddddddddddddddddddddddddddddddd",
"dddddddddddddddddddddddddddddddddddddddddddddddddddddddddddddddddddddddddddddddddddddddddddddddddddddddddddddddddddddddd",
"dddddddddddddddddddddddddddddddddddddddddddddddddddddddddddddddddddddddddddddddddddddddddddddddddddddddddddddddddddddddd",
"dddddddddddddddddddddddddddddddddddddddddddddddddddddddddddddddddddddddddddddddddddddddddddddddddddddddddddddddddddddddd",
"dddddddddddddddddddddddddddddddddddddddddddddddddddddddddddddddddddddddddddddddddddddddddddddddddddddddddddddddddddddddd",
"dddddddddddddddddddddddddddddddddddddddddddddddddddddddddddddddddddddddddddddddddddddddddddddddddddddddddddddddddddddddd",
"dddddddddddddddddddddddddddddddddddddddddddddddddddddddddddddddddddddddddddddddddddddddddddddddddddddddddddddddddddddddd",
"dddddddddddddddddddddddddddddddddddddddddddddddddddddddddddddddddddddddddddddddddddddddddddddddddddddddddddddddddddddddd",
"dddddddddddddddddddddddddddddddddddddddddddddddddddddddddddddddddddddddddddddddddddddddddddddddddddddddddddddddddddddddd",
"dddddddddddddddddddddddddddddddddddddddddddddddddddddddddddddddddddddddddddddddddddddddddddddddddddddddddddddddddddddddd",
"dddddddddddddddddddddddddddddddddddddddddddddddddddddddddddddddddddddddddddddddddddddddddddddddddddddddddddddddddddddddd",
"dddddddddddddddddddddddddddddddddddddddddddddddddddddddddddddddddddddddddddddddddddddddddddddddddddddddddddddddddddddddd",
"dddddddddddddddddddddddddddddddddddddddddddddddddddddddddddddddddddddddddddddddddddddddddddddddddddddddddddddddddddddddd",
"dddddddddddddddddddddddddddddddddddddddddddddddddddddddddddddddddddddddddddddddddddddddddddddddddddddddddddddddddddddddd",
"dddddddddddddddddddddddddddddddddddddddddddddddddddddddddddddddddddddddddddddddddddddddddddddddddddddddddddddddddddddddd",
"dddddddddddddddddddddddddddddddddddddddddddddddddddddddddddddddddddddddddddddddddddddddddddddddddddddddddddddddddddddddd",
"dddddddddddddddddddddddddddddddddddddddddddddddddddddddddddddddddddddddddddddddddddddddddddddddddddddddddddddddddddddddd",
"dddddddddddddddddddddddddddddddddddddddddddddddddddddddddddddddddddddddddddddddddddddddddddddddddddddddddddddddddddddddd",
"dddddddddddddddddddddddddddddddddddddddddddddddddddddddddddddddddddddddddddddddddddddddddddddddddddddddddddddddddddddddd",
"dddddddddddddddddddddddddddddddddddddddddddddddddddddddddddddddddddddddddddddddddddddddddddddddddddddddddddddddddddddddd",
"dddddddddddddddddddddddddddddddddddddddddddddddddddddddddddddddddddddddddddddddddddddddddddddddddddddddddddddddddddddddd",
"dddddddddddddddddddddddddddddddddddddddddddddddddddddddddddddddddddddddddddddddddddddddddddddddddddddddddddddddddddddddd",
"dddddddddddddddddddddddddddddddddddddddddddddddddddddddddddddddddddddddddddddddddddddddddddddddddddddddddddddddddddddddd",
"dddddddddddddddddddddddddddddddddddddddddddddddddddddddddddddddddddddddddddddddddddddddddddddddddddddddddddddddddddddddd",
"dddddddddddddddddddddddddddddddddddddddddddddddddddddddddddddddddddddddddddddddddddddddddddddddddddddddddddddddddddddddd"
};
