/* XPM */
static char *result[] = {
/* columns rows colors chars-per-pixel */
"120 120 34 1 ",
"  c black",
". c #010101",
"X c gray1",
"o c #040404",
"O c #070707",
"+ c gray3",
"@ c gray5",
"# c gray6",
"$ c #101010",
"% c gray8",
"& c #161616",
"* c gray10",
"= c #1D1D1D",
"- c gray12",
"; c #222222",
": c #252525",
"> c gray17",
", c #2F2F2F",
"< c #3F3F3F",
"1 c gray31",
"2 c #5F5F5F",
"3 c #656565",
"4 c #6D6D6D",
"5 c #6F6F6F",
"6 c gray50",
"7 c gray56",
"8 c #9F9F9F",
"9 c #AFAFAF",
"0 c gray75",
"q c gray81",
"w c #DFDFDF",
"e c #EFEFEF",
"r c white",
"t c None",
/* pixels */
"tttttttttttttttttttttttttttttttttttttttttttttttttttttttttttttttttttttttttttttttttttttttttttttttttttttttttttttttttttttttt",
"tttttttttttttttttttttttttttttttttttttttttttttttttttttttttttttttttttttttttttttttttttttttttttttttttttttttttttttttttttttttt",
"tttttttttttttttttttttttttttttttttttttttttttttttttttttttttttttttttttttttttttttttttttttttttttttttttttttttttttttttttttttttt",
"tttttttttttttttttttttttttttttttttttttttttttttttttttttttttttttttttttttttttttttttttttttttttttttttttttttttttttttttttttttttt",
"tttttttttttttttttttttttttttttttttttttttttttttttttttttttttttttttttttttttttttttttttttttttttttttttttttttttttttttttttttttttt",
"tttttttttttttttttttttttttttttttttttttttttttttttttttttttttttttttttttttttttttttttttttttttttttttttttttttttttttttttttttttttt",
"tttttttttttttttttttttttttttttttttttttttttttttttttttttttttttttttttttttttttttttttttttttttttttttttttttttttttttttttttttttttt",
"tttttttttttttttttttttttttttttttttttttttttttttttttttttttttttttttttttttttttttttttttttttttttttttttttttttttttttttttttttttttt",
"tttttttttttttttttttttttttttttttttttttttttttttttttttttttttttttttttttttttttttttttttttttttttttttttttttttttttttttttttttttttt",
"tttttttttttttttttttttttttttttttttttttttttttttttttttttttttttttttttttttttttttttttttttttttttttttttttttttttttttttttttttttttt",
"tttttttttttttttttttttttttttttttttttttttttttttttttttttttttttttttttttttttttttttttttttttttttttttttttttttttttttttttttttttttt",
"tttttttttttttttttttttttttttttttttttttttttttttttttttttttttttttttttttttttttttttttttttttttttttttttttttttttttttttttttttttttt",
"tttttttttttttttttttttttttttttttttttttttttttttttttttttttttttttttttttttttttttttttttttttttttttttttttttttttttttttttttttttttt",
"tttttttttttttttttttttttttttttttttttttttttttttttttttttttttttttttttttttttttttttttttttttttttttttttttttttttttttttttttttttttt",
"tttttttttttttttttttttttttttttttttttttttttttttttttttttttttttttttttttttttttttttttttttttttttttttttttttttttttttttttttttttttt",
"tttttttttttttttttttttttttttttttttttttttttttttttttttttttttttttttttttttttttttttttttttttttttttttttttttttttttttttttttttttttt",
"tttttttttttttttttttttttttttttttttttttttttttttttttttttttttttttttttttttttttttttttttttttttttttttttttttttttttttttttttttttttt",
"tttttttttttttttttttttttttttttttttttttttttttttttttttttttttttttttttttttttttttttttttttttttttttttttttttttttttttttttttttttttt",
"tttttttttttttttttttttttttttttttttttttttttttttttttttttttttttttttttttttttttttttttttttttttttttttttttttttttttttttttttttttttt",
"tttttttttttttttttttttttttttttttttttttttttttttttttttttttttttttttttttttttttttttttttttttttttttttttttttttttttttttttttttttttt",
"tttttttttttttttttttttttttttttttttttttttttttttttttttttttttttttttttttttttttttttttttttttttttttttttttttttttttttttttttttttttt",
"tttttttttttttttttttttttttttttttttttttttttttttttttttttttttttttttttttttttttttttttttttttttttttttttttttttttttttttttttttttttt",
"tttttttttttttttttttttttttttttttttttttttttttttttttttttttttttttttttttttttttttttttttttttttttttttttttttttttttttttttttttttttt",
"tttttttttttttttttttttttttttttttttttttttttttttttttttttttttttttttttttttttttttttttttttttttttttttttttttttttttttttttttttttttt",
"tttttttttttttttttttttttttttttttttttttttttttttttttttttttttttttttttttttttttttttttttttttttttttttttttttttttttttttttttttttttt",
"tttttttttttttttttttttttttttttttttttttttttttttttttttttttttttttttttttttttttttttttttttttttttttttttttttttttttttttttttttttttt",
"tttttttttttttttttttttttttttttttttttttttttttttttttttttttttttttttttttttttttttttttttttttttttttttttttttttttttttttttttttttttt",
"tttttttttttttttttttttttttttttttttttttttttttttttttttttttttttttttttttttttttttttttttttttttttttttttttttttttttttttttttttttttt",
"tttttttttttttttttttttttttttttttttttt         ttttttttttttttttttttttttttttttttttttttttttttttttttttttttttttttttttttttttttt",
"tttttttttttttttttttttttttttttttt  169wr9666661       ttttttttttttttttttttttttttttttttttttttttttttttttttttttttttttttttttt",
"ttttttttttttttttttttttttttttt ,7qrrrrrrrrrrrrrrre0961<<<<<<<<<-   tttttttttttttttttttttttttttttttttttttttttttttttttttttt",
"ttttttttttttttttttttttttttt<7wrrrrrrrrrrrrrrrrrrrrrrrrrrrrrrrrrq7<    tttttttttttttttttttttttttttttttttttttttttttttttttt",
"tttttttttttttttttttttttt 3qrrrrrrrrrrrrrrrrrrrrrrrrrrrrrrrrrrrrrrre82#    ttttttttttt  ttttttttttttttttttttttttttttttttt",
"tttttttttttttttttttttt 1errrrrrrrrrrrrrrrrrrrrrrrrrrrrrrrrrrrrrrrrrrrr05,    tttttt  <8ttttttttttttttttttttttttttttttttt",
"tttttttttttttttttttt  7rrrrrrrrrrrrrrrrrrrrrrrrrrrrrrrrrrrrrrrrrrrrrrrrrrw71    ttt  <r4tttttttttttttttttttttttttttttttt",
"ttttttttttttttttttt #0rrrrrrrrrrrrrrrrrrrrrrrrrrrrrrrrrrrrrrrrrrrrrrrrrrrrrre92-     <r6tttttttttttttttttttttttttttttttt",
"ttttttttttttttttt  #qrrrrrrrrrrrrrrrrrrrrrrrrrrrrrrrrrrrrrrrrrrrrrrrrrrrrrrrrrrr05,  #72tttttttttttttttttttttttttttttttt",
"tttttttttttttttt  #qrrrrrrrrrrrrrrrrrrrrrrrrrrrrrrrrrrrrrrrrrrrrrrrrrrrrrrrrrrrrrrr01   tttttttttttttttttttttttttttttttt",
"ttttttttttttttt  #qrrrrrrrrrrrrrrrrrrrrrrrrrrrrrrrrrrrrrrrrrrrrrrrrrrrrrrrrrrrrrrrrrr0-  ttttttttttttttttttttttttttttttt",
"ttttttttttttttt  8rrrrrrrrrrrrrrrrrrrrrrrrrrrrrrrrrrrrrrrrrrrrrrrrrrrrrrrrrrrrrrrrrrrre,  tttttttttttttttttttttttttttttt",
"tttttttttttttt  5rrrrrrrrrrrrrrrrrrrrrrrrrrrrrrrrrrrrrrrrrrrrrrrrrrrrrrrrrrrrrrrrrrrrrrq#  ttttttttttttttttttttttttttttt",
"tttttttttttttt  619rrrrrrrrrrrrrrrrrrrrrrrrrrrrrrrrrrrrrrrrrrrrrrrrrrrrrrrrrrrrrrrrrrrrr9   tttttttttttttttttttttttttttt",
"ttttttttttttttt   <rrrrrrrrrrrrrrrrrrrrrrrrrrrrrrrrrrrrrrrrrrrrrrrrrrrrrrrrrrrrrrrrrrrrrr8   ttttttttttttttttttttttttttt",
"ttttttttttttttttt <rrrrrrrrrrrrrrrrrrrrrrrrrrrrrrrrrrrrrrrrrrrrrrrrrrrrrrrrrrrrrrrrrrrrrrr5  ttttttttttttttttttttttttttt",
"ttttttttttttttttt 2rrrrrrrrrrrrrrrrrrrrrrrrrrrrrrrrrrrrrrrrrrrrrrrrrrrrrrrrrrrrrrrrrrrrrrrr<   t ttttttttttttttttttttttt",
"ttttttttttttttttt qrrrrrrrrrrrqerrrrrrrrrrrrrrrrrrrrrrrrrrrrrrrrrrrrrrrrrrrrrrrrrrrrr#errrrq#    ttttttttttttttttttttttt",
"tttttttttttttttt #rrrrrrrrrrrr#5rrrrrrrrrrrrrrrrrrrrrrrrrrrrrrrrrrrrrrrrrrrrrrrrrrrrr ,wrrrrq    ttttttttttttttttttttttt",
"tttttttttttttttt 1rrrrrrrrrrrr,-rrrrrrrrrrrrrrrrrrrrrrrrrrrrrrrrrrrrrrrrrrrrrrrrrrrrr, 1rrrrr7    tttttttttttttttttttttt",
"tttttttttttttttt 8rrrrrrrrrrrr2 qrrrrrrrrrrrrrrrrrrrrrrrrrrrrrrrrrrrrrrrrrrrrrrrrrrrr<  rrrrrr1   tttttttttttttttttttttt",
"tttttttttttttttt wrrrrrrrrrrrr9 7rrrrrrrrrrrrrrrrrrrrrrrrrrrrrrrrrrrrrrrrrrrrrrrrrrrr6  rrrrrre#  tttttttttttttttttttttt",
"tttttttttttttttt-rrrrrrrrrrrrrr#1rrrrrrrrrrrrrrrrrrrrrrrrrrrrrrrrrrrrrrrrrrrrrrrrrrrr9  rrrrrrr7  tttttttttttttttttttttt",
"ttttttttttttttt <rrrrrrrrrrrrrr2,rrrrrrrrrrrrrrrrrrrrrrrrrrrrrrrrrrrrrrrrrrrrrrrrrrrr0  rrrrrrrr, tttttttttttttttttttttt",
"ttttttttttttttt 6rrrrrrrrrrrrrr8 rrrrrrrrrrrrrrrrrrrrrrrrrrrrrrrrrrrrrrrrrrrrrrrrrrrr0 ,rrrrrrrr6 tttttttttttttttttttttt",
"ttttttttttttttt 6rrrrrrrrrrrrrrw wrrrrrrrrrrrrrrrrrrrrrrrrrrrrrrrrrrrrrrrrrrrrrrrrrrr0 1rrrrrrrr1 tttttttttttttttttttttt",
"ttttttttttttttt 6rrrrrrrrrrrrrrr,0rrrrrrrrrrrrrrrrrrrrrrrrrrrrrrrrrrrrrrrwwrrrrrrrrrre,9rrrrrrre ttttttttttttttttttttttt",
"tttttttttttttttt1rrrrrrrrrrrrrrr59rrrrrrrrrrrrrrrrrrrrrrrrrrrrrrr70rrrrrr86rrrrrrrrrrrrrrrrrrrr6 ttttttttttttttttttttttt",
"tttttttttttttttt#rrrrrrrrrrrrrrr66rrrrrrrrrrrrrrrrrrrrrrrrrrrrrrw<0rrrrrr6  ,7wrrrrrrrrrrrrrrrq$tttttttttttttttttttttttt",
"tttttttttttttttt 9rrrrrrrrrrrrrr6 ,8e0rrrrrrrrrrrrrrrrrrrrrrrrw<  0rrrrrr<     10rrrrrrrrrrrrr,ttttttttttttttttttttttttt",
"tttttttttttttttt <rrrrrrrrrrrrrr6,6# -<50rrrrrrrrrrrrrrr085<#   t 0rrrrrr<ttttt  ,18wrrrrrrre< ttttttttttttttttttttttttt",
"ttttttttttttttttt 0rrrrrrrrrrrrr6<rr8 t   <<5666666666,   ttttttt wrrrrrr#ttttttttt  ,166666# tttttttttttttttttttttttttt",
"ttttttttttttttttt <rrrrrrrrrrrrr6<rr2 tttttttttttttttttttttttttt -rrrrrre tttttttttttttttttttttttttttttttttttttttttttttt",
"tttttttttttttttttt 0rrrrrrrrrrrr8,rr,ttttttttttttttttttttttttttt 5rrrrrr0 tttttttttttttttttttttttttttttttttttttttttttttt",
"tttttttttttttttttt 2rrrrrrrrrrrr0 rr ttttttttttttttttttttttttttt wrrrrrr7 tttttttttttttttttttttttttttttttttttttttttttttt",
"ttttttttttttttttttt wrrrrrrrrrrr0 rq ttttttttttttttttttttttttttt<rrrrrrr2 tttttttttttttttttttttttttttttttttttttttttttttt",
"ttttttttttttttttttt 2rrrrrrrrrrr0 r8 tttttttttttttttttttttttttt 0rrrrrre# tttttttttttttttttttttttttttttttttttttttttttttt",
"tttttttttttttttttttt wrrrrrrrrrr0 r2 tttttttttttttttttttttttttt<rrrrrrr8  tttttttttttttttttttttttttttttttttttttttttttttt",
"tttttttttttttttttttt 2rrrrrrrrrr0 q  ttttttttttttttttttttttttt 0rrrrrre#  tttttttttttttttttttttttttttttttttttttttttttttt",
"ttttttttttttttttttttt.wrrrrrrrrr0 6 tttttttttttttttttttttttttt1rrrrrrr1 1 tttttttttttttttttttttttttttttttttttttttttttttt",
"ttttttttttttttttttttt$1rrrrrrrrr6 -.ttttttttttttttttttttttttt wrrrrrr2 61 tttttttttttttttttttttttttttttttttttttttttttttt",
"ttttttttttttttttttttt>.qrrrrrrrr6  $tttttttttttttttttttttttttX8rrrrw< 2r-ttttttttttttttttttttttttttttttttttttttttttttttt",
"tttttttttttttttttttttt*-rrrrrrrr5 o>ttttttttttttttttttttttttt+#9006# 6rw >tttttttttttttttttttttttttttttttttttttttttttttt",
"ttttttttttttttttttttttt+7rrrrrrr,$>tttttttttttttttttttttttttt>o    10rr6Ottttttttttttttttttttttttttttttttttttttttttttttt",
"ttttttttttttttttttttttt>.qrrrrrw :tttttttttttttttttttttttttttttt=-rrrrw#&ttttttttttttttttttttttttttttttttttttttttttttttt",
"tttttttttttttttttttttttt*,errrr1+ttttttttttttttttttttttttttttttt= 0rrr<Xtttttttttttttttttttttttttttttttttttttttttttttttt",
"ttttttttttttttttttttttttt$,ere2.;tttttttttttttttttttttttttttttttt.6rr2 =tttttttttttttttttttttttttttttttttttttttttttttttt",
"tttttttttttttttttttttttttt@   X;ttttttttttttttttttttttttttttttttt%    &ttttttttttttttttttttttttttttttttttttttttttttttttt",
"ttttttttttttttttttttttttttt;==>ttttttttttttttttttttttttttttttttttt;==:tttttttttttttttttttttttttttttttttttttttttttttttttt",
"tttttttttttttttttttttttttttttttttttttttttttttttttttttttttttttttttttttttttttttttttttttttttttttttttttttttttttttttttttttttt",
"tttttttttttttttttttttttttttttttttttttttttttttttttttttttttttttttttttttttttttttttttttttttttttttttttttttttttttttttttttttttt",
"tttttttttttttttttttttttttttttttttttttttttttttttttttttttttttttttttttttttttttttttttttttttttttttttttttttttttttttttttttttttt",
"tttttttttttttttttttttttttttttttttttttttttttttttttttttttttttttttttttttttttttttttttttttttttttttttttttttttttttttttttttttttt",
"tttttttttttttttttttttttttttttttttttttttttttttttttttttttttttttttttttttttttttttttttttttttttttttttttttttttttttttttttttttttt",
"tttttttttttttttttttttttttttttttttttttttttttttttttttttttttttttttttttttttttttttttttttttttttttttttttttttttttttttttttttttttt",
"tttttttttttttttttttttttttttttttttttttttttttttttttttttttttttttttttttttttttttttttttttttttttttttttttttttttttttttttttttttttt",
"tttttttttttttttttttttttttttttttttttttttttttttttttttttttttttttttttttttttttttttttttttttttttttttttttttttttttttttttttttttttt",
"tttttttttttttttttttttttttttttttttttttttttttttttttttttttttttttttttttttttttttttttttttttttttttttttttttttttttttttttttttttttt",
"tttttttttttttttttttttttttttttttttttttttttttttttttttttttttttttttttttttttttttttttttttttttttttttttttttttttttttttttttttttttt",
"tttttttttttttttttttttttttttttttttttttttttttttttttttttttttttttttttttttttttttttttttttttttttttttttttttttttttttttttttttttttt",
"tttttttttttttttttttttttttttttttttttttttttttttttttttttttttttttttttttttttttttttttttttttttttttttttttttttttttttttttttttttttt",
"tttttttttttttttttttttttttttttttttttttttttttttttttttttttttttttttttttttttttttttttttttttttttttttttttttttttttttttttttttttttt",
"tttttttttttttttttttttttttttttttttttttttttttttttttttttttttttttttttttttttttttttttttttttttttttttttttttttttttttttttttttttttt",
"tttttttttttttttttttttttttttttttttttttttttttttttttttttttttttttttttttttttttttttttttttttttttttttttttttttttttttttttttttttttt",
"tttttttttttttttttttttttttttttttttttttttttttttttttttttttttttttttttttttttttttttttttttttttttttttttttttttttttttttttttttttttt",
"tttttttttttttttttttttttttttttttttttttttttttttttttttttttttttttttttttttttttttttttttttttttttttttttttttttttttttttttttttttttt",
"tttttttttttttttttttttttttttttttttttttttttttttttttttttttttttttttttttttttttttttttttttttttttttttttttttttttttttttttttttttttt",
"tttttttttttttttttttttttttttttttttttttttttttttttttttttttttttttttttttttttttttttttttttttttttttttttttttttttttttttttttttttttt",
"tttttttttttttttttttttttttttttttttttttttttttttttttttttttttttttttttttttttttttttttttttttttttttttttttttttttttttttttttttttttt",
"tttttttttttttttttttttttttttttttttttttttttttttttttttttttttttttttttttttttttttttttttttttttttttttttttttttttttttttttttttttttt",
"tttttttttttttttttttttttttttttttttttttttttttttttttttttttttttttttttttttttttttttttttttttttttttttttttttttttttttttttttttttttt",
"tttttttttttttttttttttttttttttttttttttttttttttttttttttttttttttttttttttttttttttttttttttttttttttttttttttttttttttttttttttttt",
"tttttttttttttttttttttttttttttttttttttttttttttttttttttttttttttttttttttttttttttttttttttttttttttttttttttttttttttttttttttttt",
"tttttttttttttttttttttttttttttttttttttttttttttttttttttttttttttttttttttttttttttttttttttttttttttttttttttttttttttttttttttttt",
"tttttttttttttttttttttttttttttttttttttttttttttttttttttttttttttttttttttttttttttttttttttttttttttttttttttttttttttttttttttttt",
"tttttttttttttttttttttttttttttttttttttttttttttttttttttttttttttttttttttttttttttttttttttttttttttttttttttttttttttttttttttttt",
"tttttttttttttttttttttttttttttttttttttttttttttttttttttttttttttttttttttttttttttttttttttttttttttttttttttttttttttttttttttttt",
"tttttttttttttttttttttttttttttttttttttttttttttttttttttttttttttttttttttttttttttttttttttttttttttttttttttttttttttttttttttttt",
"tttttttttttttttttttttttttttttttttttttttttttttttttttttttttttttttttttttttttttttttttttttttttttttttttttttttttttttttttttttttt",
"tttttttttttttttttttttttttttttttttttttttttttttttttttttttttttttttttttttttttttttttttttttttttttttttttttttttttttttttttttttttt",
"tttttttttttttttttttttttttttttttttttttttttttttttttttttttttttttttttttttttttttttttttttttttttttttttttttttttttttttttttttttttt",
"tttttttttttttttttttttttttttttttttttttttttttttttttttttttttttttttttttttttttttttttttttttttttttttttttttttttttttttttttttttttt",
"tttttttttttttttttttttttttttttttttttttttttttttttttttttttttttttttttttttttttttttttttttttttttttttttttttttttttttttttttttttttt",
"tttttttttttttttttttttttttttttttttttttttttttttttttttttttttttttttttttttttttttttttttttttttttttttttttttttttttttttttttttttttt",
"tttttttttttttttttttttttttttttttttttttttttttttttttttttttttttttttttttttttttttttttttttttttttttttttttttttttttttttttttttttttt",
"tttttttttttttttttttttttttttttttttttttttttttttttttttttttttttttttttttttttttttttttttttttttttttttttttttttttttttttttttttttttt",
"tttttttttttttttttttttttttttttttttttttttttttttttttttttttttttttttttttttttttttttttttttttttttttttttttttttttttttttttttttttttt",
"tttttttttttttttttttttttttttttttttttttttttttttttttttttttttttttttttttttttttttttttttttttttttttttttttttttttttttttttttttttttt",
"tttttttttttttttttttttttttttttttttttttttttttttttttttttttttttttttttttttttttttttttttttttttttttttttttttttttttttttttttttttttt",
"tttttttttttttttttttttttttttttttttttttttttttttttttttttttttttttttttttttttttttttttttttttttttttttttttttttttttttttttttttttttt",
"tttttttttttttttttttttttttttttttttttttttttttttttttttttttttttttttttttttttttttttttttttttttttttttttttttttttttttttttttttttttt",
"tttttttttttttttttttttttttttttttttttttttttttttttttttttttttttttttttttttttttttttttttttttttttttttttttttttttttttttttttttttttt"
};
