/* XPM */
static char *result[] = {
/* columns rows colors chars-per-pixel */
"120 120 34 1 ",
"  c black",
". c #010101",
"X c gray1",
"o c #040404",
"O c #070707",
"+ c gray3",
"@ c #0B0B0B",
"# c gray5",
"$ c gray6",
"% c #101010",
"& c gray8",
"* c #161616",
"= c gray10",
"- c #1D1D1D",
"; c gray12",
": c gray13",
"> c #222222",
", c #252525",
"< c gray17",
"1 c #2F2F2F",
"2 c #3F3F3F",
"3 c gray31",
"4 c #5F5F5F",
"5 c #6F6F6F",
"6 c gray50",
"7 c gray56",
"8 c #9F9F9F",
"9 c #AFAFAF",
"0 c gray75",
"q c gray81",
"w c #DFDFDF",
"e c #EFEFEF",
"r c white",
"t c None",
/* pixels */
"tttttttttttttttttttttttttttttttttttttttttttttttttttttttttttttttttttttttttttttttttttttttttttttttttttttttttttttttttttttttt",
"tttttttttttttttttttttttttttttttttttttttttttttttttttttttttttttttttttttttttttttttttttttttttttttttttttttttttttttttttttttttt",
"tttttttttttttttttttttttttttttttttttttttttttttttttttttttttttttttttttttttttttttttttttttttttttttttttttttttttttttttttttttttt",
"tttttttttttttttttttttttttttttttttttttttttttttttttttttttttttttttttttttttttttttttttttttttttttttttttttttttttttttttttttttttt",
"tttttttttttttttttttttttttttttttttttttttttttttttttttttttttttttttttttttttttttttttttttttttttttttttttttttttttttttttttttttttt",
"tttttttttttttttttttttttttttttttttttttttttttttttttttttttttttttttttttttttttttttttttttttttttttttttttttttttttttttttttttttttt",
"tttttttttttttttttttttttttttttttttttttttttttttttttttttttttttttttttttttttttttttttttttttttttttttttttttttttttttttttttttttttt",
"tttttttttttttttttttttttttttttttttttttttttttttttttt        $$                  tttttttttttttttttttttttttttttttttttttttttt",
"tttttttttttttttttttttttttttttttttttttttttttttttttt        $$                  tttttttttttttttttttttttttttttttttttttttttt",
"tttttttttttttttttttttttttttttttttttttttttttttt    1155qqrrrrrrrrqq00776622$$      tttttttttttttttttttttttttttttttttttttt",
"tttttttttttttttttttttttttttttttttttttttttttttt    1155qqrrrrrrrrqq00776622$$      tttttttttttttttttttttttttttttttttttttt",
"tttttttttttttttttttttttttttttttttttttttttt    44qqrrrrrrrrrrrrrrrrrrrrrrrrrrww7722    tttttttttttttttttttttttttttttttttt",
"tttttttttttttttttttttttttttttttttttttttttt    44qqrrrrrrrrrrrrrrrrrrrrrrrrrrww7722    tttttttttttttttttttttttttttttttttt",
"tttttttttttttttttttttttttttttttttttttttt  $$00rrrrrrrrrrrrrrrrrrrrrrrrrrrrrrrrrrrrww55    tttttttttttttttttttttttttttttt",
"tttttttttttttttttttttttttttttttttttttttt  $$00rrrrrrrrrrrrrrrrrrrrrrrrrrrrrrrrrrrrww55    tttttttttttttttttttttttttttttt",
"tttttttttttttttttttttttttttttttttttttt  11eerrrrrrrrrrrrrrrrrrrrrrrrrrrrrrrrrrrrrrrrrrww;;tttttttttttttttttttttttttttttt",
"tttttttttttttttttttttttttttttttttttttt  11eerrrrrrrrrrrrrrrrrrrrrrrrrrrrrrrrrrrrrrrrrrww;;tttttttttttttttttttttttttttttt",
"tttttttttttttttttttttttttttttttttttt  $$qqrrrrrrrrrrrrrrrrrrrrrrrrrrrrrrrrrrrrrrrrrrrrrree::tttttttttttttttttttttttttttt",
"tttttttttttttttttttttttttttttttttttt  $$qqrrrrrrrrrrrrrrrrrrrrrrrrrrrrrrrrrrrrrrrrrrrrrree::tttttttttttttttttttttttttttt",
"tttttttttttttttttttttttttttttttttt    66rrrrrrrrrrrrrrrrrrrrrrrrrrrrrrrrrrrrrrrrrrrrrrrrrrqq  tttttttttttttttttttttttttt",
"tttttttttttttttttttttttttttttttttt    66rrrrrrrrrrrrrrrrrrrrrrrrrrrrrrrrrrrrrrrrrrrrrrrrrrqq  tttttttttttttttttttttttttt",
"tttttttttttttttttttttttttttttttttt  ;;eerrrrrrrrrrrrrrrrrrrrrrrrrrrrrrrrrrrrrrrrrrrrrrrrrrrr44tttttttttttttttttttttttttt",
"tttttttttttttttttttttttttttttttttt  ;;eerrrrrrrrrrrrrrrrrrrrrrrrrrrrrrrrrrrrrrrrrrrrrrrrrrrr44tttttttttttttttttttttttttt",
"tttttttttttttttttttttttttttttttt    qqrrrrrrrrrrrrrrrrrrrrrrrrrrrrrrrrrrrrrrrrrrrrrrrrrrrrrr99  tttttttttttttttttttttttt",
"tttttttttttttttttttttttttttttttt    qqrrrrrrrrrrrrrrrrrrrrrrrrrrrrrrrrrrrrrrrrrrrrrrrrrrrrrr99  tttttttttttttttttttttttt",
"tttttttttttttttttttttttttttttttt  66rrrrrrrrrrrrrrrrrrrrrrrrrrrrrrrrrrrrrrrrrrrrrrrrrrrrrrrrrr  tttttttttttttttttttttttt",
"tttttttttttttttttttttttttttttttt  66rrrrrrrrrrrrrrrrrrrrrrrrrrrrrrrrrrrrrrrrrrrrrrrrrrrrrrrrrr  tttttttttttttttttttttttt",
"tttttttttttttttttttttttttttttt  $$eerrrrrrrrrrrrrrrrrrrrrrrrrrrrrrrrrrrrrrrrrrrrrrrrrrrrrrrrrr22  tttttttttttttttttttttt",
"tttttttttttttttttttttttttttttt  $$eerrrrrrrrrrrrrrrrrrrrrrrrrrrrrrrrrrrrrrrrrrrrrrrrrrrrrrrrrr22  tttttttttttttttttttttt",
"tttttttttttttttttttttttttttttt  99rrrrrrrrrrrrrrrrrrrrrrrrrrrrrrrrrrrrrrrrrrrrrrrrrrrrrrrrrrrr88  tttttttttttttttttttttt",
"tttttttttttttttttttttttttttttt  99rrrrrrrrrrrrrrrrrrrrrrrrrrrrrrrrrrrrrrrrrrrrrrrrrrrrrrrrrrrr88  tttttttttttttttttttttt",
"tttttttttttttttttttttttttttt  22rrrrrrrrrrrrrrrrrrrrrrrrrrrrrrrrrrrrrrrrrrrrrrrrrrrrrrrrrrrrrree  tttttttttttttttttttttt",
"tttttttttttttttttttttttttttt  22rrrrrrrrrrrrrrrrrrrrrrrrrrrrrrrrrrrrrrrrrrrrrrrrrrrrrrrrrrrrrree  tttttttttttttttttttttt",
"tttttttttttttttttttttttttttt  00rrrrrrrrrrrrrrrrrrrrrrrrrrrrrrrrrrrrrrrrrrrrrrrrrrrrrrrrrrrrrrrr44tttttttttttttttttttttt",
"tttttttttttttttttttttttttttt  00rrrrrrrrrrrrrrrrrrrrrrrrrrrrrrrrrrrrrrrrrrrrrrrrrrrrrrrrrrrrrrrr44tttttttttttttttttttttt",
"tttttttttttttttttttttttttttt22rrrrrrrrrrrrrrrrrrrrrrrrrrrrrrrrrrrrrrrrrrrrrrrrrrrrrrrrrrrrrrrrrr88  tttttttttttttttttttt",
"tttttttttttttttttttttttttttt22rrrrrrrrrrrrrrrrrrrrrrrrrrrrrrrrrrrrrrrrrrrrrrrrrrrrrrrrrrrrrrrrrr88  tttttttttttttttttttt",
"tttttttttttttttttttttttttt  88rrrrrrrrrrrrrrrrrrrrrrrrrrrrrrrrrrrrrrrrrrrrrrrrrrrrrrrrrrrrrrrrrree  tttttttttttttttttttt",
"tttttttttttttttttttttttttt  88rrrrrrrrrrrrrrrrrrrrrrrrrrrrrrrrrrrrrrrrrrrrrrrrrrrrrrrrrrrrrrrrrree  tttttttttttttttttttt",
"tttttttttttttttttttttttttt  eerrrrrrrrrrrrrrrrrrrrrrrrrrrrrrrrrrrrrrrrrrrrrrrrrrrrrrrrrrrrrrrrrrrr22tttttttttttttttttttt",
"tttttttttttttttttttttttttt  eerrrrrrrrrrrrrrrrrrrrrrrrrrrrrrrrrrrrrrrrrrrrrrrrrrrrrrrrrrrrrrrrrrrr22tttttttttttttttttttt",
"tttttttttttttttttttttttttt;;rrrrrrrrrrrrrrrrrrrrrrrrrrrrrrrrrrrrrrrrrrrrrrrrrrrrrrrrrrrrrrrrrrrrrr66tttttttttttttttttttt",
"tttttttttttttttttttttttttt;;rrrrrrrrrrrrrrrrrrrrrrrrrrrrrrrrrrrrrrrrrrrrrrrrrrrrrrrrrrrrrrrrrrrrrr66tttttttttttttttttttt",
"tttttttttttttttttttttttttt22rrrrrrrrrrrrrrrrrrrrrrrrrrrrrrrrrrrrrrrrrrrrrrrr88666666qqrrrrrrrrrrrr66tttttttttttttttttttt",
"tttttttttttttttttttttttttt22rrrrrrrrrrrrrrrrrrrrrrrrrrrrrrrrrrrrrrrrrrrrrrrr88666666qqrrrrrrrrrrrr66tttttttttttttttttttt",
"tttttttttttttttttttttttt  66rrrrrrrrrrrr2222222299rrrrrrrrrrrrrrrrrrrrrrrr55  112222  00rrrrrrrrrr66tttttttttttttttttttt",
"tttttttttttttttttttttttt  66rrrrrrrrrrrr2222222299rrrrrrrrrrrrrrrrrrrrrrrr55  112222  00rrrrrrrrrr66tttttttttttttttttttt",
"tttttttttttttttttttttttt  77rrrrrrrrrr0011000011  00rrrrrrrrrrrrrrrrrrrrrr;;22rrrrrr8844rrrrrrrrrr66tttttttttttttttttttt",
"tttttttttttttttttttttttt  77rrrrrrrrrr0011000011  00rrrrrrrrrrrrrrrrrrrrrr;;22rrrrrr8844rrrrrrrrrr66tttttttttttttttttttt",
"tttttttttttttttttttttttt  00rrrrrrrrrree$$rrrrqq$$44rrrrrrrrrrrrrrrrrrrrrr88eerrrrrr6677rrrrrrrrrr66tttttttttttttttttttt",
"tttttttttttttttttttttttt  00rrrrrrrrrree$$rrrrqq$$44rrrrrrrrrrrrrrrrrrrrrr88eerrrrrr6677rrrrrrrrrr66tttttttttttttttttttt",
"tttttttttttttttttttttttt  eerrrrrrrrrrrr;;66rrrrqq22rrrrrrrrrrrrrrrrrrrrrrrrrrrrrrrr3300rrrrrrrrrr66tttttttttttttttttttt",
"tttttttttttttttttttttttt  eerrrrrrrrrrrr;;66rrrrqq22rrrrrrrrrrrrrrrrrrrrrrrrrrrrrrrr3300rrrrrrrrrr66tttttttttttttttttttt",
"tttttttttttttttttttttttt  rrrrrrrrrrrrrr55$$qqrrrrrrrrrrrrrrrrrrrrrrrrrrrrrrrrrrrrww  eerrrrrrrrrr66tttttttttttttttttttt",
"tttttttttttttttttttttttt  rrrrrrrrrrrrrr55$$qqrrrrrrrrrrrrrrrrrrrrrrrrrrrrrrrrrrrrww  eerrrrrrrrrr66tttttttttttttttttttt",
"tttttttttttttttttttttttt;;rrrrrrrrrrrrrrww$$$$qqrrrrrrrrrrrrrrrrrrrrrrrrrrrrrrrrrr3333rrrrrrrrrrrr66tttttttttttttttttttt",
"tttttttttttttttttttttttt;;rrrrrrrrrrrrrrww$$$$qqrrrrrrrrrrrrrrrrrrrrrrrrrrrrrrrrrr3333rrrrrrrrrrrr66tttttttttttttttttttt",
"tttttttttttttttttttttttt22rrrrrrrrrrrrrrrrww  99rrrrrrrrrrrrrrrrrrrrrrrrrrrrrrrr99$$qqrrrrrrrrrrrr33tttttttttttttttttttt",
"tttttttttttttttttttttttt22rrrrrrrrrrrrrrrrww  99rrrrrrrrrrrrrrrrrrrrrrrrrrrrrrrr99$$qqrrrrrrrrrrrr33tttttttttttttttttttt",
"tttttttttttttttttttttttt22rrrrrrrrrrrrrrrr00  eerrrrrrrrrrrrrrrrrrrrrrrrrrrrrrrrrr$$rrrrrrrrrrrrrr22tttttttttttttttttttt",
"tttttttttttttttttttttttt22rrrrrrrrrrrrrrrr00  eerrrrrrrrrrrrrrrrrrrrrrrrrrrrrrrrrr$$rrrrrrrrrrrrrr22tttttttttttttttttttt",
"tttttttttttttttttttttttt22rrrrrrrrrrrrrrrr00  rrrrrrrrrrrrrrrrrrrrrrrrrrrrrrrrrrrr;;00rrrrrrrrrrrr;;tttttttttttttttttttt",
"tttttttttttttttttttttttt22rrrrrrrrrrrrrrrr00  rrrrrrrrrrrrrrrrrrrrrrrrrrrrrrrrrrrr;;00rrrrrrrrrrrr;;tttttttttttttttttttt",
"tttttttttttttttttttttttt22rrrrrrrrrrrrrrrr0011qqrrrrrrrrrrrrrrrrrrrrrrrrrrrrrrrrrr2200rrrrrrrrrrrr  tttttttttttttttttttt",
"tttttttttttttttttttttttt22rrrrrrrrrrrrrrrr0011qqrrrrrrrrrrrrrrrrrrrrrrrrrrrrrrrrrr2200rrrrrrrrrrrr  tttttttttttttttttttt",
"tttttttttttttttttttttttt11rrrrrrrrrrrrrrrr00    ;;qqrrww77666688eerrrrrrrr886666ww2200rrrrrrrrrrqq  tttttttttttttttttttt",
"tttttttttttttttttttttttt11rrrrrrrrrrrrrrrr00    ;;qqrrww77666688eerrrrrrrr886666ww2200rrrrrrrrrrqq  tttttttttttttttttttt",
"tttttttttttttttttttttttt  rrrrrrrrrrrrrrrr00      22ww$$        $$qqrrrrww      $$2200rrrrrrrrrr88  tttttttttttttttttttt",
"tttttttttttttttttttttttt  rrrrrrrrrrrrrrrr00      22ww$$        $$qqrrrrww      $$2200rrrrrrrrrr88  tttttttttttttttttttt",
"tttttttttttttttttttttttt  wwrrrrrrrrrrrrrree$$    2288            22eerrrr22      11wwrrrrrrrrrr55tttttttttttttttttttttt",
"tttttttttttttttttttttttt  wwrrrrrrrrrrrrrree$$    2288            22eerrrr22      11wwrrrrrrrrrr55tttttttttttttttttttttt",
"tttttttttttttttttttttttt  99rrrrrrrrrrrrrrrr556600ww44              22rrrrqq222266$$rrrrrrrrrrrr22tttttttttttttttttttttt",
"tttttttttttttttttttttttt  99rrrrrrrrrrrrrrrr556600ww44              22rrrrqq222266$$rrrrrrrrrrrr22tttttttttttttttttttttt",
"tttttttttttttttttttttttt  55rrrrrrrrrrrrrrrr9944rrww  ;;$$        22  88rrrrrrrr5522rrrrrrrrrrrr  tttttttttttttttttttttt",
"tttttttttttttttttttttttt  55rrrrrrrrrrrrrrrr9944rrww  ;;$$        22  88rrrrrrrr5522rrrrrrrrrrrr  tttttttttttttttttttttt",
"tttttttttttttttttttttttttt11rrrrrrrrrrrrrrrree$$rr00  000044  44qqee1133rrrrrrqq  77rrrrrrrrrrqq  tttttttttttttttttttttt",
"tttttttttttttttttttttttttt11rrrrrrrrrrrrrrrree$$rr00  000044  44qqee1133rrrrrrqq  77rrrrrrrrrrqq  tttttttttttttttttttttt",
"tttttttttttttttttttttttttt  eerrrrrrrrrrrrrrrr33880011rrrr00  wwrrrrww  rrrrrr11$$wwrrrrrrrrrr77  tttttttttttttttttttttt",
"tttttttttttttttttttttttttt  eerrrrrrrrrrrrrrrr33880011rrrr00  wwrrrrww  rrrrrr11$$wwrrrrrrrrrr77  tttttttttttttttttttttt",
"tttttttttttttttttttttttttt  88rrrrrrrrrrrrrrrr88220011rr9944          $$rrrr88  88rrrrrrrrrrrr33tttttttttttttttttttttttt",
"tttttttttttttttttttttttttt  88rrrrrrrrrrrrrrrr88220011rr9944          $$rrrr88  88rrrrrrrrrrrr33tttttttttttttttttttttttt",
"tttttttttttttttttttttttttt  22rrrrrrrrrrrrrrrrqq  55  $$$$226699000033  rree1144rrrrrrrrrrrrrr$$tttttttttttttttttttttttt",
"tttttttttttttttttttttttttt  22rrrrrrrrrrrrrrrrqq  55  $$$$226699000033  rree1144rrrrrrrrrrrrrr$$tttttttttttttttttttttttt",
"tttttttttttttttttttttttttttt  wwrrrrrrrrrrrrrr00      88eerrrrrrrrww$$;;55$$55rrrrrrrrrrrrrrqq  tttttttttttttttttttttttt",
"tttttttttttttttttttttttttttt  wwrrrrrrrrrrrrrr00      88eerrrrrrrrww$$;;55$$55rrrrrrrrrrrrrrqq  tttttttttttttttttttttttt",
"tttttttttttttttttttttttttttt  66rrrrrrrrrrrrrree  55$$44rrrrrrrrrr66    ;;88rrrrrrrrrrrrrrrr55  tttttttttttttttttttttttt",
"tttttttttttttttttttttttttttt  66rrrrrrrrrrrrrree  55$$44rrrrrrrrrr66    ;;88rrrrrrrrrrrrrrrr55  tttttttttttttttttttttttt",
"tttttttttttttttttttttttttttttt;;rrrrrrrrrrrrrrrr226688  1100rrrrqq$$$$ww3377rrrrrrrrrrrrrrrr11tttttttttttttttttttttttttt",
"tttttttttttttttttttttttttttttt;;rrrrrrrrrrrrrrrr226688  1100rrrrqq$$$$ww3377rrrrrrrrrrrrrrrr11tttttttttttttttttttttttttt",
"tttttttttttttttttttttttttttttt  00rrrrrrrrrrrrrr662288              66rr2266rrrrrrrrrrrrrree  tttttttttttttttttttttttttt",
"tttttttttttttttttttttttttttttt  00rrrrrrrrrrrrrr662288              66rr2266rrrrrrrrrrrrrree  tttttttttttttttttttttttttt",
"tttttttttttttttttttttttttttttttt22rrrrrrrrrrrrrr9922;;  <<--------oo$$qq4466rrrrrrrrrrrrrr88  tttttttttttttttttttttttttt",
"tttttttttttttttttttttttttttttttt22rrrrrrrrrrrrrr9922;;  <<--------oo$$qq4466rrrrrrrrrrrrrr88  tttttttttttttttttttttttttt",
"tttttttttttttttttttttttttttttttt  00rrrrrrrrrrrr00$$  XXtttttttttt%%  $$3366rrrrrrrrrrrrrr33++tttttttttttttttttttttttttt",
"tttttttttttttttttttttttttttttttt  00rrrrrrrrrrrr00$$  XXtttttttttt%%  $$3366rrrrrrrrrrrrrr33++tttttttttttttttttttttttttt",
"tttttttttttttttttttttttttttttttttt22rrrrrrrrrrrr00XX**  >>tttttttt<<oo    55rrrrrrrrrrrrrr  ,,tttttttttttttttttttttttttt",
"tttttttttttttttttttttttttttttttttt22rrrrrrrrrrrr00XX**  >>tttttttt<<oo    55rrrrrrrrrrrrrr  ,,tttttttttttttttttttttttttt",
"ttttttttttttttttttttttttttttttttttOO66rrrrrrrrrr88OOtttttttttttttttt%%@@##22rrrrrrrrrrrr99++tttttttttttttttttttttttttttt",
"ttttttttttttttttttttttttttttttttttOO66rrrrrrrrrr88OOtttttttttttttttt%%@@##22rrrrrrrrrrrr99++tttttttttttttttttttttttttttt",
"tttttttttttttttttttttttttttttttttt,,..qqwwrrrr88;;OOtttttttttttttttt--**>>  eerrrrrrrrrr44==tttttttttttttttttttttttttttt",
"tttttttttttttttttttttttttttttttttt,,..qqwwrrrr88;;OOtttttttttttttttt--**>>  eerrrrrrrrrr44==tttttttttttttttttttttttttttt",
"tttttttttttttttttttttttttttttttttttt--  44998866  OOtttttttttttttttttttt,,  66rrwweeqq77..<<tttttttttttttttttttttttttttt",
"tttttttttttttttttttttttttttttttttttt--  44998866  OOtttttttttttttttttttt,,  66rrwweeqq77..<<tttttttttttttttttttttttttttt",
"tttttttttttttttttttttttttttttttttttttt##$$;;6677  ..<<tttttttttttttttttt%%  $$66$$6622  --tttttttttttttttttttttttttttttt",
"tttttttttttttttttttttttttttttttttttttt##$$;;6677  ..<<tttttttttttttttttt%%  $$66$$6622  --tttttttttttttttttttttttttttttt",
"tttttttttttttttttttttttttttttttttttttt&&..      XX..**tttttttttttttttttt%%              --tttttttttttttttttttttttttttttt",
"tttttttttttttttttttttttttttttttttttttt&&..      XX..**tttttttttttttttttt%%              --tttttttttttttttttttttttttttttt",
"tttttttttttttttttttttttttttttttttttttttttt<<OOtttttttttttttttttttttttttt<<,,tt%%oo====++<<tttttttttttttttttttttttttttttt",
"tttttttttttttttttttttttttttttttttttttttttt<<OOtttttttttttttttttttttttttt<<,,tt%%oo====++<<tttttttttttttttttttttttttttttt",
"tttttttttttttttttttttttttttttttttttttttttttttttttttttttttttttttttttttttttttttttttttttttttttttttttttttttttttttttttttttttt",
"tttttttttttttttttttttttttttttttttttttttttttttttttttttttttttttttttttttttttttttttttttttttttttttttttttttttttttttttttttttttt",
"tttttttttttttttttttttttttttttttttttttttttttttttttttttttttttttttttttttttttttttttttttttttttttttttttttttttttttttttttttttttt",
"tttttttttttttttttttttttttttttttttttttttttttttttttttttttttttttttttttttttttttttttttttttttttttttttttttttttttttttttttttttttt",
"tttttttttttttttttttttttttttttttttttttttttttttttttttttttttttttttttttttttttttttttttttttttttttttttttttttttttttttttttttttttt",
"tttttttttttttttttttttttttttttttttttttttttttttttttttttttttttttttttttttttttttttttttttttttttttttttttttttttttttttttttttttttt",
"tttttttttttttttttttttttttttttttttttttttttttttttttttttttttttttttttttttttttttttttttttttttttttttttttttttttttttttttttttttttt",
"tttttttttttttttttttttttttttttttttttttttttttttttttttttttttttttttttttttttttttttttttttttttttttttttttttttttttttttttttttttttt",
"tttttttttttttttttttttttttttttttttttttttttttttttttttttttttttttttttttttttttttttttttttttttttttttttttttttttttttttttttttttttt",
"tttttttttttttttttttttttttttttttttttttttttttttttttttttttttttttttttttttttttttttttttttttttttttttttttttttttttttttttttttttttt",
"tttttttttttttttttttttttttttttttttttttttttttttttttttttttttttttttttttttttttttttttttttttttttttttttttttttttttttttttttttttttt"
};
