/* XPM */
static char *result[] = {
/* columns rows colors chars-per-pixel */
"120 120 41 1 ",
"  c black",
". c #010101",
"X c #020202",
"o c gray1",
"O c #040404",
"+ c #070707",
"@ c gray3",
"# c #0B0B0B",
"$ c gray6",
"% c #101010",
"& c gray7",
"* c gray8",
"= c #161616",
"- c gray10",
"; c #1D1D1D",
": c gray12",
"> c gray13",
", c #222222",
"< c #232323",
"1 c #252525",
"2 c gray15",
"3 c gray17",
"4 c #2F2F2F",
"5 c #3F3F3F",
"6 c gray31",
"7 c #505050",
"8 c gray33",
"9 c #5F5F5F",
"0 c #6F6F6F",
"q c gray50",
"w c gray52",
"e c gray56",
"r c gray57",
"t c #9F9F9F",
"y c #AFAFAF",
"u c gray75",
"i c gray81",
"p c #DFDFDF",
"a c #EFEFEF",
"s c white",
"d c None",
/* pixels */
"dddddddddddddddddddddddddddddddddddddddddddddddddddddddddddddddddddddddddddddddddddddddddddddddddddddddddddddddddddddddd",
"dddddddddddddddddddddddddddddddddddddddddddddddddddddddddddddddddddddddddddddddddddddddddddddddddddddddddddddddddddddddd",
"dddddddddddddddddddddddddddddddddddddddddddddddddddddddddddddddddddddddddddddddddddddddddddddddddddddddddddddddddddddddd",
"dddddddddddddddddddddddddddddddddddddddddddddddddddddddddddddddddddddddddddddddddddddddddddddddddddddddddddddddddddddddd",
"dddddddddddddddddddddddddddddddddddddddddddddddddddddddddddddddddddddddddddddddddddddddddddddddddddddddddddddddddddddddd",
"dddddddddddddddddddddddddddddddddddddddddddddddddddddddddddddddddddddddddddddddddddddddddddddddddddddddddddddddddddddddd",
"dddddddddddddddddddddddddddddddddddddddddddddddddddddddddddddddddddddddddddddddddddddddddddddddddddddddddddddddddddddddd",
"dddddddddddddddddddddddddddddddddddddddddddddddddddddddddddddddddddddddddddddddddddddddddddddddddddddddddddddddddddddddd",
"dddddddddddddddddddddddddddddddddddddddddddddddddddddddddddddddddddddddddddddddddddddddddddddddddddddddddddddddddddddddd",
"dddddddddddddddddddddddddddddddddddddddddddddddddddddddddddddddddddddddddddddddddddddddddddddddddddddddddddddddddddddddd",
"dddddddddddddddddddddddddddddddddddddddddddddddddddddddddddddddddddddddddddddddddddddddddddddddddddddddddddddddddddddddd",
"dddddddddddddddddddddddddddddddddddddddddddddddddddddddddddddddddddddddddddddddddddddddddddddddddddddddddddddddddddddddd",
"dddddddddddddddddddddddddddddddddddddddddddddddddddddddddddddddddddddddddddddddddddddddddddddddddddddddddddddddddddddddd",
"dddddddddddddddddddddddddddddddddddddddddddddddddddddddddddddddddddddddddddddddddddddddddddddddddddddddddddddddddddddddd",
"dddddddddddddddddddddddddddddddddddddddddddddddddddddddddddddddddddddddddddddddddddddddddddddddddddddddddddddddddddddddd",
"dddddddddddddddddddddddddddddddddddddddddddddddddddddddddddddddddddddddddddddddddddddddddddddddddddddddddddddddddddddddd",
"dddddddddddddddddddddddddddddddddddddddddddddddddddddddddddddddddddddddddddddddddddddddddddddddddddddddddddddddddddddddd",
"dddddddddddddddddddddddddddddddddddddddddddddddddddddddddddddddddddddddddddddddddddddddddddddddddddddddddddddddddddddddd",
"dddddddddddddddddddddddddddddddddddddddddddddddddddddddddddddddddddddddddddddddddddddddddddddddddddddddddddddddddddddddd",
"dddddddddddddddddddddddddddddddddddddddddddddddddddddddddddddddddddddddddddddddddddddddddddddddddddddddddddddddddddddddd",
"dddddddddddddddddddddddddddddddddddddddddddddddddddddddddddddddddddddddddddddddddddddddddddddddddddddddddddddddddddddddd",
"dddddddddddddddddddddddddddddddddddddddddddddddddddddddddddddddddddddddddddddddddddddddddddddddddddddddddddddddddddddddd",
"dddddddddddddddddddddddddddddddddddddddddddddddddddddddddddddddddddddddddddddddddddddddddddddddddddddddddddddddddddddddd",
"dddddddddddddddddddddddddddddddddddddddddddddddddddddddddddddddddddddddddddddddddddddddddddddddddddddddddddddddddddddddd",
"dddddddddddddddddddddddddddddddddddddddddddddddddddddddddddddddddddddddddddddddddddddddddddddddddddddddddddddddddddddddd",
"dddddddddddddddddddddddddddddddddddddddddddddddddddddddddddddd        dddddddddddddddddddddddddddddddddddddddddddddddddd",
"ddddddddddddddddddddddddddddddddddddddddddddddddddddddddd    :6qqqqqqqt0> dddddddddddddddddddddddddddddddddddddddddddddd",
"dddddddddddddddddddddddddddddddddddddddddddddddd       56qeuassssssssssssu9  ddddddddddddddddddddddddddddddddddddddddddd",
"ddddddddddddddddddddddddddddddddddddddddd      49qtusssssssssssssssssssssssaq$  dddddddddddddddddddddddddddddddddddddddd",
"ddddddddddddddddddddddddddddddddddd    459qtupsssssssssssssssssssssssssssssssaq$ ddddddddddddddddddddddddddddddddddddddd",
"dddddddddddddddddddddddddddddddddd $0ysssssssssssssssssssssssssssssssssssssssssa0 dddddddddddddddddddddddddddddddddddddd",
"dddddddddddddddddddddddddddddddd $qpsssssssssssssssssssssssssssssssssssssssssssssy5$  dddddddddddddddddddddddddddddddddd",
"dddddddddddddddddddddddddddddd  qassssssssssssssssssssssssssssssssssssssssssssssssssi9$ dddddddddddddddddddddddddddddddd",
"ddddddddddddddddddddddddddddd 5pssssssssssssssssssssssssssssssssssssssssssssssssssssssaq  dddddddddddddddddddddddddddddd",
"dddddddddddddddddddddddddddd 9ssssssssssssssssssssssssssssssssssssssssssssssssssssssssssp: ddddddddddddddddddddddddddddd",
"dddddddddddddddddddddddddd  essssssssssssssssssssssssssssssssssssssssssssssssssssssssssssa4 dddddddddddddddddddddddddddd",
"dddddddddddddddddddddddddd yssssssssssssssssssssssssssssssssssssssssssssssssssssssssssssssi$ ddddddddddddddddddddddddddd",
"dddddddddddddddddddddd  d yssssssssssssssssssssssssssssssssssssssssssssssssssssssssssssssssi  dddddddddddddddddddddddddd",
"ddddddddddddddddddddd<q$ tssssssssssssssssssssssssssssssssssssssssssssssssssssssssssssssssssq dddddddddddddddddddddddddd",
"ddddddddddddddddddddd6p$tssssssssssssssssssssssssssssssssssssssssssssssssssssssssssssssssst50ddddddddddddddddddddddddddd",
"dddddddddddddddddd   $4$sssssssssssssssssssssssssssssssssssssssssssssssssssssssssssssssssst  ddddddddddddddddddddddddddd",
"dddddddddddddddddd 9y$9usssssssssssssssssssssssssssssssssssssssssssssssssssssssssssssssssssddddddddddddddddddddddddddddd",
"dddddddddddddddddd 569sssssssssssssssssssssssssssssssssssssssssssssssssssssssssssssssssssspddddddddddddddddddddddddddddd",
"dddddddddddddddddd  4ssssssssssssssssssssssssssssssssssssssssssssssssssssssssssssssssssssss%dddddddddddddddddddddddddddd",
"dddddddddddddddddd $assssssssssssssssssssssssssssssssssssssssssssssssssssssssssssssssssssss6dddddddddddddddddddddddddddd",
"ddddddddddddddddd  yssssssssssssssssssssssssssssssssssssssssssssssssssssssssssssssssssssssse ddddddddddddddddddddddddddd",
"dddddddddddddddd  9ssssssssssssssssssssssssssssssssssssssssssssssssssssssssssssssssssssssssi ddddddddddddddddddddddddddd",
"dddddddddddddd   tssssssssssssssssssssssssssssssssssssssssssssssssssssssssssssssssssssssssss:ddddddddddddddddddddddddddd",
"dddddddddddddd  ysssssuissssssssssssssssssssssssssssssssssssssssssssssssssssssssssssssssssss9ddddddddddddddddddddddddddd",
"ddddddddddddd $yssssss   usssssssssssssssssssssssssssssssssssssssssssssssssssssssssssssssssse dddddddddddddddddddddddddd",
"dddddddddddd  ysssssss  $sssssssssssssssssssssssssssssssssssssssssssssssssssssssssssssssssssi dddddddddddddddddddddddddd",
"dddddddddddd :sssssssse5tssssssssssssssssssssssssssssssssssssssssssssssssssssssssssssssssssss dddddddddddddddddddddddddd",
"dddddddddddd 5sssssssssssssssssssssssssssssssssssssssssssssssssssssssssssssssss5sssssssssssst:dddddddddddddddddddddddddd",
"dddddddddddd $assssssssssssssssssussssssssssppsssssssssssssssssssssssssssssssss5ssssssssssssq  ddddddddddddddddddddddddd",
"ddddddddddddd qsssssssssssssssssa$sssssssssp$esssssssssssssssssssssssssssssssss5ssssssssssssy  ddddddddddddddddddddddddd",
"ddddddddddddd $pssssssssssssspeq6 sssssssss69ssssssssssssssssssssssssssssssssss$ssssssssssssp  ddddddddddddddddddddddddd",
"dddddddddddddd 5ssssssssssie4    $ssssssssq$yssssssssssauuyqqqqqusssssssssspeqi sssssssssssss  ddddddddddddddddddddddddd",
"dddddddddddddd  0uuuuuy05 dddddd 5sssssssu 4sssssssu05$         :$     40qq$ 9p sssssssssssss  ddddddddddddddddddddddddd",
"dddddddddddddddd        dddddddd 5sssssssq$sssssu9$         ddddddddddd $9euass5ssssssssssssi  ddddddddddddddddddddddddd",
"dddddddddddddddddddddddddddddddd 0sssssssq5sssss9    dddddddddddddddddd 0ssssss5asssssssssssy  ddddddddddddddddddddddddd",
"dddddddddddddddddddddddddddddddd qsssssss60ssssssss5 dddddddddddddddddd yssssss5usssssssssss5  ddddddddddddddddddddddddd",
"dddddddddddddddddddddddddddddddd qsssssss49ssssssss5 dddddddddddddddddd pssssss6ussssssssssq   ddddddddddddddddddddddddd",
"dddddddddddddddddddddddddddddddd 5sssssss 5ssssssssq ddddddddddddddddd  sssssssqtssssssssss:   ddddddddddddddddddddddddd",
"dddddddddddddddddddddddddddddddd  sssssss  ssssssssq ddddddddddddddddd 5sssssssqqsssssssssp   dddddddddddddddddddddddddd",
"dddddddddddddddddddddddddddddddd  issssss  assssssst ddddddddddddddddd 9sssssssy6ssssssssst   dddddddddddddddddddddddddd",
"dddddddddddddddddddddddddddddddd  tssssss  usssssssu ddddddddddddddddd qsssssssu:sssssssss6   dddddddddddddddddddddddddd",
"dddddddddddddddddddddddddddddddd  9ssssss  rissssssi ddddddddddddddddd tsssssssi issssssss   ddddddddddddddddddddddddddd",
"dddddddddddddddddddddddddddddddd   asssss5 d&issssss ddddddddddddddddd ussssssss4qsssssssi   ddddddddddddddddddddddddddd",
"dddddddddddddddddddddddddddddddddd tsssss0 %*$psssss dddddddddddddddd- ussssssssw:sssssss0  dddddddddddddddddddddddddddd",
"dddddddddddddddddddddddddddddddddd;:sssssu #d#9sssss dddddddddddddddd, tsssssss9O tsssssa$Xddddddddddddddddddddddddddddd",
"ddddddddddddddddddddddddddddddddddd+esssss6@d; yssss dddddddddddddddddO4assssst %@:asssse 2ddddddddddddddddddddddddddddd",
"ddddddddddddddddddddddddddddddddddd1&issssq%d3.$psss ddddddddddddddddd3O4psssp:#d% 0ssss5Odddddddddddddddddddddddddddddd",
"dddddddddddddddddddddddddddddddddddd;$esss6%dd# 9sss.dddddddddddddddddd3@:yq4  1d=  yssp =dddddddddddddddddddddddddddddd",
"ddddddddddddddddddddddddddddddddddddd;o:55 -dd1OOyss7dddddddddddddddddddd=    #dd,  $ia9 %dddddddddddddddddddddddddddddd",
"ddddddddddddddddddddddddddddddddddddddd-%%*dddd*%&is4;dddddddddddddddddddd,;;,ddddO  $8  -dddddddddddddddddddddddddddddd",
"dddddddddddddddddddddddddddddddddddddddddddddddd#O   1dddddddddddddddddddddddddddd;     oddddddddddddddddddddddddddddddd",
"dddddddddddddddddddddddddddddddddddddddddddddddd3#++=dddddddddddddddddddddddddddddd;@   ;ddddddddddddddddddddddddddddddd",
"ddddddddddddddddddddddddddddddddddddddddddddddddddddddddddddddddddddddddddddddddddddd,;1dddddddddddddddddddddddddddddddd",
"dddddddddddddddddddddddddddddddddddddddddddddddddddddddddddddddddddddddddddddddddddddddddddddddddddddddddddddddddddddddd",
"dddddddddddddddddddddddddddddddddddddddddddddddddddddddddddddddddddddddddddddddddddddddddddddddddddddddddddddddddddddddd",
"dddddddddddddddddddddddddddddddddddddddddddddddddddddddddddddddddddddddddddddddddddddddddddddddddddddddddddddddddddddddd",
"dddddddddddddddddddddddddddddddddddddddddddddddddddddddddddddddddddddddddddddddddddddddddddddddddddddddddddddddddddddddd",
"dddddddddddddddddddddddddddddddddddddddddddddddddddddddddddddddddddddddddddddddddddddddddddddddddddddddddddddddddddddddd",
"dddddddddddddddddddddddddddddddddddddddddddddddddddddddddddddddddddddddddddddddddddddddddddddddddddddddddddddddddddddddd",
"dddddddddddddddddddddddddddddddddddddddddddddddddddddddddddddddddddddddddddddddddddddddddddddddddddddddddddddddddddddddd",
"dddddddddddddddddddddddddddddddddddddddddddddddddddddddddddddddddddddddddddddddddddddddddddddddddddddddddddddddddddddddd",
"dddddddddddddddddddddddddddddddddddddddddddddddddddddddddddddddddddddddddddddddddddddddddddddddddddddddddddddddddddddddd",
"dddddddddddddddddddddddddddddddddddddddddddddddddddddddddddddddddddddddddddddddddddddddddddddddddddddddddddddddddddddddd",
"dddddddddddddddddddddddddddddddddddddddddddddddddddddddddddddddddddddddddddddddddddddddddddddddddddddddddddddddddddddddd",
"dddddddddddddddddddddddddddddddddddddddddddddddddddddddddddddddddddddddddddddddddddddddddddddddddddddddddddddddddddddddd",
"dddddddddddddddddddddddddddddddddddddddddddddddddddddddddddddddddddddddddddddddddddddddddddddddddddddddddddddddddddddddd",
"dddddddddddddddddddddddddddddddddddddddddddddddddddddddddddddddddddddddddddddddddddddddddddddddddddddddddddddddddddddddd",
"dddddddddddddddddddddddddddddddddddddddddddddddddddddddddddddddddddddddddddddddddddddddddddddddddddddddddddddddddddddddd",
"dddddddddddddddddddddddddddddddddddddddddddddddddddddddddddddddddddddddddddddddddddddddddddddddddddddddddddddddddddddddd",
"dddddddddddddddddddddddddddddddddddddddddddddddddddddddddddddddddddddddddddddddddddddddddddddddddddddddddddddddddddddddd",
"dddddddddddddddddddddddddddddddddddddddddddddddddddddddddddddddddddddddddddddddddddddddddddddddddddddddddddddddddddddddd",
"dddddddddddddddddddddddddddddddddddddddddddddddddddddddddddddddddddddddddddddddddddddddddddddddddddddddddddddddddddddddd",
"dddddddddddddddddddddddddddddddddddddddddddddddddddddddddddddddddddddddddddddddddddddddddddddddddddddddddddddddddddddddd",
"dddddddddddddddddddddddddddddddddddddddddddddddddddddddddddddddddddddddddddddddddddddddddddddddddddddddddddddddddddddddd",
"dddddddddddddddddddddddddddddddddddddddddddddddddddddddddddddddddddddddddddddddddddddddddddddddddddddddddddddddddddddddd",
"dddddddddddddddddddddddddddddddddddddddddddddddddddddddddddddddddddddddddddddddddddddddddddddddddddddddddddddddddddddddd",
"dddddddddddddddddddddddddddddddddddddddddddddddddddddddddddddddddddddddddddddddddddddddddddddddddddddddddddddddddddddddd",
"dddddddddddddddddddddddddddddddddddddddddddddddddddddddddddddddddddddddddddddddddddddddddddddddddddddddddddddddddddddddd",
"dddddddddddddddddddddddddddddddddddddddddddddddddddddddddddddddddddddddddddddddddddddddddddddddddddddddddddddddddddddddd",
"dddddddddddddddddddddddddddddddddddddddddddddddddddddddddddddddddddddddddddddddddddddddddddddddddddddddddddddddddddddddd",
"dddddddddddddddddddddddddddddddddddddddddddddddddddddddddddddddddddddddddddddddddddddddddddddddddddddddddddddddddddddddd",
"dddddddddddddddddddddddddddddddddddddddddddddddddddddddddddddddddddddddddddddddddddddddddddddddddddddddddddddddddddddddd",
"dddddddddddddddddddddddddddddddddddddddddddddddddddddddddddddddddddddddddddddddddddddddddddddddddddddddddddddddddddddddd",
"dddddddddddddddddddddddddddddddddddddddddddddddddddddddddddddddddddddddddddddddddddddddddddddddddddddddddddddddddddddddd",
"dddddddddddddddddddddddddddddddddddddddddddddddddddddddddddddddddddddddddddddddddddddddddddddddddddddddddddddddddddddddd",
"dddddddddddddddddddddddddddddddddddddddddddddddddddddddddddddddddddddddddddddddddddddddddddddddddddddddddddddddddddddddd",
"dddddddddddddddddddddddddddddddddddddddddddddddddddddddddddddddddddddddddddddddddddddddddddddddddddddddddddddddddddddddd",
"dddddddddddddddddddddddddddddddddddddddddddddddddddddddddddddddddddddddddddddddddddddddddddddddddddddddddddddddddddddddd",
"dddddddddddddddddddddddddddddddddddddddddddddddddddddddddddddddddddddddddddddddddddddddddddddddddddddddddddddddddddddddd",
"dddddddddddddddddddddddddddddddddddddddddddddddddddddddddddddddddddddddddddddddddddddddddddddddddddddddddddddddddddddddd",
"dddddddddddddddddddddddddddddddddddddddddddddddddddddddddddddddddddddddddddddddddddddddddddddddddddddddddddddddddddddddd",
"dddddddddddddddddddddddddddddddddddddddddddddddddddddddddddddddddddddddddddddddddddddddddddddddddddddddddddddddddddddddd",
"dddddddddddddddddddddddddddddddddddddddddddddddddddddddddddddddddddddddddddddddddddddddddddddddddddddddddddddddddddddddd",
"dddddddddddddddddddddddddddddddddddddddddddddddddddddddddddddddddddddddddddddddddddddddddddddddddddddddddddddddddddddddd",
"dddddddddddddddddddddddddddddddddddddddddddddddddddddddddddddddddddddddddddddddddddddddddddddddddddddddddddddddddddddddd"
};
