/* XPM */
static char *result[] = {
/* columns rows colors chars-per-pixel */
"120 120 42 1 ",
"  c black",
". c #010101",
"X c gray1",
"o c #040404",
"O c #070707",
"+ c gray3",
"@ c #090909",
"# c gray4",
"$ c #0B0B0B",
"% c gray5",
"& c gray6",
"* c #101010",
"= c gray7",
"- c #131313",
"; c gray8",
": c #161616",
"> c gray10",
", c #1D1D1D",
"< c gray12",
"1 c #222222",
"2 c #252525",
"3 c gray17",
"4 c #2F2F2F",
"5 c #323232",
"6 c #3F3F3F",
"7 c #444444",
"8 c gray31",
"9 c #5F5F5F",
"0 c #6D6D6D",
"q c #6F6F6F",
"w c gray50",
"e c gray56",
"r c #9F9F9F",
"t c #AFAFAF",
"y c #B6B6B6",
"u c gray74",
"i c gray75",
"p c gray81",
"a c #DFDFDF",
"s c #EFEFEF",
"d c white",
"f c None",
/* pixels */
"ffffffffffffffffffffffffffffffffffffffffffffffffffffffffffffffffffffffffffffffffffffffffffffffffffffffffffffffffffffffff",
"ffffffffffffffffffffffffffffffffffffffffffffffffffffffffffffffffffffffffffffffffffffffffffffffffffffffffffffffffffffffff",
"ffffffffffffffffffffffffffffffffffffffffffffffffffffffffffffffffffffffffffffffffffffffffffffffffffffffffffffffffffffffff",
"ffffffffffffffffffffffffffffffffffffffffffffffffffffffffffffffffffffffffffffffffffffffffffffffffffffffffffffffffffffffff",
"ffffffffffffffffffffffffffffffffffffffffffffffffffffffffffffffffffffffffffffffffffffffffffffffffffffffffffffffffffffffff",
"ffffffffffffffffffffffffffffffffffffffffffffffffffffffffffffffffffffffffffffffffffffffffffffffffffffffffffffffffffffffff",
"ffffffffffffffffffffffffffffffffffffffffffffffffffffffffffffffffffffffffffffffffffffffffffffffffffffffffffffffffffffffff",
"ffffffffffffffffffffffffffffffffffffffffffffffffffffffffffffffffffffffffffffffffffffffffffffffffffffffffffffffffffffffff",
"ffffffffffffffffffffffffffffffffffffffffffffffffffffffffffffffffffffffffffffffffffffffffffffffffffffffffffffffffffffffff",
"ffffffffffffffffffffffffffffffffffffffffffffffffffffffffffffffffffffffffffffffffffffffffffffffffffffffffffffffffffffffff",
"ffffffffffffffffffffffffffffffffffffffffffffffffffffffffffffffffffffffffffffffffffffffffffffffffffffffffffffffffffffffff",
"ffffffffffffffffffffffffffffffffffffffffffffffffffffffffffffffffffffffffffffffffffffffffffffffffffffffffffffffffffffffff",
"ffffffffffffffffffffffffffffffffffffffffffffffffffffffffffffffffffffffffffffffffffffffffffffffffffffffffffffffffffffffff",
"ffffffffffffffffffffffffffffffffffffffffffffffffffffffffffffffffffffffffffffffffffffffffffffffffffffffffffffffffffffffff",
"ffffffffffffffffffffffffffffffffffffffffffffffffffffffffffffffffffffffffffffffffffffffffffffffffffffffffffffffffffffffff",
"ffffffffffffffffffffffffffffffffffffffffffffffffffffffffffffffffffffffffffffffffffffffffffffffffffffffffffffffffffffffff",
"ffffffffffffffffffffffffffffffffffffffffffffffffffffffffffffffffffffffffffffffffffffffffffffffffffffffffffffffffffffffff",
"ffffffffffffffffffffffffffffffffffffffffffffffffffffffffffffffffffffffffffffffffffffffffffffffffffffffffffffffffffffffff",
"ffffffffffffffffffffffffffffffffffffffffffffffffffffffffffffffffffffffffffffffffffffffffffffffffffffffffffffffffffffffff",
"ffffffffffffffffffffffffffffffffffffffffffffffffffffffffffffffffffffffffffffffffffffffffffffffffffffffffffffffffffffffff",
"ffffffffffffffffffffffffffffffffffffffffffffffffffffffffffffffffffffffffffffffffffffffffffffffffffffffffffffffffffffffff",
"ffffffffffffffffffffffffffffffffffffffffffffffffffffffffffffffffffffffffffffffffffffffffffffffffffffffffffffffffffffffff",
"ffffffffffffffffffffffffffffffffffffffffffffffffffffffffffffffffffffffffffffffffffffffffffffffffffffffffffffffffffffffff",
"ffffffffffffffffffffffffffffffffffffffffffffffffffffffffffffffffffffffffffffffffffffffffffffffffffffffffffffffffffffffff",
"ffffffffffffffffffffffffffffffffffffffffffffffffffffffffffffffffffffffffffffffffffffffffffffffffffffffffffffffffffffffff",
"ffffffffffffffffffffffffffffffffffffffffffffffffffffffffffffffffffffffffffffffffffffffffffffffffffffffffffffffffffffffff",
"ffffffffffffffffffffffffffffffffffffffffffffffffffffffffffffffffffffffffffffffffffffffffffffffffffffffffffffffffffffffff",
"ffffffffffffffffffffffffffffffffffffffffffffff              49riiiiiiiiww8   fffffffffffffffffffffffffffffffffffffffffff",
"ffffffffffffffffffffffffffffffffffffffffff    6qriiddddddddddddddddddddddddae   ffffffffffffffffffffffffffffffffffffffff",
"fffffffffffffffffffffffffffffffffffffff    6rsdddddddddddddddddddddddddddddddsr8* ffffffffffffffffffffffffffffffffffffff",
"fffffffffffffffffffffffffffffffffffff   &qaddddddddddddddddddddddddddddddddddddddt9&  ffffffffffffffffffffffffffffffffff",
"fffffffffffffffffffffffffffffffffff   <rsddddddddddddddddddddddddddddddddddddddddddsr4  ffffffffffffffffffffffffffffffff",
"ffffffffffffffffffffffffffffffffff  <wadddddddddddddddddddddddddddddddddddddddddddddddr6  ffffffffffffffffffffffffffffff",
"ffffffffffffffffffffffffffffffff  6tddddddddddddddddddddddddddddddddddddddddddddddddddddw& fffffffffffffffffffffffffffff",
"ffffffffffffffffffffffffffffff  9idddddddddddddddddddddddddddddddddddddddddddddddddddddddw fffffffffffffffffffffffffffff",
"fffffffffffffffffffffffffffff 4pdddddddddddddddddddddddddddddddddddddddddddddddddddddddddd4 ffffffffffffffffffffffffffff",
"ffffffffffffffffffffff   fff wddddddddddddddddddddddddddddddddddddddddddddddddddddddddddddi  fffffffffffffffffffffffffff",
"fffffffffffffffffffff &t&  4pddddddddddddddddddddddddddddddddddddddddddddddddddddddddddddddq fffffffffffffffffffffffffff",
"fffffffffffffffffff   6s8 wddddddddddddddddddddddddddddddddddddddddddddddddddddddddddddddddd95ffffffffffffffffffffffffff",
"fffffffffffffffffff t <<4pdddddddddddddddddddddddddddddddddddddddddddddddddddddddddddddddddddfffffffffffffffffffffffffff",
"fffffffffffffffffff 6<&eddddddddddddddddddddddddddddddddddddddddddddddddddddddddddddddddddifffffffffffffffffffffffffffff",
"fffffffffffffffffff  6adddddddddddddddddddddddddddddddddddddddddddddddddddddddddddddddddddi ffffffffffffffffffffffffffff",
"fffffffffffffffffff edddddddddddddddddddddddddddddddddddddddddddddddddddddddddddddddddddddd ffffffffffffffffffffffffffff",
"fffffffffffffffff <iddddddddddddddddddddddddddddddddddddddddddddddddddddddddddddddddddddddd<ffffffffffffffffffffffffffff",
"ffffffffffffffff 6sdddddddddddddddddddddddddddddddddddddddddddddddddddddddddddddddddddddddd8ffffffffffffffffffffffffffff",
"fffffffffffffff qddddddddddddddddddddddddddddddddddddddddddddddddddddddddddddddddddddddddddw fffffffffffffffffffffffffff",
"ffffffffffffff wddddddaiiddddddddddddddddddddddddddddddddddddddddddddddddddddddddddddddddddt fffffffffffffffffffffffffff",
"fffffffffffff rddddddp& <dddddddddddddddddddddddddddddddddddddddddddddddddddddddddddddddddda fffffffffffffffffffffffffff",
"fffffffffff  9ddddddde  4ddddddddddddddddddddddddddddddddddddddddddddddddddddddddddddddddddd fffffffffffffffffffffffffff",
"fffffffffff &sdddddddp  rddddddddddddddddddddddddddddddddddddddddddddddddddddddddddddddddddd6fffffffffffffffffffffffffff",
"ffffffffffff6dddddddddweddddddddddddddddddddddddddddddddddddddddddddddddddddddddddddddddddddq ffffffffffffffffffffffffff",
"ffffffffffff4dddddddddddddddddddddddddddddddddddddddddddddddddddddddddddddddddddddddddddddddr ffffffffffffffffffffffffff",
"ffffffffffff pdddddddddddddddddddddddddddddddddddddddddddddddddddddddddddddddddddddddddddddda ffffffffffffffffffffffffff",
"fffffffffffff4adddddddddddddddddstdddddddddddddddddddddddddddddddddddddddddddiddddddddddddddd ffffffffffffffffffffffffff",
"ffffffffffffff*waddddddddddddddd99ddddddddds886&ddddddddddddddddddddddddddddd6pdddddddddddddd ffffffffffffffffffffffffff",
"ffffffffffffffff 466666666666666 rdddddddds4  &pddddddddddddddddddddddddddddd<9dddddddddddddd4 fffffffffffffffffffffffff",
"fffffffffffffffffff             &sddddddddw  &pddddds9wddddddpiwwwwtddddddddd &ddddddddddddds  fffffffffffffffffffffffff",
"ffffffffffffffffffffffffffffffff9dddddddis& &pdddddp< 8www64          666<     rddddddddddddi  fffffffffffffffffffffffff",
"fffffffffffffffffffffffffffffff rddddddd&<  tdddddd0      ffffffff       68we4 8dddddddddddde  fffffffffffffffffffffffff",
"fffffffffffffffffffffffffffffff addddddw&  qdddddddi  ffffffffffffffff<ddddddr  adddddddddddw ffffffffffffffffffffffffff",
"fffffffffffffffffffffffffffffff&ddddddds8   ydddddds  fffffffffffffff wddddddd< edddddddddddw ffffffffffffffffffffffffff",
"fffffffffffffffffffffffffffffff6dddddddd< ff<ddddddd< fffffffffffffff adddddddr <ddddddddddd6 ffffffffffffffffffffffffff",
"fffffffffffffffffffffffffffffff8dddddddt fff idddddd6 fffffffffffffff4dddddddda& pdddddddddd6 ffffffffffffffffffffffffff",
"fffffffffffffffffffffffffffffffwddddddd6 ffff8ddddddq  ffffffffffffff6ddddddddde qdddddddddd6 ffffffffffffffffffffffffff",
"fffffffffffffffffffffffffffffffwdddddds  ffff pdddddr  ffffffffffffff&ddddddddr  <dddddddddd< ffffffffffffffffffffffffff",
"fffffffffffffffffffffffffffffffwddddddr  ffff 6dddddi  ffffffffffffff sddddddt  f<dddddddddd  ffffffffffffffffffffffffff",
"fffffffffffffffffffffffffffffffwdddddd8 ffffff iddddd  ffffffffffffff rdddddd< ff rddddddddd  ffffffffffffffffffffffffff",
"fffffffffffffffffffffffffffffff8dddddd  ffffff <ddddd4 ffffffffffffff 9dddddp Xff-<ddddddddi  ffffffffffffffffffffffffff",
"fffffffffffffffffffffffffffffff&dddddi &ffffff@ edddd9 ffffffffffffffX&dddddq *fffXrdddddddi fffffffffffffffffffffffffff",
"fffffffffffffffffffffffffffffff tdddds 1ffffff2 &sddde ,fffffffffffff$ tddds& :fff:<dddddddi fffffffffffffffffffffffffff",
"fffffffffffffffffffffffffffffff#<ddddr 2fffffff$ 9dddp 2fffffffffffff1 6ddde  ,ffffXwdddddde fffffffffffffffffffffffffff",
"fffffffffffffffffffffffffffffff1 qdds +ffffffff2%.pddd2fffffffffffffff% eii< .fffff: pdddddw fffffffffffffffffffffffffff",
"ffffffffffffffffffffffffffffffffO rd8 ,ffffffffff*6ddr.ffffffffffffffff%    o1ffffff$<sddddw fffffffffffffffffffffffffff",
"ffffffffffffffffffffffffffffffff2.&8 %ffffffffffff+ud<*ffffffffffffffffffffffffffffffO4sdddw 1ffffffffffffffffffffffffff",
"fffffffffffffffffffffffffffffffff2,,,ffffffffffffff7e=3fffffffffffffffffffffffffffffff*4idde ;ffffffffffffffffffffffffff",
"fffffffffffffffffffffffffffffffffffffffffffffffffff>O;fffffffffffffffffffffffffffffffff1o8w9 $ffffffffffffffffffffffffff",
"fffffffffffffffffffffffffffffffffffffffffffffffffffffffffffffffffffffffffffffffffffffffff>+OO2ffffffffffffffffffffffffff",
"ffffffffffffffffffffffffffffffffffffffffffffffffffffffffffffffffffffffffffffffffffffffffffffffffffffffffffffffffffffffff",
"ffffffffffffffffffffffffffffffffffffffffffffffffffffffffffffffffffffffffffffffffffffffffffffffffffffffffffffffffffffffff",
"ffffffffffffffffffffffffffffffffffffffffffffffffffffffffffffffffffffffffffffffffffffffffffffffffffffffffffffffffffffffff",
"ffffffffffffffffffffffffffffffffffffffffffffffffffffffffffffffffffffffffffffffffffffffffffffffffffffffffffffffffffffffff",
"ffffffffffffffffffffffffffffffffffffffffffffffffffffffffffffffffffffffffffffffffffffffffffffffffffffffffffffffffffffffff",
"ffffffffffffffffffffffffffffffffffffffffffffffffffffffffffffffffffffffffffffffffffffffffffffffffffffffffffffffffffffffff",
"ffffffffffffffffffffffffffffffffffffffffffffffffffffffffffffffffffffffffffffffffffffffffffffffffffffffffffffffffffffffff",
"ffffffffffffffffffffffffffffffffffffffffffffffffffffffffffffffffffffffffffffffffffffffffffffffffffffffffffffffffffffffff",
"ffffffffffffffffffffffffffffffffffffffffffffffffffffffffffffffffffffffffffffffffffffffffffffffffffffffffffffffffffffffff",
"ffffffffffffffffffffffffffffffffffffffffffffffffffffffffffffffffffffffffffffffffffffffffffffffffffffffffffffffffffffffff",
"ffffffffffffffffffffffffffffffffffffffffffffffffffffffffffffffffffffffffffffffffffffffffffffffffffffffffffffffffffffffff",
"ffffffffffffffffffffffffffffffffffffffffffffffffffffffffffffffffffffffffffffffffffffffffffffffffffffffffffffffffffffffff",
"ffffffffffffffffffffffffffffffffffffffffffffffffffffffffffffffffffffffffffffffffffffffffffffffffffffffffffffffffffffffff",
"ffffffffffffffffffffffffffffffffffffffffffffffffffffffffffffffffffffffffffffffffffffffffffffffffffffffffffffffffffffffff",
"ffffffffffffffffffffffffffffffffffffffffffffffffffffffffffffffffffffffffffffffffffffffffffffffffffffffffffffffffffffffff",
"ffffffffffffffffffffffffffffffffffffffffffffffffffffffffffffffffffffffffffffffffffffffffffffffffffffffffffffffffffffffff",
"ffffffffffffffffffffffffffffffffffffffffffffffffffffffffffffffffffffffffffffffffffffffffffffffffffffffffffffffffffffffff",
"ffffffffffffffffffffffffffffffffffffffffffffffffffffffffffffffffffffffffffffffffffffffffffffffffffffffffffffffffffffffff",
"ffffffffffffffffffffffffffffffffffffffffffffffffffffffffffffffffffffffffffffffffffffffffffffffffffffffffffffffffffffffff",
"ffffffffffffffffffffffffffffffffffffffffffffffffffffffffffffffffffffffffffffffffffffffffffffffffffffffffffffffffffffffff",
"ffffffffffffffffffffffffffffffffffffffffffffffffffffffffffffffffffffffffffffffffffffffffffffffffffffffffffffffffffffffff",
"ffffffffffffffffffffffffffffffffffffffffffffffffffffffffffffffffffffffffffffffffffffffffffffffffffffffffffffffffffffffff",
"ffffffffffffffffffffffffffffffffffffffffffffffffffffffffffffffffffffffffffffffffffffffffffffffffffffffffffffffffffffffff",
"ffffffffffffffffffffffffffffffffffffffffffffffffffffffffffffffffffffffffffffffffffffffffffffffffffffffffffffffffffffffff",
"ffffffffffffffffffffffffffffffffffffffffffffffffffffffffffffffffffffffffffffffffffffffffffffffffffffffffffffffffffffffff",
"ffffffffffffffffffffffffffffffffffffffffffffffffffffffffffffffffffffffffffffffffffffffffffffffffffffffffffffffffffffffff",
"ffffffffffffffffffffffffffffffffffffffffffffffffffffffffffffffffffffffffffffffffffffffffffffffffffffffffffffffffffffffff",
"ffffffffffffffffffffffffffffffffffffffffffffffffffffffffffffffffffffffffffffffffffffffffffffffffffffffffffffffffffffffff",
"ffffffffffffffffffffffffffffffffffffffffffffffffffffffffffffffffffffffffffffffffffffffffffffffffffffffffffffffffffffffff",
"ffffffffffffffffffffffffffffffffffffffffffffffffffffffffffffffffffffffffffffffffffffffffffffffffffffffffffffffffffffffff",
"ffffffffffffffffffffffffffffffffffffffffffffffffffffffffffffffffffffffffffffffffffffffffffffffffffffffffffffffffffffffff",
"ffffffffffffffffffffffffffffffffffffffffffffffffffffffffffffffffffffffffffffffffffffffffffffffffffffffffffffffffffffffff",
"ffffffffffffffffffffffffffffffffffffffffffffffffffffffffffffffffffffffffffffffffffffffffffffffffffffffffffffffffffffffff",
"ffffffffffffffffffffffffffffffffffffffffffffffffffffffffffffffffffffffffffffffffffffffffffffffffffffffffffffffffffffffff",
"ffffffffffffffffffffffffffffffffffffffffffffffffffffffffffffffffffffffffffffffffffffffffffffffffffffffffffffffffffffffff",
"ffffffffffffffffffffffffffffffffffffffffffffffffffffffffffffffffffffffffffffffffffffffffffffffffffffffffffffffffffffffff",
"ffffffffffffffffffffffffffffffffffffffffffffffffffffffffffffffffffffffffffffffffffffffffffffffffffffffffffffffffffffffff",
"ffffffffffffffffffffffffffffffffffffffffffffffffffffffffffffffffffffffffffffffffffffffffffffffffffffffffffffffffffffffff",
"ffffffffffffffffffffffffffffffffffffffffffffffffffffffffffffffffffffffffffffffffffffffffffffffffffffffffffffffffffffffff",
"ffffffffffffffffffffffffffffffffffffffffffffffffffffffffffffffffffffffffffffffffffffffffffffffffffffffffffffffffffffffff",
"ffffffffffffffffffffffffffffffffffffffffffffffffffffffffffffffffffffffffffffffffffffffffffffffffffffffffffffffffffffffff",
"ffffffffffffffffffffffffffffffffffffffffffffffffffffffffffffffffffffffffffffffffffffffffffffffffffffffffffffffffffffffff",
"ffffffffffffffffffffffffffffffffffffffffffffffffffffffffffffffffffffffffffffffffffffffffffffffffffffffffffffffffffffffff"
};
