/* XPM */
static char *f9d254e583184302d4362acfa578bd4fqMiYDDLcMEKUVTDQ[] = {
/* columns rows colors chars-per-pixel */
"90 22 217 2 ",
"   c None",
".  c #000700",
"X  c #220000",
"o  c #393D33",
"O  c #2B352C",
"+  c #304432",
"@  c #454416",
"#  c #4E4A36",
"$  c #464939",
"%  c #444636",
"&  c #534E3A",
"*  c #5A4F3B",
"=  c #544935",
"-  c #48553B",
";  c #5B523B",
":  c #545C3D",
">  c #54553A",
",  c #68583D",
"<  c #5E6231",
"1  c #686C3B",
"2  c #6D723A",
"3  c #7C7B3D",
"4  c #75763A",
"5  c #69692E",
"6  c #4D5343",
"7  c #545441",
"8  c #555B45",
"9  c #5B5D45",
"0  c #5B5D4A",
"q  c #555947",
"w  c #6A5C41",
"e  c #665A41",
"r  c #5C6444",
"t  c #5C6248",
"y  c #5F6945",
"u  c #646A45",
"i  c #6D6E45",
"p  c #666648",
"a  c #646D49",
"s  c #6C6C4B",
"d  c #656646",
"f  c #7A6646",
"g  c #766848",
"h  c #6D734B",
"j  c #6C774A",
"k  c #727545",
"l  c #7E7B40",
"z  c #73754A",
"x  c #747A4C",
"c  c #7B7C4D",
"v  c #757B45",
"b  c #656857",
"n  c #6D7854",
"m  c #727455",
"M  c #7E7E51",
"N  c #737B59",
"B  c #747B66",
"V  c #797C70",
"C  c #827E3E",
"Z  c #827B35",
"A  c #846B4B",
"S  c #886C4B",
"D  c #96694C",
"F  c #837E41",
"G  c #8D724D",
"H  c #88784D",
"J  c #92734F",
"K  c #897956",
"L  c #967550",
"P  c #9A7651",
"I  c #9D7953",
"U  c #957E53",
"Y  c #A27D56",
"T  c #76823B",
"R  c #7B873D",
"E  c #7D854D",
"W  c #7D884C",
"Q  c #7E8351",
"!  c #7B8657",
"~  c #7A8368",
"^  c #858142",
"/  c #83834E",
"(  c #848453",
")  c #828B55",
"_  c #8B8B54",
"`  c #838C5C",
"'  c #8C8B5B",
"]  c #958A5D",
"[  c #89965C",
"{  c #92925D",
"}  c #958249",
"|  c #A78159",
" . c #868C69",
".. c #928660",
"X. c #928A60",
"o. c #8A9566",
"O. c #989766",
"+. c #8D9D7B",
"@. c #8A9977",
"#. c #909E7D",
"$. c #808179",
"%. c #A4996B",
"&. c #AE946C",
"*. c #9AAD74",
"=. c #92A17E",
"-. c #9AA774",
";. c #98AA70",
":. c #A4A06D",
">. c #ACAB75",
",. c #AEAF78",
"<. c #B6AA78",
"1. c #B7B37C",
"2. c #DE995F",
"3. c #DA9966",
"4. c #C2A172",
"5. c #D7A379",
"6. c #EBAC6E",
"7. c #CDD475",
"8. c #D7D979",
"9. c #C4CE7D",
"0. c #8C9D82",
"q. c #879884",
"w. c #95988A",
"e. c #8CA389",
"r. c #92A486",
"t. c #94AC93",
"y. c #99AE93",
"u. c #9DA291",
"i. c #8AB49C",
"p. c #91B79C",
"a. c #95B89E",
"s. c #9CB99E",
"d. c #8BA897",
"f. c #BEBB82",
"g. c #A3A694",
"h. c #A6A99E",
"j. c #A2A698",
"k. c #AABC98",
"l. c #B6B598",
"z. c #96B9A3",
"x. c #9BBBA4",
"c. c #9DBDAB",
"v. c #96B8A6",
"b. c #9BBEB1",
"n. c #AAADA4",
"m. c #AAADA5",
"M. c #A1BFAA",
"N. c #A9B8A3",
"B. c #B0B3A9",
"V. c #B6B5B1",
"C. c #BFBEBD",
"Z. c #BDBDBB",
"A. c #B5BCB7",
"S. c #B0B5B1",
"D. c #CAAE8B",
"F. c #C8B897",
"G. c #D1B582",
"H. c #EAB384",
"J. c #C5B9A1",
"K. c #C1BFBE",
"L. c #B9C987",
"P. c #AAC39B",
"I. c #B3C69C",
"U. c #B5C896",
"Y. c #9EC1B2",
"T. c #ADC5A5",
"R. c #A4C2AD",
"E. c #AAC5AC",
"W. c #A3C0A4",
"Q. c #B1C4A1",
"!. c #B5CBA6",
"~. c #A4C3B1",
"^. c #ACC5B3",
"/. c #B4CABA",
"(. c #B3C9BA",
"). c #C2CE89",
"_. c #C7D289",
"`. c #D6DB83",
"'. c #D8DD85",
"]. c #CAD694",
"[. c #C6D397",
"{. c #C0CD97",
"}. c #F9D58A",
"|. c #F3DF95",
" X c #EDCD8D",
".X c #FFEC99",
"XX c #C3CAB7",
"oX c #BFBEC1",
"OX c #C0BFC1",
"+X c #BFD0C7",
"@X c #C2C2C2",
"#X c #CBCACC",
"$X c #C2D2C9",
"%X c #CBD4C9",
"&X c #D5D6CD",
"*X c #D6D8CF",
"=X c #D8DAC9",
"-X c #CCD8D1",
";X c #D5DAD1",
":X c #D9DBD1",
">X c #D8DCDA",
",X c #D6DED9",
"<X c #DDE1CD",
"1X c #DDE1DC",
"2X c #D3E1DC",
"3X c #E0E2DD",
"4X c #D7E2E0",
"5X c #E3E6E3",
"6X c #E7E9E5",
"7X c #E9EBE3",
"8X c #E6E9E9",
"9X c #ECECEC",
"0X c #EFEFF0",
"qX c #F0EFF0",
"wX c #F2F2F3",
"eX c #FEFFFF",
"rX c #EFF0EA",
/* pixels */
"                                                                                                                                  Y D J P G w ; f P                                 ",
"                                                        6                                       6                           J Y Y 2 , A L S & # # G P                               ",
"                                            0 0 0 q q h ' z d _ % d _ Q o z _ x o M _ a $ c % % ( h 6 9 q q           L L Y f ; A A ; ; w L G ; & # f                         t q 6 ",
"                                  b V V b m.#XC.K.+XO./ _ r z _ : x _ / : c _ c - / _ i r / : r _ i z _ O x } G S J P Y Y J w & , S G f * , A A & # A I                   0 d M ' ' ",
"                            $.j.w.m.#XOX@XC.oXC.K.C.g._ z d W k r E ( j u Q / z r ( c r x h r j ( i c ( r c _ c O E G , G P P g = ; A L f , ; w e % A P                 9 ( ' %.K X.",
"                  8 t 8 N T h.#XOXXXZ.V.n.OXZ.Z.Z.OXA.X.u h ( a h ( _ y n _ ( i x ( h j Q u n ( c r E i y / / d a _ c + E H = A A , A L J J A f e w G                 9 ( ) ( :.4.4.",
"              t y Q Q ! ) R g.OXA.Z.Z.C.n.h.OXoXK.V.o.C 4 l ^ k l ^ ^ 2 3 ^ 3 2 4 T 2 3 F 2 3 ^ 3 v _ a Q ) ( a j ) H r ( E $ c z , L J P I P I f S                 8 m K c z K X.] ",
"            o.[ ) H X 0 ` T g.@XZ.Z.C.Z.@Xn.m.^.A.t.#.0.q.+.#.+.0.0.#.+.#.q.0.+.+.0.q.=.+.q.0.=.r. .Z k F C F 2 4 C 4 1 F v j / t z : H U ;                       9 0 z c O.>.&.G   ",
"    ~ B o.*.;.;.` E b m W T j.@XZ.Z.Z.Z.Z.OX0.T._.E.~.!.[.R.R.^.[.!.~.~.!.].E.R.~.[.!.~.E.[.!.Y.R.M.t.t.y.y.t.t.y.y.t.t.y.( E / j u y x : 1 _ h q 8 8 8 9 q q q p 0 7 m M O.:.      ",
"  n j n i ;.*.*.o.Q ) ) ) T u.@XZ.Z.Z.Z.Z.K.w.I.7.T.c.L.8.M.M.x.7.{.c.z.I.8.W.R.z.9._.R.M.7.L.c.x.U.`.E.R.~.R.`.I.Y.!.8.T.x.z.k.N.z.k.o.n  .o.^ ^ ( t ' 9 ( i z m > 7 i H ' ' ) (   ",
"N ~ ! ! N o.-.*.[ W ) ) W E B.XXZ.Z.Z.Z.OXV.0.~.(.x.~.XX).R.p./.R.p./.+XW.z.z.p.(.$Xc.a.z.$X(.c.R.Q.).s.z.x.W._.I.z.P.8.P.R.b._.7.c.].8.Y.!.I.+.=.c 5 3 < / x c g 7 p ( z O.).      ",
"              $.[ W ! W E S.oXZ.Z.Z.Z.C.V.e.-X6X$Xp.5X-Xi.^.>X8X(.-X9X9Xp.$X2X;X6X9X^.,X,XwX;Xp.R.z.$X2X2X/.z.b.x.-X-XU.W.x.p.=X<Xz.T.I.z.L.8.Y.~.d.t.t.e._ 2 i s 7 p c O.1.H       ",
" .l.{.J.J.l.k.>XB. .v g.Z.K.Z.Z.Z.Z.Z.OXu.%XwX9X6X5X0X6X5X8XqX8X5X0X9X9X3X9XqXqX9X8X6XwXqX8X7X5X5X5X9XqXwX%X^.6X5X0X5Xc.2X7X5X9X8XE.c.~.^.^.!.R.z.].].Y.E.k.z.z.m 7 p M ' ,.o.      ",
"  @.l.k.F.F.l.Q.>X%X:.B.oXA.Z.Z.Z.Z.Z.h.&XwXqX9X0XqXrX0XqXqX0XqX0X0X0X0XwX0X0X0X9XwXwX9X9X9X9XqX9X9X9X9X9X0XrX9X9X9X9X9XqXqX9X9X9XwX;X8XwX0XqX8X~.L.L.c.R.8.[.c.m & s m X.f.Q       ",
"      ~ r.#.#.@.g.m.I.:X&X*X&X&X*X:X&X%X9X5X7X3X1X1X1X1X>X3X7X7X7X7X7X7X5X7X7X7X7X7X5XrXwXwXwXwXwXwXwXwXwXwXwXwXwXwX0XwXwXwXwXwXqX5X9X7X7X7X7X7X5X1X2Xa.x.P.k.M.m & p ( x O.G.      ",
"                                              F.5.5.5.5. X|.                          *X:X:X*X*X*X:X*X*X*X:X*X;X*X;X*X:X:X:X:X:X:X              :X:X7XeXeX0XeXB.@ q e M H o.O.Q (   ",
"                                                D.3.2.3.6.}.                                                                                          :X&XeXeXw.@ 0 8 s K c Q k     ",
"                                                  D.3.3.3..X|.                                                                                            =Xl.. 0 7 q s Q ( ( 1.G.L.",
"                                                  F.5.3.3.}.                                                                                                U %.s e $ s Q M ( %.O.:.",
"                                                    F.H.6..X|.                                                                                                  <...K 7 z ( k g D D ",
"                                                      D.   X                                                                                                        <...X.x >.,.,.,.",
"                                                                                                                                                                          &.<.<.<.<."
};
