/* XPM */
static char *result[] = {
/* columns rows colors chars-per-pixel */
"90 22 217 2 ",
"   c #000700",
".  c #220000",
"X  c #393D33",
"o  c #2B352C",
"O  c #304432",
"+  c #454416",
"@  c #4E4A36",
"#  c #464939",
"$  c #444636",
"%  c #534E3A",
"&  c #5A4F3B",
"*  c #544935",
"=  c #48553B",
"-  c #5B523B",
";  c #545C3D",
":  c #54553A",
">  c #68583D",
",  c #5E6231",
"<  c #686C3B",
"1  c #6D723A",
"2  c #7C7B3D",
"3  c #75763A",
"4  c #69692E",
"5  c #4D5343",
"6  c #545441",
"7  c #555B45",
"8  c #5B5D45",
"9  c #5B5D4A",
"0  c #555947",
"q  c #6A5C41",
"w  c #665A41",
"e  c #5C6444",
"r  c #5C6248",
"t  c #5F6945",
"y  c #646A45",
"u  c #6D6E45",
"i  c #666648",
"p  c #646D49",
"a  c #6C6C4B",
"s  c #656646",
"d  c #7A6646",
"f  c #766848",
"g  c #6D734B",
"h  c #6E7B4E",
"j  c #6A7244",
"k  c #727545",
"l  c #7E7B40",
"z  c #73754A",
"x  c #747A4C",
"c  c #7B7C4D",
"v  c #757B45",
"b  c #656857",
"n  c #6D7854",
"m  c #727455",
"M  c #7E7E51",
"N  c #737B59",
"B  c #747B66",
"V  c #797C70",
"C  c #827E3E",
"Z  c #827B35",
"A  c #846B4B",
"S  c #886C4B",
"D  c #96694C",
"F  c #837E41",
"G  c #8D724D",
"H  c #88784D",
"J  c #92734F",
"K  c #897956",
"L  c #967550",
"P  c #9A7651",
"I  c #9D7953",
"U  c #957E53",
"Y  c #A27D56",
"T  c #76823B",
"R  c #7B873D",
"E  c #7D854D",
"W  c #7D884C",
"Q  c #7E8351",
"!  c #7B8657",
"~  c #7A8368",
"^  c #858142",
"/  c #83834E",
"(  c #848453",
")  c #828B55",
"_  c #8B8B54",
"`  c #838C5C",
"'  c #8C8B5B",
"]  c #958A5D",
"[  c #89965C",
"{  c #92925D",
"}  c #958249",
"|  c #A78159",
" . c #868C69",
".. c #928660",
"X. c #928A60",
"o. c #8A9566",
"O. c #989766",
"+. c #8D9D7B",
"@. c #8A9977",
"#. c #909E7D",
"$. c #808179",
"%. c #A4996B",
"&. c #AE946C",
"*. c #9AAD74",
"=. c #92A17E",
"-. c #9AA774",
";. c #98AA70",
":. c #A4A06D",
">. c #ACAB75",
",. c #AEAF78",
"<. c #B6AA78",
"1. c #B7B37C",
"2. c #DE995F",
"3. c #DA9966",
"4. c #C2A172",
"5. c #D7A379",
"6. c #EBAC6E",
"7. c #CDD475",
"8. c #D7D979",
"9. c #C4CE7D",
"0. c #8C9D82",
"q. c #879884",
"w. c #95988A",
"e. c #8CA389",
"r. c #92A486",
"t. c #94AC93",
"y. c #99AE93",
"u. c #9DA291",
"i. c #8AB49C",
"p. c #91B79C",
"a. c #95B89E",
"s. c #9CB99E",
"d. c #8BA897",
"f. c #BEBB82",
"g. c #A3A694",
"h. c #A6A99E",
"j. c #A2A698",
"k. c #AABC98",
"l. c #B6B598",
"z. c #96B9A3",
"x. c #9BBBA4",
"c. c #9DBDAB",
"v. c #96B8A6",
"b. c #9BBEB1",
"n. c #AAADA4",
"m. c #AAADA5",
"M. c #A1BFAA",
"N. c #A9B8A3",
"B. c #B0B3A9",
"V. c #B6B5B1",
"C. c #BDBDBC",
"Z. c #B5BCB7",
"A. c #B0B5B1",
"S. c #CAAE8B",
"D. c #C8B897",
"F. c #D1B582",
"G. c #EAB384",
"H. c #C5B9A1",
"J. c #C1BFBE",
"K. c #B9C987",
"L. c #AAC39B",
"P. c #B3C69C",
"I. c #B5C896",
"U. c #9EC1B2",
"Y. c #ADC5A5",
"T. c #A4C2AD",
"R. c #AAC5AC",
"E. c #A3C0A4",
"W. c #B1C4A1",
"Q. c #B5CBA6",
"!. c #A4C3B1",
"~. c #ACC5B3",
"^. c #B4CABA",
"/. c #B3C9BA",
"(. c #C2CE89",
"). c #C7D289",
"_. c #D6DB83",
"`. c #D8DD85",
"'. c #CAD694",
"]. c #C6D397",
"[. c #C0CD97",
"{. c #F9D58A",
"}. c #F3DF95",
"|. c #EDCD8D",
" X c #FFEC99",
".X c #C3CAB7",
"XX c #BFBEC1",
"oX c #C0BFC1",
"OX c #BFD0C7",
"+X c #C2C2C2",
"@X c #CBCACC",
"#X c #C2D2C9",
"$X c #CBD4C9",
"%X c #D5D6CD",
"&X c #D6D8CF",
"*X c #D8DAC9",
"=X c #CCD8D1",
"-X c #D5DAD1",
";X c #D9DBD1",
":X c #D8DCDA",
">X c #D6DED9",
",X c #DDE1CD",
"<X c #DDE1DC",
"1X c #D3E1DC",
"2X c #E0E2DD",
"3X c #D7E2E0",
"4X c #E3E6E3",
"5X c #E7E9E5",
"6X c #E9EBE3",
"7X c #E6E9E9",
"8X c #ECECEC",
"9X c #EFEFF0",
"0X c #F0EFF0",
"qX c #F2F2F3",
"wX c #FEFFFF",
"eX c #EFF0EA",
"rX c None",
/* pixels */
"rXrXrXrXrXrXrXrXrXrXrXrXrXrXrXrXI d 6 w G P J J I rXrXrXrXrXrXrXrXrXrXrXrXrXrXrXrXrXrXrXrXrXrXrXrXrXrXrXrXrXrXrXrXrXrXrXrXrXrXrXrXrXrXrXrXrXrXrXrXrXrXrXrXrXrXrXrXrXrXrXrXrXrXrXrXrX",
"rXrXrXrXrXrXrXrXrXrXrXrXrXrXrXP A @ * & S L A > d I I J rXrXrXrXrXrXrXrXrXrXrXrXrX6 rXrXrXrXrXrXrXrXrXrXrXrXrXrXrXrXrXrXrX5 rXrXrXrXrXrXrXrXrXrXrXrXrXrXrXrXrXrXrXrXrXrXrXrXrXrXrXrX",
"7 7 r rXrXrXrXrXrXrXrXrXrXrXrXd @ * - J L q - - A A - d Y J J rXrXrXrXrX7 7 8 5 g ( # $ M $ u _ c X z ' z X M _ s $ _ s z ' g 0 9 9 9 9 rXrXrXrXrXrXrXrXrXrXrXrXrXrXrXrXrXrXrXrXrXrX",
"] ' x s r rXrXrXrXrXrXrXrXrXI A @ % A d w & d G S - & q J Y | P J S J U z o _ z u _ e ; Q e u _ / ; c _ c ; ( _ z ; _ x e _ / O.C..XJ.oXm.b V V b rXrXrXrXrXrXrXrXrXrXrXrXrXrXrXrXrX",
"..M :.' ( r rXrXrXrXrXrXrXrXI A $ q q & > A J A - * > I P H > J E o c _ c e ( c y ( h e g h e c ( e v ) / y z / Q e k Q t x _ g.C.C.J.C.+X+X+X+XA.w.j.K rXrXrXrXrXrXrXrXrXrXrXrXrXrX",
"4.<.%.( ( ( 9 rXrXrXrXrXrXrXrXS w w d A J J P A < d A * H c O c / p y ( / y u / e E Q g e M h g Q x p Q ) n t ( Q g g / g t o.Z.OXC.C.C.+Xn.V.C.XXXX@Xh.E B 7 r 9 rXrXrXrXrXrXrXrXrX",
"] X.U f x ( m 0 rXrXrXrXrXrXrXrXA d Y I P P J J > c H = E ( e M ( x p Q _ M p _ v 2 ^ 2 1 F l 1 2 3 < l ^ 2 1 F ^ C k F l 3 C X.V.J.C.+Xn.n.XXC.C.V.oXg.W ) ! Q Q t e rXrXrXrXrXrXrX",
"rXS &.>.O.M z w 9 rXrXrXrXrXrXrXrXrXrXrX& U H ; z e ( g v ^ < 3 C 3 3 l l C 3 2  .r.=.0.q.=.=.+.0.=.+.#.0.#.+.=.r.q.+.=.#.q.0.#.t.Z.Z.n.n.C.C.C.C.C.+Xg.T ! 9 . H ! [ o.rXrXrXrXrXrX",
"rXrXrX%.O.M f 6 9 a 7 7 7 7 7 7 0 0 g _ y ; x y y j / E E y.y.y.y.y.t.y.y.y.t.t.x.~.U.Q.'.T.U.Q.].!.T.R.'.Q.!.!.P.'.!.T.!.'.Q.!.E.).L.q.OXC.C.C.C.C.+Xg.T ` m b E ) ;.;.*.o.B ~ rXrX",
"rX( ( ' ` K z 0 6 a z k ( 8 { 8 _ ^ ^  . .n [ E.s.M.k.a.x.Y._.Q.U.Q._.R.T.T.R.`.P.c.U.K.7.M.c.).(.x.T.E.8.P.z.x.Q.7.x.T.c.8.K.v.R.8.P.u.C.C.C.C.C.J.oXu.T ) Q ) E o.*.*.o.j ! j n rX",
"rXrXrX(.O.z ( i 6 a M z / ; C 4 c =.#.P.Y.U.8.).b.7.).U.c.Y.8.L.z.P.).E.x.z.s.(.P.c.M./.#Xs.x.x.OX/.p.z.z.c.#X^.p.T.^.p.E.I..XR.x./.~.0.V.XXC.C.C.C.C.m.W W ) Q Q [ *.*.@.! ! ! ~ N ",
"rXrXrXH 1.O.c i 6 a u u _ t.e.t.d.!.E.8.).v.P.Y.z.,X*Xp.E.N.I.$X=Xp.U.z.^.1X>XOXz.E.p.=XqX>X>X~.8X6X-X1X#Xp.7X8X,X/.7X>X/.i.=X6Xp.#X7X=X0.V.XXC.C.C.C.OXB.W W ) W o. .rXrXrXrXrXrXrX",
"rXrXrX{ ,.' M i % m s.x.k.T.U.'.'.x.E.~.R.~.!.x.T.7X9X4X7X:Xc.4X9X4X7X~.#XqXeX8X4X4X4X7X8X0XqX7X7X8XqXqX8X4X7X8X0X4X8XqX5X4X6XeX4X7X8XqX@Xu.J.C.C.J.C.C.J.C.u.z  .B.:Xl.l.D.D.H.l. .",
"rXrXrXM 1.O.c i % m U.K.8.M.c.K.K.T.7XqX0XqX7X>XqX8X8X8XeX8X8X8X8X9XeXeX8X8X8X8X9X8XeX8X8X8X8X8X8X8X8X8X9X0X8X0X0XqX8X9X9X9X9X8X0XeX8XeXqX$Xh.C.C.V.C.C.C.oXB.:.$X;XW.l.H.H.l.L.@.rX",
"rXrXrXF.O.x ( i % N U.k.I.x.a.1X<X2X6X6X6X7X7X6X6X0XqXqXqXqXqXqXqXqXqXqXqXqXqXqXqXqXqXqXqXqX8X6X6X6X6X6X6X6X6X6X6X6X7X6X2X:X<X<X2X2X2X6X7XeX$X%X&X-X%X%X;X&X,XP.m.g.@.=.+.r.~ rXrXrX",
"rXQ ! O.X.M M s 0 + B.wX9XwXwX6X2X;XrXrXrXrXrXrXrX;X-X-X;X;X;X;X&X-X-X&X;X-X;X;X;X-X&X-X-X;X;XrXrXrXrXrXrXrXrXrXrXrXrXrX}.|.5.5.5.5.D.rXrXrXrXrXrXrXrXrXrXrXrXrXrXrXrXrXrXrXrXrXrXrX",
"rXrXu H M K p 6 9 + w.wXwX%X;XrXrXrXrXrXrXrXrXrXrXrXrXrXrXrXrXrXrXrXrXrXrXrXrXrXrXrXrXrXrXrXrXrXrXrXrXrXrXrXrXrXrXrXrXrX{.6.3.2.6.S.rXrXrXrXrXrXrXrXrXrXrXrXrXrXrXrXrXrXrXrXrXrXrXrX",
"K.f.f.( M Q a 7 6 9   B.*XrXrXrXrXrXrXrXrXrXrXrXrXrXrXrXrXrXrXrXrXrXrXrXrXrXrXrXrXrXrXrXrXrXrXrXrXrXrXrXrXrXrXrXrXrXrX}.{.3.3.3.S.rXrXrXrXrXrXrXrXrXrXrXrXrXrXrXrXrXrXrXrXrXrXrXrXrX",
"%.%.%.( Q K a # w m %.} rXrXrXrXrXrXrXrXrXrXrXrXrXrXrXrXrXrXrXrXrXrXrXrXrXrXrXrXrXrXrXrXrXrXrXrXrXrXrXrXrXrXrXrXrXrXrXrX{.3.3.G.D.rXrXrXrXrXrXrXrXrXrXrXrXrXrXrXrXrXrXrXrXrXrXrXrXrX",
"D D 3 f ( a 6 ' X.&.rXrXrXrXrXrXrXrXrXrXrXrXrXrXrXrXrXrXrXrXrXrXrXrXrXrXrXrXrXrXrXrXrXrXrXrXrXrXrXrXrXrXrXrXrXrXrXrXrX}. X3.G.D.rXrXrXrXrXrXrXrXrXrXrXrXrXrXrXrXrXrXrXrXrXrXrXrXrXrX",
",.,.,.>.g X...<.rXrXrXrXrXrXrXrXrXrXrXrXrXrXrXrXrXrXrXrXrXrXrXrXrXrXrXrXrXrXrXrXrXrXrXrXrXrXrXrXrXrXrXrXrXrXrXrXrXrXrXrX8.rXS.rXrXrXrXrXrXrXrXrXrXrXrXrXrXrXrXrXrXrXrXrXrXrXrXrXrXrX",
"<.<.<.<.%.rXrXrXrXrXrXrXrXrXrXrXrXrXrXrXrXrXrXrXrXrXrXrXrXrXrXrXrXrXrXrXrXrXrXrXrXrXrXrXrXrXrXrXrXrXrXrXrXrXrXrXrXrXrXrXrXrXrXrXrXrXrXrXrXrXrXrXrXrXrXrXrXrXrXrXrXrXrXrXrXrXrXrXrXrX"
};
