/* XPM */
static char *_b21fc42258e4669b763c1b0c09e9bc9rUPxz9GLROkbWX6x[] = {
/* columns rows colors chars-per-pixel */
"118 29 49 1 ",
"  c None",
". c #333428",
"X c #3E3829",
"o c #534C37",
"O c #5C513A",
"+ c #585742",
"@ c #575C45",
"# c #645941",
"$ c #5C6342",
"% c #6E6E4B",
"& c #6C684C",
"* c #7A6746",
"= c #786C4D",
"- c #687447",
"; c #767D45",
": c #717A4D",
"> c #72755F",
", c #747D62",
"< c #88744A",
"1 c #967450",
"2 c #B0785C",
"3 c #7F8952",
"4 c #7C8469",
"5 c #808052",
"6 c #858550",
"7 c #8F897A",
"8 c #8B957A",
"9 c #979D7F",
"0 c #AA8262",
"q c #A08D69",
"w c #A9996D",
"e c #97A96F",
"r c #DB9B67",
"t c #CA9A75",
"y c #D0A779",
"u c #EBBB77",
"i c #A1B08B",
"p c #BFB29B",
"a c #A1BFA9",
"s c #BDBDBC",
"d c #CCBA96",
"f c #BDCB9D",
"g c #CDC88D",
"h c #D2D781",
"j c #F1DA91",
"k c #D3D6CA",
"l c LightGray",
"z c #ECECEC",
"x c white",
/* pixels */
"                     11###1111111                                                                                     ",
"                    11#ooo#111**1111                                                                                  ",
"                    1#ooo#11**OO*1**11               @@@@@@@@@@@@@@@@@@@@@@@@@@@@@                                    ",
"@@@@               1#ooo#11*OOO*1*OO*1111      @@@@@@66...6..666..666..666..66.666@@@@@@@@                            ",
"5555@@             1#oo#1**OO**1*OOO*11111111116..66.66$$$6$$666$$666$$666$$66$$6669ssssss@@@@@                       ",
"qq5555@            1#oo#*OOO*11*OOO*1111116..666$$66$66:$$6:$$66$$666:$666:$;6:$6669sssssssssss@@@@                   ",
"555g555@           1#o#*OO**11*OOO*1116..66$$666:$66$$6::$$::$66:$;66:$$66:$$6:$$69ssssssssssssssss@@@                ",
"yyy55555@           1#o#**11111***1..66$$66:$$66:$$6:$66::$6::$6;:$666:$666:$6;:$69ssssssss8sssssss333@@@@            ",
"55555555%@           1#111111111.66$$66$$66::$666:$66:666::66::6;::666;:6666:666:669ssssss8ssssssss3333333@@@         ",
"  005555%+@                111.6$$6:$;6:$66;;:6666:66:6666:666:66;:6666:6666:666:6669ssss8sssssssss333>XX<333,        ",
" ===gg55%++@@           @@@.66$$:$66:666:6666:6666:66aaaaaaaaaaaaaaaaaaaaaaaaaaaaaaaaaaa8ssssssssss333>XX<33ee,,      ",
"    5555%+++&@@@@@@@@@@@666$$;:$::66:6aaaaaaaaaaaaaaaaaaahhaaahhaaaahhaaaahhaaaahhaaahha8ssssssssss3333>>33eeeee,,,,  ",
" 5555555%+++&6.66.66.666666:$;aaaaaaaaahhaaahhaaaaahhaaaahhaaahhaaaahhaaaahhaaaahhaaahha8ssssssssss33333333eeee-----, ",
"    gg555%++&6$6:$66$6666aaaahhaahhaaaahhaaahhaaaaahhaaaaaaaaaaaaaaaaaaaaaaaaaaahhaaaaaa8ssssssssss33333333eeee------,",
"   555555%++&6$66:$6:$aaahhaahhaahhaaaahhaaaaaaaaaaaaaaaazzaaaazzaaaaaazzaaazaaaaazaaazaa8ssssssssss3333333e,,,,,,,,, ",
"     gg55%++&:$66aaaaaaaahhaaaaaazzaaaaaazzaaaaazzzzaaaaazzzzzazzzzzzaazzzzazzzaaazzaazzza8ssssssssss3333337          ",
"    55555%++&aaaaaaahhaaaaaaaaaaazzzzzzaazzzzzaazzzzzzzzzzzzzzzzzzzzzzzzzzzzzzzzzzzzzzzzzz8ssssssssssss3377lliipppppi4",
"     gg55%++&aahhaaahhaazzzzzzazzzzzzzzzzzzzzzzzzzzzzzzzzzzzzzzzzzzzzzzzzzzzzzzzzzzzzzzzzzz8sssssssssss77fllippppiii4 ",
"   555555%++&aahhaaaaaazzzzzzzzzzzzzzzzzzzzzzzzzzzzzzzzzzzzzzzzzzzzzzzzzzzzzzzzzzzzzzzzzzzzz8ssssssssssfflliiiiii444  ",
"    gg555%++&aaaaaaaxzzkkkkkkkkkkzzzzzzzzzzzzzzzzzzzzzzzzzzzzkkkkkkkkkkkkkkkkkkkkkkkkkkkkkkkkkkkkkkkkkkk444444444     ",
" 55555555%+++&xxxxxxkkk          kkkkkkkkkkkkkkkkkkkkkkkkkkkk                  jurrrrrtd                              ",
"   55555%++++&xxxkkk                                                           jurrrrtd                               ",
"55555555%+++++&xk                                                             jurrrrtd                                ",
"gggg5555%++++++w                                                              jurrrtd                                 ",
"55555555%++++ww                                                               jurrrtd                                 ",
"2225555%+++ww                                                                 jurrtd                                  ",
"5555555%+ww                                                                   jurtd                                   ",
"ggggg5%ww                                                                                                             ",
"wwwwwww                                                                                                               "
};
