/* XPM */
static char *_96dba4424e646a0eef5465ffc92dc52c2R7mjDaynrLKJ4H[] = {
/* columns rows colors chars-per-pixel */
"120 120 31 1 ",
"  c #CDCDCD",
". c #CECECE",
"X c gray81",
"o c #D0D0D0",
"O c gray82",
"+ c #D2D2D2",
"@ c LightGray",
"# c gray83",
"$ c #D5D5D5",
"% c gray84",
"& c #D7D7D7",
"* c #D8D8D8",
"= c gray85",
"- c #DADADA",
"; c gray86",
": c gainsboro",
"> c #DDDDDD",
", c gray87",
"< c #DFDFDF",
"1 c gray88",
"2 c #E1E1E1",
"3 c #E2E2E2",
"4 c gray89",
"5 c #E4E4E4",
"6 c gray90",
"7 c #E6E6E6",
"8 c #E7E7E7",
"9 c gray91",
"0 c #E9E9E9",
"q c #EAEAEA",
"w c gray92",
/* pixels */
":::;;%%%;%%;+%%;;;%%%%%;:3::;%%%%%+;:83::;%;;;;%%%;;:3:3:3::%%%%;%%+.%;%;;;;%%;;;;::::;;%;+%%%%;;%;;;%;%%%:::;+++++%;;;;",
":;;;%%%;%;;%%%;;;;;+%+%;:3:;;%%;%%%%:33:;;%;;;%%%;;::::3:::;%%%;%;%%.+%%;;;;;;%;;:::::;;%;;+%%%;;;;;;;%%%;;;;;%%++%;;%;%",
";;%%+++;;::;%%%;;;;;+%%%:3:;;;:::;;;:::;%%%%%%%%%;:::3333:;%++%%;;;+++;;%;%%%%%;;:::;;;;;::%%%%%%;;::%%%%;%%%%%+%;;;;;%;",
"%%%++.+%::::;+%;;;;%;%%;3::;;:::::%;;;;%%%;;;%++%;:883383:%%%+%;;;;%%%%;;;;%%+%;::::%;::33:;%%%%%;:3:%+%%%%%+%+;;:;3;;;;",
"+%%+++;;3:::%%%%;;%;%%%%;:;;;;::;;;%%%%%+%%;%%+%%;:8383::;%%%+%;;::;+%%;;;;%%%%;;;;%;%::3::3;;%%+%;3:%++%%++%%;::33:;;%;",
"%+%%%;::;:;%%++%%;%%%+%%;;;%%;;;;;%%+++%;%%%%%%%%;:3333:;%;%;;;;;;;%%%%;;;;;%%%;;;;;+;:88:::;;%%++:3:+++++++%;:8888:;%;;",
"+%%;:33:;;;%%%%+%%%%%+%;%;%;;:;;%%%%++%%%%%%%%%%%;:333:;%;;;;;;;;;;%%%%;;;:;;%%;;;;%;::83::3:3%+++;::+.+%++;::38833:;%%%",
"++;:808:;%%%;;%;%%;%%%%%%;;::3::%%%%;;%;%%%%%;%%;%;::3:;;;3:;;%;;;%++%;;;::3;%%%;%%%;:::33388:%..%;:;+++%;;:33888:;;;%+%",
"+%;30w0:%+%%;;;;;%%;%;;;%;::33:;%%+%;;;;%+%%%;%%%;;::;;;%:3::%%%%%%+++;;::::;%%%%;%;::::33800:+..+;:;++++;:38883::;%;%+.",
"++;38003;%+%%;;;%%+%%%%%;%;;:3:%%+%;;;;%%%%%%;%;%%;;:%;;::33;;%;%%+++%%;3::;%%%;::;;333::883:;+++%%;%+.+%%;:333:;;%%%%++",
"++%;:88:;%%+%%%;;++%;%%;%%;;;;;%+%%%;;;%%%%%%%%%%%%;:;%;;:::;%%%%%%%%%;;::;%%%%;:3::3::3:83:%%%+%%%;%%%+%%;;3:;;;%%;%+++",
"+%%%;:3:;%%+%+%;%+%+%%%%;%%%%%%%%%;;%;%%%%;%;%%;%%;;;%;%;;::%+%+++++%%;;::;%%;;33:333:3:33:;+%;;%%;%%+++%%%;;;;;;%;%%%%+",
"%+%+%;;;:%+++%%%%%%%%%++%%%%%%%%;;:3;;%%+%%;;%%%%%;;%%%%;;;%+..+++%%;::::::;::3:3333:3::;:;%%;::;%;++%++++%%;%;;;%%%%%%%",
"%%+++%%;;%+++++%%%;%%%%;;;;;%%%;3:8:;%%++;%;;;%;%%%;%%+;;;%+...++++%%:::::;;::333::::;;;%%%%%;33:;%%%+++%%;;+%;;;%%;%%%%",
"%%+%+;;;%%%+++%%;::;%;::::;;;;:::333;%;%%%;%%%;;%%;;%+%;;;;+..+%;;;;;;::;;;;;:3::;:;;;%+++++;:3:;%%++++++%;;;%;;;;%%%%%%",
"%%%%%;;;%%%+++%;:33:;:33333:3:::33::;;;;;%+++%;:;%;;;+%;:;%+++%;:::::;;;;;;;;:;:;;;%+++.+.++%;:3;%%%++++%;;;;;;;;;;%%%+%",
"%%%%%%;%%+%+%%;;:3::;:3833::::;:33::::;%;%%+%;:3:::;%%%;;;%%++;:33:3;;;;;;;;;%%%;%%%+....++;;;::;%;%+++%%;;;;;;:::;%%%%%",
"%+%++%++%++%+%;::3:%%:333:::;%%;;:::33;%+%%%%38883:;%;;;;;;%;;::333:;;;;;;;;%%%++%%+++++%%%%;;;:;;;;%%+%;;;;;;::3:;;;%%%",
"%%++++++++%%%;;3::;;%;33::;%%++%;;:33:;%%%;%;38888:;%%%;%%;%;;33338:;%;%;;;;%..+%%;++.+%%%;;;;;:;:::;++;;;;;%%;::3:;%%%;",
"+%%%%++.++%%%;:::;%%%;83:;%%+.%;:3:3::;;;;;;;:3333:;;%;%;;;;;;;;3333;;%;%%%;+++%:::;+.+%;;;%;;::33::%%+;;;%%%%;:::::;%%%",
"+++%+++++%%%;:::;%%%;:83:;%+..+:83::;%;;;::;;;;333;%;%%;;;:;;;;;:38:;%%%%%%;%.+%:33;+++%;;;;;;:338:;%%%;;%%+%+;;::::;%%%",
"%%%+++++%%%;;::;;%%;:383:;%+++;3883:;;;:::;;;;;:333:;%%;:3::%%;:33::%%;%%;%;%%%;:::;+++%%%;%;:3833:;;%;;;;+%+%%;;:::;;%%",
"%%%+++++%%;;;%;;;%;;:883:;%+%;:8083:;%::;;%%%;;338:;%%+;:::3;%:333:;%%;;;;;;;;%;;;;%%++++%%%;:838:;%;:::;%%%%%%%;;;:;;;%",
"%++++++;;;;%;;;;;;:::333:;%+%:38883:;;::;%%%;;::333;%%%;:33:;;:833:%%%;;;;;;;%;%%%%%+%%+%%;%::3833;%;:3:;%%%%;%%%%;;:;%%",
"++++++%%:;;%%;;;::::::3:;%%%%:3883:::;;%%%+%:;:33:;;%%%;:333;:38::%%%%%;::;%%%%;%;;%%%%%%;%;:3883::;:83::;%%;%%+%%%;;;%%",
"+%.++%;;:;;%;%;::3::;;::;;%%;;:333:::;%+++%;::::::%%%%;;;:::::3::%+%%%;;:;;;;%%%%;:;;%;;;%;;3388::;::33:;%;%;%++++%%%;%%",
"%+++++%;%;%;%;;::;:;%;::;%%+%;:3:3:::%++++;:3::;;;%%%%%%%%%;;;::;++%%%%%;;;%;%%;::::;;::;%;33833::;:333;%%+%;%++++%%;%%%",
"+++.++%%%%;%%%;:;;%;;:::;;%%%%;:3333;%+..%;::::;;;%%%;%%+%%%;;;;%+%%;;;%%%;;;%%;:::::3:3;%;:883::::::3:;%%%%%%++++%%%%++",
"+++++%%%;%;;%%;::;;;%;::;;%.%;:3333:;%+++%::3:::;;;%%%%%+++%;;%%%%%%;%%%%%;::;;;;;;;::33:;:8883::;;;::;;%++%%%++++%%%%%%",
"+.++%%%%;%%%%;::::;:::3:;%+++;:338:;%++%%%;:::;::3:;;%%%+%+;;;;%;::;%%%%%;;:::;;%;;::::::;:383:;;;;:::;%%%%+%%%+++++%;%%",
"+++%%%;;;%;;::3333::::3:;%+.%;:83:;%%+%%;;;:3:::3::;%%%+%%%%::;%:::%+%+%;;;;;;;;%;%%;;:33;:333;%%%;%;%;%%%+%%%%+++%%%;;;",
"%+%%%;;%%;;:3:3::::333:;%+.+%;3::;%%;;;:%;%;3::::;;;%+%;%%%;:::;:::%%%;;;:;;;%%%%%%%;;:::::38:;;%%+%%;;%+%;%;%%+++%%;%;;",
"%%%%%;;%;::383333::3:3:;%+++%::;;%+%;;;;;+%;::;;;;%%%%%%;%%;;33::::;%;;::::;%%%%%%%%;;;;;;:33:%%%%++%%;;%;::;%+++%;%%;;;",
";;%+%%%;%:3833333:333:;%++++;;;;%%%%;;;;;%%;3:;;;%%++++%%%%%::3333:;;:3:::;%;%%%+%%%;;;%;;:3:3;%%+++%;;:::::;%%+%;;%%%%;",
"%+%%%%%%;:38333:::3:3:%%+++%%%;%%%%;;%;;%%;::;%%%%+++%+%+%%;::333:::::33;%%;%;%%%%%;;;%;;;:::::;%%%+%;3:3:::;%%+%:3;%%%%",
";%%%%;%;:38883:;:::::;%...+%;%%%%%%%%;;;;;;::;+%++++%+++++%;:3:33:::333:%%%;;;;%+%;;;;;%;::33:;;%%%%%;:333:;;%%%;::%%++%",
"%%%;%%;;::8383:%%;;:;%++.++%%%%%;%%%%%;:3::;;%+++++%+%++%%%;3333:::33:;;+%%;;%%++%;;;;%%;;;::;%%%+%%;:3:::::;%%;;;;%++%%",
";;;%;;;;:33383:%;;:;%++++.+%%%%%%%+%%%;3:3:;++++.+%%%++%%%%;333::::33;;%%+%;;%;%%;;;;%;;;;;::;%%%%%;:::;;;::;;;%%%%++%%%",
":::;;%%%;::::;%%::3;+%+%.+%%;%;%%%%%%;;:::;%+++++++%%%%%%%%;:3:::333::%+%%%%%%;%;;;%%%%;;;;;;%%%%%;;:3;;%;::::;;%%+++%%;",
"33::;%%;%;;:%%;;:33%+%%%+%%;;;%%%++;;:::;;%+.+++.+%%;;;%+%;;:33:333:;;%%%%%%%%%%%;;;%%%;;;;%+++%;%;;:::;;%;;::;;;++%+%;;",
"::;;%%%%%;;%;%%%::;%++%%%%;;::;%%%;;:::;;%%%++++++%%;;%%+%;:33::338:;%%%%%%%%+%;:::;%%%;;;%%+%%;%;;::3;;%%;;:::;%++++%;;",
"::;;%%%+%%%%;;;%;%%%%%+%%;;;::;;%%%;::;;%;%++++%+%%%%;%++%;33338883:%;%%%%%%++%;333:;;;;;%%%%%;;%;;:::;;;%%;::;%++++%;;;",
";%%%%%%%+%%%;;%%%+%+%%%;:::::::%%;;;::;%%%;%+%%%%%%;%%%++%:33383833;%%;%%+%+%+%;333:;%%;;%%%;%;;;;;;:;;%%%;:::;+++++%%;;",
";%%%%%%%+%;;%%;%%%%%+%;;:33::3:;%;:::;;%%%;;;;%%%;%;%%+%;;33333383:;%%;;;%%%+%;3333:%%%%%%%;;;%%%%;%;%;;;;:::;%+++%%%;;%",
"%+%%%%%%+%;;%%%%%%;%%;;:8333:::%%;:3::;%;%;:;;%%;;%;%%%;::3::33383:%+%;:%%%+%;;:33:;%%%%%%;;;;+%%%%;;;;;;;::;%%+%+%;%;;%",
"++++%;;%;%;%%+;%;;;%%;:3333:3:;;;;:33:%%%;;::;;;;;;%%%;;3:::333:::;%+;;:;%%;;;;;::;;;%+++%%%%%%+%%;;;;;;;::::;;%+%+%;;;;",
"+++%%;;;%;%%+%;;;;;%;:38883::;;;;:3:3::%%%;;;;:;;;%%;;:3::%;383:;;;%%;::;%;;::;;;;;;;;++.%%%%%+%;;;::::;;;:;:;%%%+%%;;::",
"+++%%;;;;;%+%;%;;;;;%::33833:;:::::3::;++;;:::;;;;%%;::::;;;:3:;;;;%%%;;%;;;::;%%%%;%%+.++%%%+%;%;::::;;%;;;;;%%%%+%%;::",
"++%%::3:%;%%%%%%;;;;;;3338:::3::::333:%%+;;::;;;%%%;;::;%;::3::;;;;;%%%%;;:3:::%+%;;%%+.+++%%%;:;;;;;;%%%;;;;%;%%++++%%%",
".+%;:3::%%%%;%%%%;;::;::33:3::3:::333:;+%%;::;%;%;%;:::;%;::::%%;::;;+%%;:333:;++%%;%++++%%%;%;;;;:;;%%+%%;;%%%%%%%+++%%",
"++%;3:3:;;%;%;%%;;:333:3333;;::::333::%%%%;;;;%%%%%;;::%%;;::::;:3:;%%%;:883::%+%%;;%++++%;;;;;%;;;;;%%;;;%%%%+%+++++%%;",
"%%%;::::;;;;;%%%;:338:3:::;;;:::3:3::;%;%;%%+%%%%%%;;::;;;;:;::::3:%%%%:8083:%%%%%%%%%++%%;3:;%;%;;;;%;:;;;%%+%%%%%+%%;:",
"%;;;;:::;;::;;%%;33333;;:;;%;%;:::3;;%%%%+%%%%;;;%;;;;;;;:::;;:::3;;%%::888::%+%%%%%.++%%%::3:;%;;;;;;:::;%%%%%%%%%%;;;;",
"%;;;:33;;;;:;:;;;8888:;%%;%;%;;33:;%;%%%++++%;;;;;;;;;;%;;::;:::;;;%;;::33::%%+%%;++++%;;;:::;%%::3:3:::;;%%;;;:;;;;;::;",
";;;;:3:;;;3::3;%:3883;%%%%%%;;;::;%+;%%%++++%;::;;;:;;;;;;::;::;;;;;+;:3:3;%%+%%%+++..+;:::::;%;:::::3::%%%;;::::;;:::;%",
"%%;;:::;;:383::%::::;;++%;;%%;;::;%;%%;%%%+%;;33;;;;;;;;;;:::;;;%;%%%%;;::;;;%%+%+++++;:::::;;;%;::3:3::;;%;;::3:;;:::;;",
"%%;;;;;;;3883:;%%;:;;+.+%%%;%;;::;;;%%%;%%%%;;3:;;;;;:;;;;:::;;;%%%%%%%;%;;;;%%%%+++++;;;;;;;;;;;;::::;;%;;%;;::;;;%;;;;",
"%%;;;;%;;383:;%%%%;;;%.+%%;;;;;::::;;;;%;%%;::3::;;;;%;%%;;;;;;;;%%%%;;;;;;;;;%++++.+%%%;;;;;%%%%;;;:;;;%%%%;;::;%;;;;;%",
";;;;;%;;;333;%+.+;;:;%..+;::;;;:33::;%;;;%%%::33::;%%%%%+%%;;:;;;%+%;%;%%;;;;%+%+..++%;%;%%;;%++%;%;:;;%%%%%%%;%;;%;;;%;",
"%;%;;;::::::%++.+;;::%++%%:3:;;;::::;;;%%%%;;;::3:;%%%%%;;::::::%%%;;;%;;%;;;;;+++.++;%%%;%;;%++;;;;;;;%;%;;;;%;%%;;;;;;",
";::;;::::;;%+%+.;:33;%++%::3:::;;:;;%%;%;%%%;;;;:::;%+%%::33833:;%+%;;;%%%;::3:;+.++;:3;%%%%;%;;;;:::;;%;;::;;;%;%;:;;%%",
"::;;::3:3;++%+++;33:;;+%:::3:::;;:::;%;++;;;;%%;:3;;;+%;:388083:%+%%;;;%%%;;:33%%++;:33:;;%+%%;::3::::;;;::::;;%;;::;;;%",
"3::::33:;%+%+;%%;:3;;%;;::3::;;%;:33;%++%%;%%%%;:3::%%%;338888;%%++;;;%;%%%;;;;;+%%:3833:;;:::::::3::::;;;::::;;;333::;;",
"::3333:;%%+%%%%;;::;;;::3333;;;;:883;++%%;;;%%;;33:;;%%;:3003:;+.+%;:;;%%;%;;;;%%%;:888::::::3::33:3::::;::3::;;:38333:;",
":3333::;%%+%%;%;;;:;;::33:::;;%::883;++%%;;%;%;:::;;%+%;;308:;%++%:::;%%%%%;;%;%;;;:8333:::3:::::3::::;;;:::3:::3883:3::",
":::3:;%%%%%;%;;%%;:;::8333;;%%;:33::%++%;;;;;;:;;;%++++%;803;+++%:::;%+++%%%%;;;;;:3:3:::33::;;;:::3;;%;:::::::33333::::",
";;38:%%%%%;;;;;%%;:::333::;%%;;:33:%+++%%;;;;;;;%%+%++%%:333%+++;3::;+++%%%%;::::33:::::3:3;;%%;;;::;%%;::::::33:8::;;;;",
";;:3:;%;;;;:::;;;;;:33:::;%%%::::;;%%++%%;;:;;;%+++++%;:338:%++;;:3%%+%+%%%;;:3333::::3:33:;%%%;;;;%%%%;:;3333:::::;;%;%",
"::3::;;;;::::;;;;%::33:;;%+%%;::%%%%%+++%;;;;%%%+.+%%%::3333%+%;::;%++%+%;;:::333:;;;:3883:%%%;;;%%%%+%;:::3333:;;%%%%%%",
":::33;;;3:::;%;;;;::::;%%%%+%;;;;++++%+++%%%%%%++++%%%;::33:;%%;:;%+..+;;;;;338333;;;3333::;%%;%%%%;%%%%::33:3:;;%;%%%%%",
":3333:;:::;%%+;;:::3:;;;%%+%%%%+%++%%+%%%%%%+%++%%+++%;;:333;;%;%;%+.+%;:33:33833:;;:3383;;;;;;%%%%;%%%;:3:::;;;;%%%+%%%",
":33:33::;;;%%%%;::::;;%%%+%+%++%+%+++%+%%%%%++%%;%%+%%;;::3:;%%%++++.++;:33::::::;;;:3::::;;;;;%%%%%%%%;:::;:;;%;%%%%%;;",
":3:8333:;%;%%%;%;;;;;;%%+%++%%+%%%%%%+++%%%%%;;;;%%+%;:3:::;%%%+++++%%%;:33:;;%%%;%%%;;;:::3:;%%+%%%%%%%;%%%%;;;%+%+%;;:",
":::3833:;%;;;;;;;;;;%%++++++++%%;%%%++%+%%;%;::3;%%%;::33;;+++++++++%%;;33::;;%%%%%;%;%%::3::;%+%+%%%%+%%%+%%%;:;++%%::3",
";::33833:;;%%%;;;%;;%%%%%+%%%%%%;%;%%%+%%;;;;:33:%%%;:3::;+.+++++++;;;:3:33:;;;%%%::;;;;33::;%+%%;%%++%%;%%%;;::;;%%;;::",
";::33383::;;%%;;;;;%%;%%%+%%%%;;;%%%%+%%%;;;;383:;;;;33:;++.+++;%+%;3:::::3::;;%%;:::;3:333;%%+%%;%%%%%;;%%%;;3:;%%;;::;",
";;:3833::;;%%;%;;%%;%;;;+++;;;%;;;;;%;%%%;;;:383::;%;;;%++..+%%%%%;::3::3:;::;;%%::3;;;:33:;++%%;%%%%+%%%%;;;:33:;;%;%;;",
";;:383::%%+%%%;;%++%;;;%%++%%;;;;;%%%%%%%%%;:33::;;;;%%%+++.+%;:%;::33:;::;;;;%%%:3:;;;;;:3%%%%%%%%++++%%;%;;;;::;%%%%;%",
";::3:3;%+%%;;::;%++%;;:;%++%%;;;:;;%;%%%%;;::3::;;;;%%...++%%:::;;;::3;::;;;%%;;;:::%%%%;;;%%%;%%%+%%+%%%;;;;;:;;;%%%%%%",
";::3::;++%;:::::;++%;;3:;%%%%%%;;;%%;;;%;::::3:;;;;%%...++;;::::;::::::::;;%;;::::;;%%%;%%%%+%%;;%%%%%%%%:::33:;;;%%+%%%",
";;;;;%%++%::3::;%++%%:::;;%%+%;;;%%;%;;;:3:3::;;;;;%+...+%;::33:::;;;33:;;%%;:33:;;%+%%%%++++%;;;;%+%%%%;;:88::;%%%;%%%;",
";%;%;;%%%;::33;;%++%;:::;+%+%%%;;;%%;;:::33::;;%%%%%++.+%;;33333:%%;::33;;%%;:::3;;%%%%++++%%;;;::;%;%%%%::33:;%%;;%%%;:",
"%%%;;;;%%+;;:3;+++%;;::%+++.%%;;;;%%;::333::;;%%%+%+%++%;;:333::;%%;:333;%%;;;;:;;%;;%%..++%;::3::;%%%;;;:33::;%;;;%%:;:",
";%%%%;;%+%%;::;+%;;;;;;%+..++%;;:%%;;:3::33:%%%%+%+%++%%%;:33:3:;%%;3383;%%;;%;::;;%%%+++.+%::::3:;%%%%%;:::;;%%;%%;%;;;",
"%%;;:;%+.%;;::;+%:3::;%++..+%:::;%%%::3:33:;%%%+%%%%%%%%;;::;:::;;;;::3:%%%%%%%;:;;++%++.++;:::;:::;%++%;;;;;;;%%;%%;;%;",
";;;;%;%++%:::;%%;::;;%++...+%:3:;%;;:3:33::%%%+%%%%%%;;;%;::;;::::::;;:::;%;%+%::;%+%.++%+%;:;%;::3;%+.%%;;;;;;%%%%%%%;%",
":::;%+%%%;333;%%;;;;%++....%;:::;;%;883:;;%%+++++%+%%;:::::3;;:::;;;;;3:;%;;%%;383;%+++%%%%%%%+;883;%++%;;;;%%;;%%+%%;::",
"33;%%++;:333:;%%+%%%++.++++%;:33;%;;883:;%%+.++%%%%%;;3:3:::;:383;%%%;:::;;;;;;383:;+++;;%%%+++;8w3:%.+%;;;;%;%;%+++%;33",
"3:;++%%:33:3;%%++++%+++++%%%::3:;;%:388;;%%++++++%%%::33:::;%;:3:;%%%:33:::;;:3883;;+++;;%;+%%%;808;%++;:3;;%%%;%++%;:33",
"3:%+%%:3833;;;%++%%%%%++%%%;:33:%;;;33:;;%%%+%.+.%;::83::;;%%;::;%+;::333:;;:33083;%%%%%;%%%%%;:88:;%%%;3::;;%%%%++%;:33",
";;++%;:83::;%%%++%%%;%%%;;;:::::;;;:3:3:;%%%++.++%::333:;%%%%;;:;%%;:::3::;;:3333:;%%%%%%%%%;;::83:;%%%;::;%%%%%%;%;::33",
";%%%;:338:;;%%%+%;%;;;;::3:3:;;;%;;::3:3;;;+++++%%:883::%%%%;::3;%;:3:;;;::3383:;;%;;%%%%%;;;;::::;;%;;;:;;%++%;:::333::",
";;%;;:833:;%%%%%;;:;;%;:338::;%%%;;:3:3:::;++++%%;383:;;%%%;:33:;%%:3:%%%;;:33;;+%%;;;%%%%%%%;;;;;;%%;%;;%%%+%%:::3:3::;",
";;::;:3:3:;%;;;;;;;;;;%:83833;%;;::33:33:;%%+%%;%;383;;%;;%::3::;%;;:;++;::83:;%++%;;;;+%%%;;;;%%;%%%%;;;;%%%%;:33:33:;;",
";:::;;;:3:;;;;:::;;;;%;:3883:;%;;::333:3:%%%%%%;;:333%%;::::3:::;%%;;;%%%:38:;++%%;;;;%%++%;;;%%;%%;;%;;::;;;;:::::33:%%",
"3::;;%;::;;::::::;;%%%;:3888:;%%;:::333::;%;%%;;::3:;%;:33:::33:;++%%%+%;::3:%++%%;;;;%+++%;;;%;%;%%%%;::::;;:::;;;:3:%;",
":3:%%%%:3:;::33:;%%%%%;:00033;%%;;;:333;;;%;%%%%;;;;;%;:3:;;:3:3;%+;;%%%%;;:;+.++%;;%%++%%%;;%+%;;%%++%:83::;;%;;%%;;%;%",
"3:;;%%;;3:::3:::;%%%%;;38083:%;%+%;;:3:;;%%;%;%;;;;;;;::::%%;:::%++%;;;%;%;;%..%%%;;%%+++%%;;%++;;;%%+%383:;%%%;;%%+%;%;",
";;;%%;%;;;:;;;;;;%%%%%:3883:;;%+%%%;;:;;%%%%;%%%;%;;%;%:::%;;;;;%%%%;;%%%%%;+++%;;;%%%+%%%;%%%+%%%%%%;::33;;%%%;%%%+%%;;",
"%;%%%;;;;;:;;;%%%;%%%;:3:3:;%%%%+%%;;;;%;%%%%%+%%%%%%%;;3:%;;;;;;;%%%%%%%;%%%++;;;%%++%;;%;%;%%+;;;::33::;%%%+;%%%+++;;:",
"%%%;%%;;;;;%%%;;;%;%%%;333::;%%%%;%;%;%;%%%;;%%%%;;;%;%;:;;%;%;%%%;%+%;;;%+%%%;;:;++%;;:;%;;;%+;%::3333;;%%+++%:;%%%%;::",
"%;%%%%%%%%%%%%;::;%%%;;::33:;;%;;;;;;%%%;;;;;%%;%;;%;;:;;;;%%;;%;;%++%::;%%++;:;%%.+;:3:::::;;;%:88883:%++%%++;::%+%%;:3",
";%;%%%%%;%%;+;;:::%%;%::333::;%;;;;;%%%;;;;;;;%;;;;;;;;;;;;;;;;;;%%%%;3:;%++;:::%+.%;33::::;;;%;33883:;+.++++%;::;%%%;::",
";%%%%%;;;;%;%%:3:;%;%;::3333:;;;;;;%%+%%%;;;%;%%;%;;;;;;%;:3::;;%+%+%:83;++%;:::;%%;:::;:;;;%%;;3883:;;+.+++%;:3:;;;;:3:",
";%;%%%;:::;;%%:3:;;;%;:3333:;%%;;;;%++%;;%;;%;%;;%;;;:;;;:383:;;%++%;308;++;%;:;;;;;;;;%%;%%+%::38:;;%%+++++;::3:::;::33",
"%;%%%;;:3:;%%%:3:;%+%;:3333:;%%%%%%;%%%%%;%;;;;;;:;;3:3::::::%;;%%+%;383;%+%%;::3:;;;;;;;%%%;;:::3:;%%;%%+.+%;:83:::::3:",
"%%%%;%;:::;%%%:33%+%%;3833:;;%%%%%%%%;;%;;;;:::::::::3:::3::;%%%%+%%;:33%++++;:88:;%%;%;;;;%%;:;::;%;%%%%%.+%;33::::3::;",
"%%%%;::;:;;%+;:3:%++%:8333;;%+%%%%%;;;%%%%;;:3:3:3333333::;%%%%;%;;::::;;++++%;883%%;;;;;;::;;::;:;;;%%%%%%%;::33:;:3;;%",
"%%%;:::;%;%%;;;:;+++::83:;;%%+%+;;;:;;;%%%;;3:8838:::::;:;%%+%+%::33:::;;%++%;:333;;;;;;;:3::;%%;:3:;++%;%;;;;:3::::;;%+",
"%%%;:::;%%%;;;;;%+%;:333:;%;%++%%;333:%%%%;:;388883:::;;;%%+++%;:833:;;;%%%%%;:38:::;;%%;:3::%;%;:::;++%%;::;;::::::;;++",
"%%;:::;%%%::;;;%;%;:::;::::;;%%++;333:;%%;:::33833;;;;;%+%%+%%%;:33:;%+%;%++%:3333:;;%%;;:::;%%%;:;;%%+;;;:3;;::;:;;;+++",
"%%::;;%%%;:;;%%%%;;::;+;::3:;%+++;33:;;;;:::::833;;%%%%+++%%;;;;:3::;%++;%++%::3333;;;%%%%%;;%%%%%%%%%;:::3:;;;;%;;;%+++",
"+%;:;%+%%:3:;%+%;;::;%+%:33:;%%.+;38::;;:3::;:3:::%%%%%%+%%::;;%;:;;%%%%;%%+%:33:3:;;;%%;%%%;%%%%%%%%%;;::3::;;%%;;%++%+",
"%%;;%%+%;:3:%%%%;;;;%+%%:33:;%%.+;383:;;:33:;;::::;;;%%%%%:::;%%%;;%%%;:;%%.;:3:;;;;%%;;%%%%;;%%%++%;;::::::;;%+%+++++%%",
"%%;;%++%:33:%+%%%::;%++%:3:;;%+++;383:;;;::;%%;;::::;;%%%;;::;%++;;%;:::%;%+%::3:::;%%;;;%+;%;;;++%%;:::;;;%%;%%+++++%;;",
"%%%;%%+;::3:;%%%;::;;%;%%;;;%%+++;333:;;;:;;;%%;::33::%;%%;;:;%%;::3;::;;++%%;3:333;;%;;;%%%%%%%%%%%;:::;;%%%%%%%++++%;;",
";%%%%+%;:3:;;%%%;:::;;%%%%;;;%%+%;::3:::;;;;;;%;:333::;%%%%%%;%%:33:;;;%++%%;;:3833:;%;;;;%%%%;%%;%%%;%;;%%%;%%%%++++;;:",
";;;;%;;::::;%+;%;::;;%;%%;;;;;%%%%%;:33:%%+;;;;;:3:3::;%%+%;;;;;:::;%;;%%+%%;::333::%;;;%;%%%%%%%%%%%;;%;:;;;;;%%%%++%;;",
";;%%;::3:3;%%+%;;;;;%%%;;:;;;%%;%%+%:3::;+%%;%;:33::;%+%+%;;::;%;%%%%+%%%%;::::33:;%%%%%;%%%%%%;;%%%%%;%::::;;;;;%++%%;;",
":;;%;:3:3:;%%%%;;;;%%%%;:3:;;;;;;++%;:3:;++%;;;:3::;;;+++%%;3:;;%%%+++%%%%;::333:3;%;;%;%%%%%%;;;%%++%%;:::::;;;%%%++%;;"
};
