/* XPM */
static char *_6d362e0484d4850cea5e3ba16edbbbdXCTmZ1DOjUdJHWIW[] = {
/* columns rows colors chars-per-pixel */
"120 120 41 1 ",
"  c None",
". c black",
"X c #010101",
"o c gray1",
"O c #040404",
"+ c #070707",
"@ c gray3",
"# c gray4",
"$ c #0B0B0B",
"% c gray5",
"& c gray6",
"* c #101010",
"= c gray8",
"- c #161616",
"; c gray10",
": c #1D1D1D",
"> c gray12",
", c #222222",
"< c #252525",
"1 c gray15",
"2 c gray17",
"3 c gray18",
"4 c #2F2F2F",
"5 c #323232",
"6 c #3F3F3F",
"7 c #484848",
"8 c gray31",
"9 c #5A5A5A",
"0 c #5F5F5F",
"q c gray38",
"w c #6F6F6F",
"e c gray50",
"r c gray52",
"t c gray56",
"y c #9F9F9F",
"u c #AFAFAF",
"i c gray75",
"p c gray81",
"a c #DFDFDF",
"s c #EFEFEF",
"d c white",
/* pixels */
"                                                                                                                        ",
"                                                                                                                        ",
"                                                                                                                        ",
"                                                                                                                        ",
"                                                                                                                        ",
"                                                                                                                        ",
"                                                                                                                        ",
"                                                                                                                        ",
"                                                                                                                        ",
"                                                                                                                        ",
"                                                                                                                        ",
"                                                                                                                        ",
"                                                                                                                        ",
"                                                                                                                        ",
"                                                                                                                        ",
"                                                                                                                        ",
"                                                                                                                        ",
"                                                                                                                        ",
"                                                                                                                        ",
"                                                                                                                        ",
"                                                                                                                        ",
"                                                                                                                        ",
"                                                                                                                        ",
"                                                                                                                        ",
"                                                                                                                        ",
"                                               ...................                                                      ",
"                                       .........68eeeeeeeeeeeeee06667-.                                                 ",
"                                     .....4eysdddddddddddddddddddddddddiiiuew64.                                        ",
"                                   ...&0pdddddddddddddddddddddddddddddddddddddda6..                                     ",
"                                 ....6udddddddddddddddddddddddddddddddddddddddddsw..                                    ",
"                               ....0adddddddddddddddddddddddddddddddddddddddddddddy&.                                   ",
"                              ...6addddddddddddddddddddddddddddddddddddddddddddddddp&                                   ",
"                             ..&uddddddddddddddddddddddddddddddddddddddddddddddddddds5                                  ",
"                            ..8sdddddddddddddddddddddddddddddddddddddddddddddddddddddd0                                 ",
"                           .&yddddddddddddddddddddddddddddddddddddddddddddddddddddddddd0                                ",
"                          .&pdddddddddddddddddddddddddddddddddddddddddddddddddddddddddddy.                              ",
"                         .4sdddddddddddddddddddddddddddddddddddddddddddddddddddddddddddddy.                             ",
"                        .6sddddddddddddddddddddddddddddddddddddddddddddddddddddddddddddddp4.                            ",
"                    .. .8dddddddddddddddddddddddddddddddddddddddddddddddddddddddddddddddd&..                            ",
"                    iw.6ddddddddddddddddddddddddddddddddddddddddddddddddddddddddddddddddd..                             ",
"                   .u4&uddddddddddddddddddddddddddddddddddddddddddddddddddddddddddddddddd4.                             ",
"                 ...&&pddddddddddddddddddddddddddddddddddddddddddddddddddddddddddddddddddw.                             ",
"                .et.&pdddddddddddddddddddddddddddddddddddddddddddddddddddddddddddddddddddu.                             ",
"                 4&&iddddddddddddddddddddddddddddddddddddddddddddddddddddddddddddddddddddd.                             ",
"                 .&pdddddddddddddddddddddddddddddddddddddddddddddddddddddddddddddddddddddd8                             ",
"                .&pdddddddddddddddddddddddddddddddddddddddddddddddddddddddddddddddddddddddt                             ",
"               .&pddddddddddddddddddddddddddddddddddddddddddddddddddddddddddddddddddddddddi.                            ",
"              .&pddddddddddddddddddddddddddddddddddddddddddddddddddddddddddddddddddddddddds.                            ",
"              .pddddddddddddddddddddddddddddddddddddddddddddddddddddddddddddddddddddddddddd.                            ",
"             .tdddddpiadddddddddddddddddddddddddddddddddddddddddddddddddddddddddddddddddddd>                            ",
"             6dddddu..0dddddddddddddddddddddddddddddddddddddddddddddddddddddpuddddddddddddd6                            ",
"           ..iddddde..eddddddddddddddddddddddddddddddddddddddddddddddddddddd8uddddddddddddd6                            ",
"          ..6ddddddp..pdddddddddddddddddddddddddddddddddddddddddddddddddddda.dddddddddddddd6                            ",
"          ..tdddddddipddddddddapdddddddddddddddddddddddddddddddddddddddddddt6dddddddddddddd6                            ",
"          ..idddddddddddddddddp0ddddddddddddddddddddddddddddddddddddddddddd6edddddddddddddd<                            ",
"          ..idddddddddddddddddd>sdddddddddddddddddddddddddddddddddddddddddd6eddddddddddddds                             ",
"           .idddddddddddddddddd8ydddddddddd8dddddddddddddddddddddddddddddddw8dddddddddddddu                             ",
"            wddddddddp0>......4>6sddddddddd&ddddddddddddddddddddpiiiiiw>...46ddddddddddddd9                             ",
"            .pddddpy>..        ..iddddddddd.pdp0666666666664............&0py4dddddddddddda.                             ",
"             .666>...           .uddddddddd.yddit..                   eddddi.ddddddddddddw                              ",
"                                 0ddddddddd4edddi.                    eddddi.sddddddddddd*                              ",
"                                 &ddddddddd6edddp.                    eddddd.iddddddddddy.                              ",
"                                 .udddddddd8edddd.                   .eddddd.idddddddddd4                               ",
"                                  0ddddddddeedddd&                   .eddddd6edddddddddi.                               ",
"                                  *ddddddddeedddd6                   .rddddd6eddddddddd8.                               ",
"                                  .ydddddddeeddddw                   .edddddw6dddddddds.                                ",
"                                   >dddddddeedddde                   .0ddddde6ddddddddy.                                ",
"                                   .uddddddwedddde                   +6dddddt&dddddddd0                                 ",
"                                   &6dddddd6eddddr                   &6dddddi4dddddddd&                                 ",
"                                   <.iddddd66sdddq                   >.ddddde6dddddddu$                                 ",
"                                    +>ddddd..eddd4                   2.pdddde6ddddddd0,                                 ",
"                                    >.tddda.$&sda&                    +ydddde6dddddda+                                  ",
"                                     $&sddt+-.edy*                    -8edddt4ddddddw>                                  ",
"                                     >.6dd8+$.&s4>                    2.4sss5.sdddda+                                   ",
"                                    &...td&-+..5.                     ;.6&w0..ysaad6>                                   ",
"                                   <.$+..w.<$*.+-                     -$+...-*&&e.6&                                    ",
"                                      .+..+   <                         -$><  +...+                                     ",
"                                      *<<>2                                   +--*                                      ",
"                                                                                                                        ",
"                                                                                                                        ",
"                                                                                                                        ",
"                                                                                                                        ",
"                                                                                                                        ",
"                                                                                                                        ",
"                                                                                                                        ",
"                                                                                                                        ",
"                                                                                                                        ",
"                                                                                                                        ",
"                                                                                                                        ",
"                                                                                                                        ",
"                                                                                                                        ",
"                                                                                                                        ",
"                                                                                                                        ",
"                                                                                                                        ",
"                                                                                                                        ",
"                                                                                                                        ",
"                                                                                                                        ",
"                                                                                                                        ",
"                                                                                                                        ",
"                                                                                                                        ",
"                                                                                                                        ",
"                                                                                                                        ",
"                                                                                                                        ",
"                                                                                                                        ",
"                                                                                                                        ",
"                                                                                                                        ",
"                                                                                                                        ",
"                                                                                                                        ",
"                                                                                                                        ",
"                                                                                                                        ",
"                                                                                                                        ",
"                                                                                                                        ",
"                                                                                                                        ",
"                                                                                                                        ",
"                                                                                                                        ",
"                                                                                                                        ",
"                                                                                                                        ",
"                                                                                                                        ",
"                                                                                                                        ",
"                                                                                                                        "
};
