/* XPM */
static char *e4ab2e7d11e34098e96656ab237d1b6cEk4eae929icCfvQH[] = {
/* columns rows colors chars-per-pixel */
"120 120 40 1 ",
"  c None",
". c black",
"X c #010101",
"o c #040404",
"O c #070707",
"+ c gray3",
"@ c gray4",
"# c #0B0B0B",
"$ c gray5",
"% c gray6",
"& c #101010",
"* c gray8",
"= c #161616",
"- c gray10",
"; c #1D1D1D",
": c gray12",
"> c #222222",
", c #252525",
"< c gray15",
"1 c gray17",
"2 c gray18",
"3 c #2F2F2F",
"4 c #323232",
"5 c #3F3F3F",
"6 c #484848",
"7 c gray31",
"8 c #5A5A5A",
"9 c #5F5F5F",
"0 c gray38",
"q c #6F6F6F",
"w c gray50",
"e c gray52",
"r c gray56",
"t c #9F9F9F",
"y c #AFAFAF",
"u c gray75",
"i c gray81",
"p c #DFDFDF",
"a c #EFEFEF",
"s c white",
/* pixels */
"                                                                                                                        ",
"                                                                                                                        ",
"                                                                                                                        ",
"                                                                                                                        ",
"                                                                                                                        ",
"                                                                                                                        ",
"                                                                                                                        ",
"                                                                                                                        ",
"                                                                                                                        ",
"                                                                                                                        ",
"                                                                                                                        ",
"                                                                                                                        ",
"                                                                                                                        ",
"                                                                                                                        ",
"                                                                                                                        ",
"                                                                                                                        ",
"                                                                                                                        ",
"                                                                                                                        ",
"                                                                                                                        ",
"                                                                                                                        ",
"                                                                                                                        ",
"                                                                                                                        ",
"                                                                                                                        ",
"                                                                                                                        ",
"                                                                                                                        ",
"                                                      ...................                                               ",
"                                                 .*65559wwwwwwwwwwwwww75.........                                       ",
"                                        .35qwyuuusssssssssssssssssssssssssatw3.....                                     ",
"                                     ..5pssssssssssssssssssssssssssssssssssssssi9%...                                   ",
"                                    ..qasssssssssssssssssssssssssssssssssssssssssy5....                                 ",
"                                   .%tsssssssssssssssssssssssssssssssssssssssssssssp9....                               ",
"                                   %issssssssssssssssssssssssssssssssssssssssssssssssp5...                              ",
"                                  4asssssssssssssssssssssssssssssssssssssssssssssssssssy%..                             ",
"                                 9ssssssssssssssssssssssssssssssssssssssssssssssssssssssa7..                            ",
"                                9ssssssssssssssssssssssssssssssssssssssssssssssssssssssssst%.                           ",
"                              .tsssssssssssssssssssssssssssssssssssssssssssssssssssssssssssi%.                          ",
"                             .tsssssssssssssssssssssssssssssssssssssssssssssssssssssssssssssa3.                         ",
"                            .3issssssssssssssssssssssssssssssssssssssssssssssssssssssssssssssa5.                        ",
"                            ..%ssssssssssssssssssssssssssssssssssssssssssssssssssssssssssssssss7. ..                    ",
"                             ..sssssssssssssssssssssssssssssssssssssssssssssssssssssssssssssssss5.qu                    ",
"                             .3sssssssssssssssssssssssssssssssssssssssssssssssssssssssssssssssssu%3y.                   ",
"                             .qssssssssssssssssssssssssssssssssssssssssssssssssssssssssssssssssssi%%...                 ",
"                             .ysssssssssssssssssssssssssssssssssssssssssssssssssssssssssssssssssssi%.rw.                ",
"                             .sssssssssssssssssssssssssssssssssssssssssssssssssssssssssssssssssssssi%%3.                ",
"                             7ssssssssssssssssssssssssssssssssssssssssssssssssssssssssssssssssssssssi%.                 ",
"                             rsssssssssssssssssssssssssssssssssssssssssssssssssssssssssssssssssssssssi%.                ",
"                            .ussssssssssssssssssssssssssssssssssssssssssssssssssssssssssssssssssssssssi%.               ",
"                            .asssssssssssssssssssssssssssssssssssssssssssssssssssssssssssssssssssssssssi&.              ",
"                            .sssssssssssssssssssssssssssssssssssssssssssssssssssssssssssssssssssssssssssi.              ",
"                            :sssssssssssssssssssssssssssssssssssssssssssssssssssssssssssssssssssspuisssssr.             ",
"                            5sssssssssssssuisssssssssssssssssssssssssssssssssssssssssssssssssssss9..ysssss5.            ",
"                            5sssssssssssssy3sssssssssssssssssssssssssssssssssssssssssssssssssssssw..wsssssu..           ",
"                            5ssssssssssssss.pssssssssssssssssssssssssssssssssssssssssssssssssssssi..ussssss5..          ",
"                            5ssssssssssssss5rsssssssssssssssssssssssssssssssssssssssssssipssssssssiisssssssr..          ",
"                            <ssssssssssssssw5sssssssssssssssssssssssssssssssssssssssssss9usssssssssssssssssu..          ",
"                             asssssssssssssw5ssssssssssssssssssssssssssssssssssssssssssa%ssssssssssssssssssu..          ",
"                             ysssssssssssss7qsssssssssssssssssssssssssssssss7sssssssssst5ssssssssssssssssssu.           ",
"                             8sssssssssssss53...:quuuuuissssssssssssssssssss%sssssssssa5:3......:9issssssssq.           ",
"                             .pssssssssssss3ti9%............:555555555559isi.sssssssssu..        ..:rissssi.            ",
"                              qssssssssssss.ussssw                   ..ruast.sssssssssy.           ...:555.             ",
"                              &sssssssssssa.ussssw                    .usssw3sssssssss9                                 ",
"                              .tssssssssssu.sssssw                    .isssw5sssssssss%                                 ",
"                               3ssssssssssu.sssssw.                   .ssssw7ssssssssy.                                 ",
"                               .usssssssssw5sssssw.                   %sssswwssssssss9                                  ",
"                               .7sssssssssw5sssssw.                   5sssswwssssssss&                                  ",
"                                .assssssss5qsssssw.                   qsssswwssssssst.                                  ",
"                                .tssssssss5wsssss9.                   wsssswwsssssss>                                   ",
"                                 9ssssssss%rsssss5#                   wsssswqssssssy.                                   ",
"                                 %ssssssss3usssss5&                   essssw5ssssss5%                                   ",
"                                 #ysssssss5wsssss.:                   0sssa55sssssu.<                                   ",
"                                 >9sssssss5wssssi.1                   3sssw..sssss:O                                    ",
"                                  Opssssss5wsssstO                    %psa%#.psssr.:                                    ",
"                                  :qssssss>rsssw7&                    *tsw.*Otssa%O                                     ",
"                                   Opssssa.4asu3.1                    :3a%.%#7ss5.:                                     ",
"                                   :5sppat..9q.5.-                     .3...&&sr...%                                    ",
"                                    %5.w%%&*...#%*                     *O.*#<.q..O#.>                                   ",
"                                     O...O  <:#*                         <   O..O.                                      ",
"                                      ***O                                   1:<<&                                      ",
"                                                                                                                        ",
"                                                                                                                        ",
"                                                                                                                        ",
"                                                                                                                        ",
"                                                                                                                        ",
"                                                                                                                        ",
"                                                                                                                        ",
"                                                                                                                        ",
"                                                                                                                        ",
"                                                                                                                        ",
"                                                                                                                        ",
"                                                                                                                        ",
"                                                                                                                        ",
"                                                                                                                        ",
"                                                                                                                        ",
"                                                                                                                        ",
"                                                                                                                        ",
"                                                                                                                        ",
"                                                                                                                        ",
"                                                                                                                        ",
"                                                                                                                        ",
"                                                                                                                        ",
"                                                                                                                        ",
"                                                                                                                        ",
"                                                                                                                        ",
"                                                                                                                        ",
"                                                                                                                        ",
"                                                                                                                        ",
"                                                                                                                        ",
"                                                                                                                        ",
"                                                                                                                        ",
"                                                                                                                        ",
"                                                                                                                        ",
"                                                                                                                        ",
"                                                                                                                        ",
"                                                                                                                        ",
"                                                                                                                        ",
"                                                                                                                        ",
"                                                                                                                        ",
"                                                                                                                        ",
"                                                                                                                        ",
"                                                                                                                        "
};
