/* XPM */
static char *_2461aa1fd174ba297433822bcb117adxfkPvPpRurYFJ6ZE[] = {
/* columns rows colors chars-per-pixel */
"120 120 34 1 ",
"  c None",
". c black",
"X c #010101",
"o c gray1",
"O c #040404",
"+ c #070707",
"@ c gray3",
"# c #0B0B0B",
"$ c gray5",
"% c gray6",
"& c #101010",
"* c gray8",
"= c #161616",
"- c gray10",
"; c #1D1D1D",
": c gray12",
"> c #202020",
", c #222222",
"< c #252525",
"1 c gray17",
"2 c #2F2F2F",
"3 c #3F3F3F",
"4 c gray31",
"5 c #5F5F5F",
"6 c #6F6F6F",
"7 c gray50",
"8 c gray56",
"9 c #9F9F9F",
"0 c #AFAFAF",
"q c gray75",
"w c gray81",
"e c #DFDFDF",
"r c #EFEFEF",
"t c white",
/* pixels */
"                                                                                                                        ",
"                                                                                                                        ",
"                                                                                                                        ",
"                                                                                                                        ",
"                                                                                                                        ",
"                                                                                                                        ",
"                                                                                                                        ",
"                                                                                                                        ",
"                                                                                                                        ",
"                                                                                                                        ",
"                                                                                                                        ",
"                                                                                                                        ",
"                                                                                                                        ",
"                                                                                                                        ",
"                                                                                                                        ",
"                                                                                                                        ",
"                                                                                                                        ",
"                                                                                                                        ",
"                                                                                                                        ",
"                                                                ...                                                     ",
"                                                   .4:.         .68.                                                    ",
"                                                   0t:.    .....6tt.                                                    ",
"                                                   9t933333336qttte.                                                    ",
"                                                   %...........4qt8.                                                    ",
"                                                   %579qwttttt03.32.                                                    ",
"                                                 .3ettttttttttttq:..                                                    ",
"                                                .%rttttttttttttttr7..                                                   ",
"                                               ..0ttttttttttttttttte4.                                                  ",
"                                               .4tttttttttttttttttttt5.                                                 ",
"                                              .%rttttttttttttttttttttr2.                                                ",
"                                              .8ttttttttttttttttttttttr2.                                               ",
"                                             .:ttttttttttttttttttttttttw%                                               ",
"                                             .qtttttttttttttttttttttttttw.                                              ",
"                                            .3ttttttttttttttttttttttttttt7.                                             ",
"                                            .qtttttttttttttttttttttttttttr:                                             ",
"                                            :ttttttttttttttttttttttttttttt8.                                            ",
"                                           .6tttttttttttttttttttttttttttttr%                                            ",
"                                           .0tttttttttttttttttttttttttttttt6.                                           ",
"                                           .rtttttttttttttttttttttttttttttte.                                           ",
"                                          .3tttttttttttttttttttttttttttttttt:                                           ",
"                                          .7tttttttttttttttttttttttttttttttt6.                                          ",
"                                          .qtttttttttttttttttttttttttttttttt0.                                          ",
"                                          .ttttttttttttttttttttttttttttttttte.                                          ",
"                                          3tttttttttttttttttttttttttttttttttt.                                          ",
"                                         .3tttttttttttttttttttttttttttttttttt2                                          ",
"                                         .6tttttttttttte.8tt07rtttttttttttttt3                                          ",
"                                         .7ttttttttttttt3:tt.%rtttttttttttttt3                                          ",
"                                         .7tttttttttttttw%5q.5ttttttttttttttt3                                          ",
"                                         .8tttttttttttttt0..%rttttttttttttttt3                                          ",
"                                         .qttttttttttttttt87wtttttttttttttttt3                                          ",
"                                         .qttttttttttttttw..2tttttttttttttttt3                                          ",
"                                         .qttttttttttttttt%.4tttttttttttttttt2                                          ",
"                                         .0ttttttttttttttteqrtttttttttttttttt.                                          ",
"                                         .7tttttttttttttttttttttttttttttttttt.                                          ",
"                                         .7tttttttttttttttttttttttttttttttttt.                                          ",
"                                          3tttttttttttttttttttttttttttttttttw.                                          ",
"                                          %tttttttttttttttttttttttttttttttttq.                                          ",
"                                          .rttttttttttttttttttttttttttttttttq.                                          ",
"                                          .0tttttttttttttttttttttttttttttttt7.                                          ",
"                                          .6tttttttttttttttttttttttttttttttt7.                                          ",
"                                          .2tttttttttttt68ttttw4tttttttttttt7.                                          ",
"                                           .rttttttttttt0.:777:9tttttttttttt7.                                          ",
"                                           .0ttttttttttttw6.O%qttttttttttttt3.                                          ",
"                                           .5ttttttttttttt6& O8ttttttttttttt:                                           ",
"                                           ..ttttttttttttt2% =%rttttttttttte.                                           ",
"                                            .0tttttttttttt.: <.6ttttttttttt8.                                           ",
"                                            .5tttttttttttw.,  O%rtttttttttt4.                                           ",
"                                            .%ttttttttttt9.   =.9tttttttttt3.                                           ",
"                                            ,.9tttttttttt7O   1.3tttttttttt2O                                           ",
"                                             O3tttttttttt4#    #.ettttttttr.&                                           ",
"                                             :.0ttttttttt2=    <.8tttttttt7.:                                           ",
"                                              O,ttttttttt.<     #2tttttttw%.                                            ",
"                                              ,.7tttttttw.      :.wtttttt2.#                                            ",
"                                               =.qtttttt7=       O3ttttt9..<                                            ",
"                                                #%wttttt:<       :.qtttt7O-                                             ",
"                                                 #.7rtt7%         #2rtt6.<                                              ",
"                                                  -....O1         1#:3,.2                                               ",
"                                                    :::1            &%=                                                 ",
"                                                                                                                        ",
"                                                                                                                        ",
"                                                                                                                        ",
"                                                                                                                        ",
"                                                                                                                        ",
"                                                                                                                        ",
"                                                                                                                        ",
"                                                                                                                        ",
"                                                                                                                        ",
"                                                                                                                        ",
"                                                                                                                        ",
"                                                                                                                        ",
"                                                                                                                        ",
"                                                                                                                        ",
"                                                                                                                        ",
"                                                                                                                        ",
"                                                                                                                        ",
"                                                                                                                        ",
"                                                                                                                        ",
"                                                                                                                        ",
"                                                                                                                        ",
"                                                                                                                        ",
"                                                                                                                        ",
"                                                                                                                        ",
"                                                                                                                        ",
"                                                                                                                        ",
"                                                                                                                        ",
"                                                                                                                        ",
"                                                                                                                        ",
"                                                                                                                        ",
"                                                                                                                        ",
"                                                                                                                        ",
"                                                                                                                        ",
"                                                                                                                        ",
"                                                                                                                        ",
"                                                                                                                        ",
"                                                                                                                        ",
"                                                                                                                        ",
"                                                                                                                        ",
"                                                                                                                        ",
"                                                                                                                        ",
"                                                                                                                        "
};
