/* XPM */
static char *result[] = {
/* columns rows colors chars-per-pixel */
"120 120 42 1 ",
"  c black",
". c #010101",
"X c gray1",
"o c #040404",
"O c gray2",
"+ c #070707",
"@ c gray3",
"# c #0B0B0B",
"$ c #0C0C0C",
"% c gray5",
"& c gray6",
"* c #101010",
"= c gray7",
"- c gray8",
"; c #161616",
": c #191919",
"> c gray10",
", c #1D1D1D",
"< c gray12",
"1 c #222222",
"2 c #252525",
"3 c gray17",
"4 c #2F2F2F",
"5 c #323232",
"6 c #3F3F3F",
"7 c #414141",
"8 c #484848",
"9 c gray31",
"0 c #505050",
"q c #5F5F5F",
"w c #656565",
"e c #6F6F6F",
"r c gray50",
"t c gray56",
"y c #9F9F9F",
"u c #AFAFAF",
"i c gray75",
"p c gray81",
"a c #DFDFDF",
"s c #EFEFEF",
"d c white",
"f c None",
/* pixels */
"ffffffffffffffffffffffffffffffffffffffffffffffffffffffffffffffffffffffffffffffffffffffffffffffffffffffffffffffffffffffff",
"ffffffffffffffffffffffffffffffffffffffffffffffffffffffffffffffffffffffffffffffffffffffffffffffffffffffffffffffffffffffff",
"ffffffffffffffffffffffffffffffffffffffffffffffffffffffffffffffffffffffffffffffffffffffffffffffffffffffffffffffffffffffff",
"ffffffffffffffffffffffffffffffffffffffffffffffffffffffffffffffffffffffffffffffffffffffffffffffffffffffffffffffffffffffff",
"ffffffffffffffffffffffffffffffffffffffffffffffffffffffffffffffffffffffffffffffffffffffffffffffffffffffffffffffffffffffff",
"ffffffffffffffffffffffffffffffffffffffffffffffffffffffffffffffffffffffffffffffffffffffffffffffffffffffffffffffffffffffff",
"ffffffffffffffffffffffffffffffffffffffffffffffffffffffffffffffffffffffffffffffffffffffffffffffffffffffffffffffffffffffff",
"ffffffffffffffffffffffffffffffffffffffffffffffffffffffffffffffffffffffffffffffffffffffffffffffffffffffffffffffffffffffff",
"ffffffffffffffffffffffffffffffffffffffffffffffffffffffffffffffffffffffffffffffffffffffffffffffffffffffffffffffffffffffff",
"ffffffffffffffffffffffffffffffffffffffffffffffffffffffffffffffffffffffffffffffffffffffffffffffffffffffffffffffffffffffff",
"ffffffffffffffffffffffffffffffffffffffffffffffffffffffffffffffffffffffffffffffffffffffffffffffffffffffffffffffffffffffff",
"ffffffffffffffffffffffffffffffffffffffffffffffffffffffffffffffffffffffffffffffffffffffffffffffffffffffffffffffffffffffff",
"ffffffffffffffffffffffffffffffffffffffffffffffffffffffffffffffffffffffffffffffffffffffffffffffffffffffffffffffffffffffff",
"ffffffffffffffffffffffffffffffffffffffffffffffffffffffffffffffffffffffffffffffffffffffffffffffffffffffffffffffffffffffff",
"ffffffffffffffffffffffffffffffffffffffffffffffffffffffffffffffffffffffffffffffffffffffffffffffffffffffffffffffffffffffff",
"ffffffffffffffffffffffffffffffffffffffffffffffffffffffffffffffffffffffffffffffffffffffffffffffffffffffffffffffffffffffff",
"ffffffffffffffffffffffffffffffffffffffffffffffffffffffffffffffffffffffffffffffffffffffffffffffffffffffffffffffffffffffff",
"ffffffffffffffffffffffffffffffffffffffffffffffffffffffffffffffffffffffffffffffffffffffffffffffffffffffffffffffffffffffff",
"ffffffffffffffffffffffffffffffffffffffffffffffffffffffffffffffffffffffffffffffffffffffffffffffffffffffffffffffffffffffff",
"ffffffffffffffffffffffffffffffffffffffffffffffffffffffffffffffffffffffffffffffffffffffffffffffffffffffffffffffffffffffff",
"ffffffffffffffffffffffffffffffffffffffffffffffffffffffffffffffffffffffffffffffffffffffffffffffffffffffffffffffffffffffff",
"ffffffffffffffffffffffffffffffffffffffffffffffffffffffffffffffffffffffffffffffffffffffffffffffffffffffffffffffffffffffff",
"ffffffffffffffffffffffffffffffffffffffffffffffffffffffffffffffffffffffffffffffffffffffffffffffffffffffffffffffffffffffff",
"ffffffffffffffffffffffffffffffffffffffffffffffffffffffffffffffffffffffffffffffffffffffffffffffffffffffffffffffffffffffff",
"ffffffffffffffffffffffffffffffffffffffffffffffffffffffffffffffffffffffffffffffffffffffffffffffffffffffffffffffffffffffff",
"ffffffffffffffffffffffffffffffffffffffffffffffffffffffffffffffffffffffffffffffffffffffffffffffffffffffffffffffffffffffff",
"ffffffffffffffffffffffffffffffffffffffffffffffffffffffffffffffffffffffffffffffffffffffffffffffffffffffffffffffffffffffff",
"ffffffffffffffffffffffffffffffffffffffffffffffffffffffff               fffffffffffffffffffffffffffffffffffffffffffffffff",
"ffffffffffffffffffffffffffffffffffffffffffffffff    469rrrrrrrrrrre666666&      ffffffffffffffffffffffffffffffffffffffff",
"ffffffffffffffffffffffffffffffffffffffffffff 8qripddddddddddddddddddddddddddaiyr9   ffffffffffffffffffffffffffffffffffff",
"ffffffffffffffffffffffffffffffffffffffff 5tisddddddddddddddddddddddddddddddddddddsu4  ffffffffffffffffffffffffffffffffff",
"fffffffffffffffffffffffffffffffffffff wuddddddddddddddddddddddddddddddddddddddddddddu< fffffffffffffffffffffffffffffffff",
"fffffffffffffffffffffffffffffffffff 6pdddddddddddddddddddddddddddddddddddddddddddddddsq ffffffffffffffffffffffffffffffff",
"fffffffffffffffffffffffffffffffff qpdddddddddddddddddddddddddddddddddddddddddddddddddddq  ffffffffffffffffffffffffffffff",
"fffffffffffffffffffffffffffffff 6pddddddddddddddddddddddddddddddddddddddddddddddddddddddq  fffffffffffffffffffffffffffff",
"fffffffffffffffffffffffffffff &tdddddddddddddddddddddddddddddddddddddddddddddddddddddddds4  ffffffffffffffffffffffffffff",
"ffffffffffffffffffffffff fff <pdddddddddddddddddddddddddddddddddddddddddddddddddddddddddds& ffffffffffffffffffffffffffff",
"fffffffffffffffffffff   &ff eaddddddddddddddddddddddddddddddddddddddddddddddddddddddddddddu  fffffffffffffffffffffffffff",
"fffffffffffffffffffff  e6f<pddddddddddddddddddddddddddddddddddddddddddddddddddddddddddddddd6  ffffffffffffffffffffffffff",
"fffffffffffffffffffff4 i 9sddddddddddddddddddddddddddddddddddddddddddddddddddddddddddddddddr  ffffffffffffffffffffffffff",
"fffffffffffffffffffff9 q sddddddddddddddddddddddddddddddddddddddddddddddddddddddddddddddddduffffffffffffffffffffffffffff",
"ffffffffffffffffffff u 44ddddddddddddddddddddddddddddddddddddddddddddddddddddddddddddddddddaffffffffffffffffffffffffffff",
"ffffffffffffffffffff 4qddddddddddddddddddddddddddddddddddddddddddddddddddddddddddddddddddddd-fffffffffffffffffffffffffff",
"ffffffffffffffffffff rdddddddddddddddddddddddddddddddddddddddddddddddddddddddddddddddddddddd9fffffffffffffffffffffffffff",
"fffffffffffffff ff  rdddddddddddddddddddddddddddddddddddddddddddddddddddddddddddddddddddddddrfffffffffffffffffffffffffff",
"fffffffffffffff    qddddddddddddddddddddddddddddddddddddddddddddddddddddddddddddddddddddddddi ffffffffffffffffffffffffff",
"fffffffffffffff   edddddddddddddddddddddddddddddddddddddddddddddddddddddddddddddddddddddddddd ffffffffffffffffffffffffff",
"ffffffffffff f   yddddprudddddddddddddddddddddddddddddddddddddddddddddddddddddddddddddddddddd4ffffffffffffffffffffffffff",
"ffffffffffff    tddddd9 6dddddddddddddddddddddddddddddddddddddddddddddddddddddddddddddddddddd6 fffffffffffffffffffffffff",
"fffffffffff   4udddddd  9ddddddddddddddddddddddddddddddddddddddddddddddddddddddddddddddddddddr fffffffffffffffffffffffff",
"fffffffffff   addddddd  qddddddddddddddddddddddddddddddddddddddddddddddddddddddddddddddddddddr fffffffffffffffffffffffff",
"fffffffffff  9dddddddi  edddddddddddddddddddddddddddddddddddddddddddddddddddddddddddddddddddd9 fffffffffffffffffffffffff",
"fffffffffff  rdddddddi &pdddddddddddddddddddddddddddddddddddddddddddddddddddddddddddddddddddd<ffffffffffffffffffffffffff",
"fffffffffff  tddddddddipdddddddddddddddddddddddddddddddddddddddddddddddddddddddddddddddddddds ffffffffffffffffffffffffff",
"fffffffffff  iddddddddddddddddddd9addddddddddi&&sdddddddddddddddddddddddddddddddddddddddddddi ffffffffffffffffffffffffff",
"ffffffffffffftddddddddddddddddddd6yddddddddda& qdddddddddddddddddddddddddddda9ddddddddddddddr ffffffffffffffffffffffffff",
"fffffffffffff6ddddddddddddddddddd69ddddddddd6  adddddddddddddddddddddddddddda iddddddddddddd9 ffffffffffffffffffffffffff",
"fffffffffffff qddddddddddddpiiyrr<<sdddddddi  qdddddddddddddddddddddddddddddd<6ddddddddddddd4 ffffffffffffffffffffffffff",
"ffffffffffffff &risddiir94         sdddddddq  addiqadddddddddddddddddddddddddt idddddddddddd  ffffffffffffffffffffffffff",
"ffffffffffffffff            ffffff idddddds  qdddd<&pddddddddddddddddddddiq< w<4dddddddddddd  ffffffffffffffffffffffffff",
"ffffffffffffffffffffffffffffffffff<sddddddy  iddddi 4rrrrrrrrrrrrrrrrr9&  4rpdy iddddddddddd6 ffffffffffffffffffffffffff",
"fffffffffffffffffffffffffffffffff 9dddddddq 6dddddd4                ff  isddddd46ddddddddddd9 ffffffffffffffffffffffffff",
"fffffffffffffffffffffffffffffffff rddddddd4 ydddddda   ffffffffffffffff yddddddu pddddddddddr ffffffffffffffffffffffffff",
"fffffffffffffffffffffffffffffffff rddddddd 4ddddddddq fffffffffffffffff 9ddddddd99ddddddddddy ffffffffffffffffffffffffff",
"fffffffffffffffffffffffffffffffff uddddddi 6ddddddddu  ffffffffffffffff  dddddddi ddddddddddp  fffffffffffffffffffffffff",
"fffffffffffffffffffffffffffffffff iddddddi  pdddddddd< fffffffffffffffff uddddddy tdddddddddd& fffffffffffffffffffffffff",
"fffffffffffffffffffffffffffffffff iddddddr f6ddddddddr fffffffffffffffff eddddddr  pdddddddddq  ffffffffffffffffffffffff",
"fffffffffffffffffffffffffffffffff iddddddqOfotddddddds  ffffffffffffffff 4dddddd6 f:addddddddi  ffffffffffffffffffffffff",
"fffffffffffffffffffffffffffffffff idddddd4;f,&iddddddd9.ffffffffffffffff  sddddd6 f2=pdddddddd4 ffffffffffffffffffffffff",
"fffffffffffffffffffffffffffffffff tddddds 2ff*&addddddi 2fffffffffffffffX uddddd6 ff1=tdddddddq ffffffffffffffffffffffff",
"fffffffffffffffffffffffffffffffff$edddddyoffff#4sdddddd<;fffffffffffffff# eddddd6 fff1.4idddddi ffffffffffffffffffffffff",
"fffffffffffffffffffffffffffffffff;4dddddq%fffff#qddddddq*fffffffffffffff> 6ddddd6 ffff3+ <tiiy< ffffffffffffffffffffffff",
"fffffffffffffffffffffffffffffffff3 addds&,ffffff*tddddd *ffffffffffffffff. ddddd4 ffffff;o    +fffffffffffffffffffffffff",
"ffffffffffffffffffffffffffffffffffordddyXffffffff27uiir0fffffffffffffffff;9dddde  ffffffffffffffffffffffffffffffffffffff",
"ffffffffffffffffffffffffffffffffff;&pds<;ffffffffff3,,,1ffffffffffffffffff@9iit o3ffffffffffffffffffffffffffffffffffffff",
"fffffffffffffffffffffffffffffffffff#&64offffffffffffffffffffffffffffffffff3%   %3fffffffffffffffffffffffffffffffffffffff",
"ffffffffffffffffffffffffffffffffffff;**3ffffffffffffffffffffffffffffffffffffffffffffffffffffffffffffffffffffffffffffffff",
"ffffffffffffffffffffffffffffffffffffffffffffffffffffffffffffffffffffffffffffffffffffffffffffffffffffffffffffffffffffffff",
"ffffffffffffffffffffffffffffffffffffffffffffffffffffffffffffffffffffffffffffffffffffffffffffffffffffffffffffffffffffffff",
"ffffffffffffffffffffffffffffffffffffffffffffffffffffffffffffffffffffffffffffffffffffffffffffffffffffffffffffffffffffffff",
"ffffffffffffffffffffffffffffffffffffffffffffffffffffffffffffffffffffffffffffffffffffffffffffffffffffffffffffffffffffffff",
"ffffffffffffffffffffffffffffffffffffffffffffffffffffffffffffffffffffffffffffffffffffffffffffffffffffffffffffffffffffffff",
"ffffffffffffffffffffffffffffffffffffffffffffffffffffffffffffffffffffffffffffffffffffffffffffffffffffffffffffffffffffffff",
"ffffffffffffffffffffffffffffffffffffffffffffffffffffffffffffffffffffffffffffffffffffffffffffffffffffffffffffffffffffffff",
"ffffffffffffffffffffffffffffffffffffffffffffffffffffffffffffffffffffffffffffffffffffffffffffffffffffffffffffffffffffffff",
"ffffffffffffffffffffffffffffffffffffffffffffffffffffffffffffffffffffffffffffffffffffffffffffffffffffffffffffffffffffffff",
"ffffffffffffffffffffffffffffffffffffffffffffffffffffffffffffffffffffffffffffffffffffffffffffffffffffffffffffffffffffffff",
"ffffffffffffffffffffffffffffffffffffffffffffffffffffffffffffffffffffffffffffffffffffffffffffffffffffffffffffffffffffffff",
"ffffffffffffffffffffffffffffffffffffffffffffffffffffffffffffffffffffffffffffffffffffffffffffffffffffffffffffffffffffffff",
"ffffffffffffffffffffffffffffffffffffffffffffffffffffffffffffffffffffffffffffffffffffffffffffffffffffffffffffffffffffffff",
"ffffffffffffffffffffffffffffffffffffffffffffffffffffffffffffffffffffffffffffffffffffffffffffffffffffffffffffffffffffffff",
"ffffffffffffffffffffffffffffffffffffffffffffffffffffffffffffffffffffffffffffffffffffffffffffffffffffffffffffffffffffffff",
"ffffffffffffffffffffffffffffffffffffffffffffffffffffffffffffffffffffffffffffffffffffffffffffffffffffffffffffffffffffffff",
"ffffffffffffffffffffffffffffffffffffffffffffffffffffffffffffffffffffffffffffffffffffffffffffffffffffffffffffffffffffffff",
"ffffffffffffffffffffffffffffffffffffffffffffffffffffffffffffffffffffffffffffffffffffffffffffffffffffffffffffffffffffffff",
"ffffffffffffffffffffffffffffffffffffffffffffffffffffffffffffffffffffffffffffffffffffffffffffffffffffffffffffffffffffffff",
"ffffffffffffffffffffffffffffffffffffffffffffffffffffffffffffffffffffffffffffffffffffffffffffffffffffffffffffffffffffffff",
"ffffffffffffffffffffffffffffffffffffffffffffffffffffffffffffffffffffffffffffffffffffffffffffffffffffffffffffffffffffffff",
"ffffffffffffffffffffffffffffffffffffffffffffffffffffffffffffffffffffffffffffffffffffffffffffffffffffffffffffffffffffffff",
"ffffffffffffffffffffffffffffffffffffffffffffffffffffffffffffffffffffffffffffffffffffffffffffffffffffffffffffffffffffffff",
"ffffffffffffffffffffffffffffffffffffffffffffffffffffffffffffffffffffffffffffffffffffffffffffffffffffffffffffffffffffffff",
"ffffffffffffffffffffffffffffffffffffffffffffffffffffffffffffffffffffffffffffffffffffffffffffffffffffffffffffffffffffffff",
"ffffffffffffffffffffffffffffffffffffffffffffffffffffffffffffffffffffffffffffffffffffffffffffffffffffffffffffffffffffffff",
"ffffffffffffffffffffffffffffffffffffffffffffffffffffffffffffffffffffffffffffffffffffffffffffffffffffffffffffffffffffffff",
"ffffffffffffffffffffffffffffffffffffffffffffffffffffffffffffffffffffffffffffffffffffffffffffffffffffffffffffffffffffffff",
"ffffffffffffffffffffffffffffffffffffffffffffffffffffffffffffffffffffffffffffffffffffffffffffffffffffffffffffffffffffffff",
"ffffffffffffffffffffffffffffffffffffffffffffffffffffffffffffffffffffffffffffffffffffffffffffffffffffffffffffffffffffffff",
"ffffffffffffffffffffffffffffffffffffffffffffffffffffffffffffffffffffffffffffffffffffffffffffffffffffffffffffffffffffffff",
"ffffffffffffffffffffffffffffffffffffffffffffffffffffffffffffffffffffffffffffffffffffffffffffffffffffffffffffffffffffffff",
"ffffffffffffffffffffffffffffffffffffffffffffffffffffffffffffffffffffffffffffffffffffffffffffffffffffffffffffffffffffffff",
"ffffffffffffffffffffffffffffffffffffffffffffffffffffffffffffffffffffffffffffffffffffffffffffffffffffffffffffffffffffffff",
"ffffffffffffffffffffffffffffffffffffffffffffffffffffffffffffffffffffffffffffffffffffffffffffffffffffffffffffffffffffffff",
"ffffffffffffffffffffffffffffffffffffffffffffffffffffffffffffffffffffffffffffffffffffffffffffffffffffffffffffffffffffffff",
"ffffffffffffffffffffffffffffffffffffffffffffffffffffffffffffffffffffffffffffffffffffffffffffffffffffffffffffffffffffffff",
"ffffffffffffffffffffffffffffffffffffffffffffffffffffffffffffffffffffffffffffffffffffffffffffffffffffffffffffffffffffffff",
"ffffffffffffffffffffffffffffffffffffffffffffffffffffffffffffffffffffffffffffffffffffffffffffffffffffffffffffffffffffffff",
"ffffffffffffffffffffffffffffffffffffffffffffffffffffffffffffffffffffffffffffffffffffffffffffffffffffffffffffffffffffffff",
"ffffffffffffffffffffffffffffffffffffffffffffffffffffffffffffffffffffffffffffffffffffffffffffffffffffffffffffffffffffffff",
"ffffffffffffffffffffffffffffffffffffffffffffffffffffffffffffffffffffffffffffffffffffffffffffffffffffffffffffffffffffffff",
"ffffffffffffffffffffffffffffffffffffffffffffffffffffffffffffffffffffffffffffffffffffffffffffffffffffffffffffffffffffffff"
};
