/* XPM */
static char *result[] = {
/* columns rows colors chars-per-pixel */
"120 120 34 1 ",
"  c black",
". c #010101",
"X c gray1",
"o c #040404",
"O c #070707",
"+ c gray3",
"@ c #090909",
"# c #0B0B0B",
"$ c gray5",
"% c gray6",
"& c #101010",
"* c gray8",
"= c #161616",
"- c gray10",
"; c #1D1D1D",
": c gray12",
"> c #222222",
", c #252525",
"< c gray17",
"1 c #2F2F2F",
"2 c #3F3F3F",
"3 c gray31",
"4 c #5F5F5F",
"5 c #6F6F6F",
"6 c gray50",
"7 c gray56",
"8 c #9F9F9F",
"9 c #AFAFAF",
"0 c gray75",
"q c gray81",
"w c #DFDFDF",
"e c #EFEFEF",
"r c white",
"t c None",
/* pixels */
"tttttttttttttttttttttttttttttttttttttttttttttttttttttttttttttttttttttttttttttttttttttttttttttttttttttttttttttttttttttttt",
"tttttttttttttttttttttttttttttttttttttttttttttttttttttttttttttttttttttttttttttttttttttttttttttttttttttttttttttttttttttttt",
"tttttttttttttttttttttttttttttttttttttttttttttttttttttttttttttttttttttttttttttttttttttttttttttttttttttttttttttttttttttttt",
"tttttttttttttttttttttttttttttttttttttttttttttttttttttttttttttttttttttttttttttttttttttttttttttttttttttttttttttttttttttttt",
"tttttttttttttttttttttttttttttttttttttttttttttttttttttttttttttttttttttttttttttttttttttttttttttttttttttttttttttttttttttttt",
"tttttttttttttttttttttttttttttttttttttttttttttttttttttttttttttttttttttttttttttttttttttttttttttttttttttttttttttttttttttttt",
"tttttttttttttttttttttttttttttttttttttttttttttttttttttttttttttttttttttttttttttttttttttttttttttttttttttttttttttttttttttttt",
"tttttttttttttttttttttttttttttttttttttttttttttttttttttttttttttttttttttttttttttttttttttttttttttttttttttttttttttttttttttttt",
"tttttttttttttttttttttttttttttttttttttttttttttttttttttttttttttttttttttttttttttttttttttttttttttttttttttttttttttttttttttttt",
"tttttttttttttttttttttttttttttttttttttttttttttttttttttttttttttttttttttttttttttttttttttttttttttttttttttttttttttttttttttttt",
"tttttttttttttttttttttttttttttttttttttttttttttttttttttttttttttttttttttttttttttttttttttttttttttttttttttttttttttttttttttttt",
"tttttttttttttttttttttttttttttttttttttttttttttttttttttttttttttttttttttttttttttttttttttttttttttttttttttttttttttttttttttttt",
"tttttttttttttttttttttttttttttttttttttttttttttttttttttttttttttttttttttttttttttttttttttttttttttttttttttttttttttttttttttttt",
"tttttttttttttttttttttttttttttttttttttttttttttttttttttttttttttttttttttttttttttttttttttttttttttttttttttttttttttttttttttttt",
"tttttttttttttttttttttttttttttttttttttttttttttttttttttttttttttttttttttttttttttttttttttttttttttttttttttttttttttttttttttttt",
"tttttttttttttttttttttttttttttttttttttttttttttttttttttttttttttttttttttttttttttttttttttttttttttttttttttttttttttttttttttttt",
"tttttttttttttttttttttttttttttttttttttttttttttttttttttttttttttttttttttttttttttttttttttttttttttttttttttttttttttttttttttttt",
"tttttttttttttttttttttttttttttttttttttttttttttttttttttttttttttttttttttttttttttttttttttttttttttttttttttttttttttttttttttttt",
"tttttttttttttttttttttttttttttttttttttttttttttttttttttttttttttttttttttttttttttttttttttttttttttttttttttttttttttttttttttttt",
"tttttttttttttttttttttttttttttttttttttttttttttttttttttttttttttttttttttttttttttttttttttttttttttttttttttttttttttttttttttttt",
"tttttttttttttttttttttttttttttttttttttttttttttttttttttttttttttttttttttttttttttttttttttttttttttttttttttttttttttttttttttttt",
"tttttttttttttttttttttttttttttttttttttttttttttttttttttttttttttttttttttttttttttttttttttttttttttttttttttttttttttttttttttttt",
"tttttttttttttttttttttttttttttttttttttttttttttttttttttttttttttttttttttttttttttttttttttttttttttttttttttttttttttttttttttttt",
"tttttttttttttttttttttttttttttttttttttttttttttttttttttttttttttttttttttttttttttttttttttttttttttttttttttttttttttttttttttttt",
"tttttttttttttttttttttttttttttttttttttttttttttttttttttttttttttttttttttttttttttttttttttttttttttttttttttttttttttttttttttttt",
"tttttttttttttttttttttttttttttttttttttttttttttttttttttttttttttttttttttttttttttttttttttttttttttttttttttttttttttttttttttttt",
"tttttttttttttttttttttttttttttttttttttttttttttttttttttttttttttttttttttttttttttttttttttttttttttttttttttttttttttttttttttttt",
"tttttttttttttttttttttttttttttttttttttttttttttttttttttttttttttttttttttttttttttttttttttttttttttttttttttttttttttttttttttttt",
"tttttttttttttttttttttttttttttttttttttttttttt    222222222222222222222222222222   ttttttttttttttttttttttttttttttttttttttt",
"ttttttttttttttttttttttttttttttttttttttttt  :38qrrrrrrrrrrrrrrrrrrrrrrrrrrrrrrrr02   tttttttttttttttttttttttttttttttttttt",
"tttttttttttttttttttttttttttttttttttttt  16qrrrrrrrrrrrrrrrrrrrrrrrrrrrrrrrrrrrrrrq03  tttttttttttttttttttttttttttttttttt",
"tttttttttttttttttttttttttttttttttttt  5wrrrrrrrrrrrrrrrrrrrrrrrrrrrrrrrrrrrrrrrrrrrrq4:  ttttttttttttttttttttttttttttttt",
"tttttttttttttttttttttttttttttttttt %7errrrrrrrrrrrrrrrrrrrrrrrrrrrrrrrrrrrrrrrrrrrrrrrr03 tttttttttttttttttttttttttttttt",
"ttttttttttttttttttttttttttttttttt 4errrrrrrrrrrrrrrrrrrrrrrrrrrrrrrrrrrrrrrrrrrrrrrrrrrrr6 ttttttttttttttttttttttttttttt",
"tttttttttttttttttttttttttttttttt&9rrrrrrrrrrrrrrrrrrrrrrrrrrrrrrrrrrrrrrrrrrrrrrrrrrrrrrrr%ttttttttttttttttttttttttttttt",
"ttttttttttttttttttttttttttttttt1errrrrrrrrrrrrrrrrrrrrrrrrrrrrrrrrrrrrrrrrrrrrrrrrrrrrrrrr6 tttttttttttttttttttttttttttt",
"tttttttttttttttttttttttttttttt2errrrrrrrrrrrrrrrrrrrrrrrrrrrrrrrrrrrrrrrrrrrrrrrrrrrrrrrrre: ttttttttttttttttttttttttttt",
"tttttttttttttttttttttttttttt 4rrrrrrrrrrrrrrrrrrrrrrrrrrrrrrrrrrrrrrrrrrrrrrrrrrrrrrrrrrrrr9 ttttttttttttttttttttttttttt",
"ttttttttttttttttttttttttttt 4rrrrrrrrrrrrrrrrrrrrrrrrrrrrrrrrrrrrrrrrrrrrrrrrrrrrrrrrrrrrrrr3 tttttttttttttttttttttttttt",
"tttttttttttttttttttttttttt 4rrrrrrrrrrrrrrrrrrrrrrrrrrrrrrrrrrrrrrrrrrrrrrrrrrrrrrrrrrrrrrr9  tttttttttttttttttttttttttt",
"ttttttttttttttttttttt 11  3rrrrrrrrrrrrrrrrrrrrrrrrrrrrrrrrrrrrrrrrrrrrrrrrrrrrrrrrrrrrrrrrw3 tttttttttttttttttttttttttt",
"tttttttttttttttttttt  86 1errrrrrrrrrrrrrrrrrrrrrrrrrrrrrrrrrrrrrrrrrrrrrrrrrrrrrrrrrrrrrrrr6 tttttttttttttttttttttttttt",
"tttttttttttttttttttt  51 errrrrrrrrrrrrrrrrrrrrrrrrrrrrrrrrrrrrrrrrrrrrrrrrrrrrrrrrrrrrrrrrr6  ttttttttttttttttttttttttt",
"tttttttttttttttttttt24 10rrrrrrrrrrrrrrrrrrrrrrrrrrrrrrrrrrrrrrrrrrrrrrrrrrrrrrrrrrrrrrrrrrr6  ttttttttttttttttttttttttt",
"tttttttttttttttttttt::1errrrrrrrrrrrrrrrrrrrrrrrrrrrrrrrrrrrrrrrrrrrrrrrrrrrrrrrrrrrrrrrrrrr6  ttttttttttttttttttttttttt",
"tttttttttttttttttttt 1errrrrrrrrrrrrrrrrrrrrrrrrrrrrrrrrrrrrrrrrrrrrrrrrrrrrrrrrrrrrrrrrrrrr3  ttttttttttttttttttttttttt",
"ttttttttttttttttttt 1rrrrrrrrrrrrrrrrrrrrrrrrrrrrrrrrrrrrrrrrrrrrrrrrrrrrrrrrrrrrrrrrrrrrrrr2  ttttttttttttttttttttttttt",
"tttttttttttttttttt 4rrrrrrrrrrrrrrrrrrrrrrrrrrrrrrrrrrrrrrrrrrrrrrrrrrrrrrrrrrrrrrrrrrrrrrrr1  ttttttttttttttttttttttttt",
"ttttttttttttttttt 4rrrrrrrrrrrrrrrrrrrrrrrrrrrrrrrrrrrrrrrrrrrrrrrrrrrrrrrrrrrrrrrrrrrrrrrrr  tttttttttttttttttttttttttt",
"tttttttttttttttt 4rrrrrrrrrrrrrrrrrrrrrrrrrrrrrrrrrrrrrrrrrrrrrrrrrrrrrrrrrrrrrrrrrrrrrrrrrw  tttttttttttttttttttttttttt",
"ttttttttttttttt 4rrrrrrrrrrrrrrrrrrrrrrrrrrrrrrrrrrrrrrrrrrrrrrrrrrrrrrrrrrr1rrrrrrrrrrrrrr0  tttttttttttttttttttttttttt",
"tttttttttttttt 2rrrrrrqrrrrrrrrrrrrrrrrrrrrrrrrrrrrrrrrrrrrrrrrrrrrrrrrrrrrq rrrrrrrrrrrrrr7  tttttttttttttttttttttttttt",
"ttttttttttttt :errrrrr2%7rrrrrrrrrrrrrrrrrrrrrrrrrrrrrrrrrrrrrrrrrrrrrrrrrr0 rrrrrrrrrrrrrr5 ttttttttttttttttttttttttttt",
"ttttttttttt  %wrrrrrrr2 3rrrrrrrrrrrrrrrrrrrrrrrrrrrrrrrrrrrrrrrrrrrrrrrrrr0 0rrrrrrrrrrrrr2 ttttttttttttttttttttttttttt",
"ttttttttttt  wrrrrrrrr2%qrrrrrrrr70rrrrrrrrrrrr2wrrrrrrrrrrrrrrrrrrrrrrrrrr0 errrrrrrrrrrrr% ttttttttttttttttttttttttttt",
"tttttttttt   qrrrrrrrrrrrrrrrrrrr64rrrrrrrrrrr0 wrrrrrrrrrrrrrrrrrrrrrrrrrr0 rrrrrrrrrrrrrw  ttttttttttttttttttttttttttt",
"tttttttttt   8rrrrrrrrrrrrrrrrrrr0 errrrrrrrrr4 rrrrrrrrrrrrrrrrrrrrrrrrrrr0 rrrrrrrrrrrrr0 tttttttttttttttttttttttttttt",
"tttttttttt   6rrrrrrrrrrrrrrrrrrrw 8rrrrrrrrrr%2rrrrrrrrrrrrrrrrrrrrrrrrrrr0 wrrrrrrrrrrrr5 tttttttttttttttttttttttttttt",
"tttttttttttt 9rrrrrrrrrrrrrrrr7% t 3rrrrrrrrr0 6rrrrrrrrrrrrrrrrrrrrrrrrrrr0 7rrrrrrrrrrrr  tttttttttttttttttttttttttttt",
"ttttttttttttt1rrrrrrrrrrrrrr9:  tt  rrrrrrrrr6 6% 30rrrrrrrrrrrrrrrrrrrq9806 3rrrrrrrrrrr0  tttttttttttttttttttttttttttt",
"ttttttttttttt 4errrrrrrr83:  tttttt 0rrrrrrrr3 9q%  %7errrrrrrrrrrrrq3%   21  errrrrrrrrr0  tttttttttttttttttttttttttttt",
"tttttttttttttt %366651   tttttttttt 5rrrrrrrr% 0r2                    ttt 9e  8rrrrrrrrrr0  tttttttttttttttttttttttttttt",
"tttttttttttttttt     tttttttttttttt 1rrrrrrre  rr4 tttttttttttttttttttttt 6r712rrrrrrrrrr0  tttttttttttttttttttttttttttt",
"ttttttttttttttttttttttttttttttttttt  errrrrr0 :rr7 tttttttttttttttttttttt 2rr0 wrrrrrrrrrr   ttttttttttttttttttttttttttt",
"tttttttttttttttttttttttttttttttttttt 9rrrrrr0 3rrw  tttttttttttttttttttttt%rrr33rrrrrrrrrr2  ttttttttttttttttttttttttttt",
"tttttttttttttttttttttttttttttttttttt 6rrrrrr0 6rrr4 tttttttttttttttttttttt 9rrw 0rrrrrrrrr6  ttttttttttttttttttttttttttt",
"tttttttttttttttttttttttttttttttttttt 2rrrrrr0 0rrr9 ttttttttttttttttttttttt2rrr8:errrrrrrrq  ttttttttttttttttttttttttttt",
"tttttttttttttttttttttttttttttttttttt  rrrrrr8 errr8  tttttttttttttttttttttt 8rrr44rrrrrrrrr% ttttttttttttttttttttttttttt",
"tttttttttttttttttttttttttttttttttttt  0rrrrr6%rrrrr1 *ttttttttttttttttttttt@:erre17rrrrrrrr3  tttttttttttttttttttttttttt",
"tttttttttttttttttttttttttttttttttttt  5rrrrr6:qrrrre2.<tttttttttttttttttttt- 7rrrw%6rrrrrrr8  tttttttttttttttttttttttttt",
"ttttttttttttttttttttttttttttttttttttX 1rrrrr8  3errre:;ttttttttttttttttttttt.:rrrrq%4rrrrrrw  tttttttttttttttttttttttttt",
"tttttttttttttttttttttttttttttttttttt+  wrrrw1># %8rrr:,ttttttttttttttttttttt# 8rrrrq%10rrrq1X tttttttttttttttttttttttttt",
"tttttttttttttttttttttttttttttttttttt&  7rrr4ott,# 163#tttttttttttttttttttttt, 2rrrrr1X     o<ttttttttttttttttttttttttttt",
"tttttttttttttttttttttttttttttttttttt,  1rrr%&tttt;+OO>ttttttttttttttttttttttt& 8rrrw =>;;;;<tttttttttttttttttttttttttttt",
"ttttttttttttttttttttttttttttttttttttt$  806.<ttttttttttttttttttttttttttttttttt# 9rr6.<tttttttttttttttttttttttttttttttttt",
"tttttttttttttttttttttttttttttttttttttt*o   -ttttttttttttttttttttttttttttttttttt=.  .>ttttttttttttttttttttttttttttttttttt",
"tttttttttttttttttttttttttttttttttttttttt*&-ttttttttttttttttttttttttttttttttttttt<;;,tttttttttttttttttttttttttttttttttttt",
"tttttttttttttttttttttttttttttttttttttttttttttttttttttttttttttttttttttttttttttttttttttttttttttttttttttttttttttttttttttttt",
"tttttttttttttttttttttttttttttttttttttttttttttttttttttttttttttttttttttttttttttttttttttttttttttttttttttttttttttttttttttttt",
"tttttttttttttttttttttttttttttttttttttttttttttttttttttttttttttttttttttttttttttttttttttttttttttttttttttttttttttttttttttttt",
"tttttttttttttttttttttttttttttttttttttttttttttttttttttttttttttttttttttttttttttttttttttttttttttttttttttttttttttttttttttttt",
"tttttttttttttttttttttttttttttttttttttttttttttttttttttttttttttttttttttttttttttttttttttttttttttttttttttttttttttttttttttttt",
"tttttttttttttttttttttttttttttttttttttttttttttttttttttttttttttttttttttttttttttttttttttttttttttttttttttttttttttttttttttttt",
"tttttttttttttttttttttttttttttttttttttttttttttttttttttttttttttttttttttttttttttttttttttttttttttttttttttttttttttttttttttttt",
"tttttttttttttttttttttttttttttttttttttttttttttttttttttttttttttttttttttttttttttttttttttttttttttttttttttttttttttttttttttttt",
"tttttttttttttttttttttttttttttttttttttttttttttttttttttttttttttttttttttttttttttttttttttttttttttttttttttttttttttttttttttttt",
"tttttttttttttttttttttttttttttttttttttttttttttttttttttttttttttttttttttttttttttttttttttttttttttttttttttttttttttttttttttttt",
"tttttttttttttttttttttttttttttttttttttttttttttttttttttttttttttttttttttttttttttttttttttttttttttttttttttttttttttttttttttttt",
"tttttttttttttttttttttttttttttttttttttttttttttttttttttttttttttttttttttttttttttttttttttttttttttttttttttttttttttttttttttttt",
"tttttttttttttttttttttttttttttttttttttttttttttttttttttttttttttttttttttttttttttttttttttttttttttttttttttttttttttttttttttttt",
"tttttttttttttttttttttttttttttttttttttttttttttttttttttttttttttttttttttttttttttttttttttttttttttttttttttttttttttttttttttttt",
"tttttttttttttttttttttttttttttttttttttttttttttttttttttttttttttttttttttttttttttttttttttttttttttttttttttttttttttttttttttttt",
"tttttttttttttttttttttttttttttttttttttttttttttttttttttttttttttttttttttttttttttttttttttttttttttttttttttttttttttttttttttttt",
"tttttttttttttttttttttttttttttttttttttttttttttttttttttttttttttttttttttttttttttttttttttttttttttttttttttttttttttttttttttttt",
"tttttttttttttttttttttttttttttttttttttttttttttttttttttttttttttttttttttttttttttttttttttttttttttttttttttttttttttttttttttttt",
"tttttttttttttttttttttttttttttttttttttttttttttttttttttttttttttttttttttttttttttttttttttttttttttttttttttttttttttttttttttttt",
"tttttttttttttttttttttttttttttttttttttttttttttttttttttttttttttttttttttttttttttttttttttttttttttttttttttttttttttttttttttttt",
"tttttttttttttttttttttttttttttttttttttttttttttttttttttttttttttttttttttttttttttttttttttttttttttttttttttttttttttttttttttttt",
"tttttttttttttttttttttttttttttttttttttttttttttttttttttttttttttttttttttttttttttttttttttttttttttttttttttttttttttttttttttttt",
"tttttttttttttttttttttttttttttttttttttttttttttttttttttttttttttttttttttttttttttttttttttttttttttttttttttttttttttttttttttttt",
"tttttttttttttttttttttttttttttttttttttttttttttttttttttttttttttttttttttttttttttttttttttttttttttttttttttttttttttttttttttttt",
"tttttttttttttttttttttttttttttttttttttttttttttttttttttttttttttttttttttttttttttttttttttttttttttttttttttttttttttttttttttttt",
"tttttttttttttttttttttttttttttttttttttttttttttttttttttttttttttttttttttttttttttttttttttttttttttttttttttttttttttttttttttttt",
"tttttttttttttttttttttttttttttttttttttttttttttttttttttttttttttttttttttttttttttttttttttttttttttttttttttttttttttttttttttttt",
"tttttttttttttttttttttttttttttttttttttttttttttttttttttttttttttttttttttttttttttttttttttttttttttttttttttttttttttttttttttttt",
"tttttttttttttttttttttttttttttttttttttttttttttttttttttttttttttttttttttttttttttttttttttttttttttttttttttttttttttttttttttttt",
"tttttttttttttttttttttttttttttttttttttttttttttttttttttttttttttttttttttttttttttttttttttttttttttttttttttttttttttttttttttttt",
"tttttttttttttttttttttttttttttttttttttttttttttttttttttttttttttttttttttttttttttttttttttttttttttttttttttttttttttttttttttttt",
"tttttttttttttttttttttttttttttttttttttttttttttttttttttttttttttttttttttttttttttttttttttttttttttttttttttttttttttttttttttttt",
"tttttttttttttttttttttttttttttttttttttttttttttttttttttttttttttttttttttttttttttttttttttttttttttttttttttttttttttttttttttttt",
"tttttttttttttttttttttttttttttttttttttttttttttttttttttttttttttttttttttttttttttttttttttttttttttttttttttttttttttttttttttttt",
"tttttttttttttttttttttttttttttttttttttttttttttttttttttttttttttttttttttttttttttttttttttttttttttttttttttttttttttttttttttttt",
"tttttttttttttttttttttttttttttttttttttttttttttttttttttttttttttttttttttttttttttttttttttttttttttttttttttttttttttttttttttttt",
"tttttttttttttttttttttttttttttttttttttttttttttttttttttttttttttttttttttttttttttttttttttttttttttttttttttttttttttttttttttttt",
"tttttttttttttttttttttttttttttttttttttttttttttttttttttttttttttttttttttttttttttttttttttttttttttttttttttttttttttttttttttttt",
"tttttttttttttttttttttttttttttttttttttttttttttttttttttttttttttttttttttttttttttttttttttttttttttttttttttttttttttttttttttttt",
"tttttttttttttttttttttttttttttttttttttttttttttttttttttttttttttttttttttttttttttttttttttttttttttttttttttttttttttttttttttttt",
"tttttttttttttttttttttttttttttttttttttttttttttttttttttttttttttttttttttttttttttttttttttttttttttttttttttttttttttttttttttttt",
"tttttttttttttttttttttttttttttttttttttttttttttttttttttttttttttttttttttttttttttttttttttttttttttttttttttttttttttttttttttttt",
"tttttttttttttttttttttttttttttttttttttttttttttttttttttttttttttttttttttttttttttttttttttttttttttttttttttttttttttttttttttttt"
};
