/* XPM */
static char *result[] = {
/* columns rows colors chars-per-pixel */
"120 120 38 1 ",
"  c black",
". c #010101",
"X c gray1",
"o c #040404",
"O c gray2",
"+ c #070707",
"@ c gray3",
"# c #0B0B0B",
"$ c gray5",
"% c gray6",
"& c #101010",
"* c gray8",
"= c #161616",
"- c gray10",
"; c #1D1D1D",
": c gray12",
"> c #222222",
", c #252525",
"< c gray17",
"1 c #2F2F2F",
"2 c #323232",
"3 c #3F3F3F",
"4 c #484848",
"5 c gray31",
"6 c #5A5A5A",
"7 c #5F5F5F",
"8 c #656565",
"9 c #6F6F6F",
"0 c gray50",
"q c gray56",
"w c #9F9F9F",
"e c #AFAFAF",
"r c gray75",
"t c gray81",
"y c #DFDFDF",
"u c #EFEFEF",
"i c white",
"p c None",
/* pixels */
"pppppppppppppppppppppppppppppppppppppppppppppppppppppppppppppppppppppppppppppppppppppppppppppppppppppppppppppppppppppppp",
"pppppppppppppppppppppppppppppppppppppppppppppppppppppppppppppppppppppppppppppppppppppppppppppppppppppppppppppppppppppppp",
"pppppppppppppppppppppppppppppppppppppppppppppppppppppppppppppppppppppppppppppppppppppppppppppppppppppppppppppppppppppppp",
"pppppppppppppppppppppppppppppppppppppppppppppppppppppppppppppppppppppppppppppppppppppppppppppppppppppppppppppppppppppppp",
"pppppppppppppppppppppppppppppppppppppppppppppppppppppppppppppppppppppppppppppppppppppppppppppppppppppppppppppppppppppppp",
"pppppppppppppppppppppppppppppppppppppppppppppppppppppppppppppppppppppppppppppppppppppppppppppppppppppppppppppppppppppppp",
"pppppppppppppppppppppppppppppppppppppppppppppppppppppppppppppppppppppppppppppppppppppppppppppppppppppppppppppppppppppppp",
"pppppppppppppppppppppppppppppppppppppppppppppppppppppppppppppppppppppppppppppppppppppppppppppppppppppppppppppppppppppppp",
"pppppppppppppppppppppppppppppppppppppppppppppppppppppppppppppppppppppppppppppppppppppppppppppppppppppppppppppppppppppppp",
"pppppppppppppppppppppppppppppppppppppppppppppppppppppppppppppppppppppppppppppppppppppppppppppppppppppppppppppppppppppppp",
"pppppppppppppppppppppppppppppppppppppppppppppppppppppppppppppppppppppppppppppppppppppppppppppppppppppppppppppppppppppppp",
"pppppppppppppppppppppppppppppppppppppppppppppppppppppppppppppppppppppppppppppppppppppppppppppppppppppppppppppppppppppppp",
"pppppppppppppppppppppppppppppppppppppppppppppppppppppppppppppppppppppppppppppppppppppppppppppppppppppppppppppppppppppppp",
"pppppppppppppppppppppppppppppppppppppppppppppppppppppppppppppppppppppppppppppppppppppppppppppppppppppppppppppppppppppppp",
"pppppppppppppppppppppppppppppppppppppppppppppppppppppppppppppppppppppppppppppppppppppppppppppppppppppppppppppppppppppppp",
"pppppppppppppppppppppppppppppppppppppppppppppppppppppppppppppppppppppppppppppppppppppppppppppppppppppppppppppppppppppppp",
"pppppppppppppppppppppppppppppppppppppppppppppppppppppppppppppppppppppppppppppppppppppppppppppppppppppppppppppppppppppppp",
"pppppppppppppppppppppppppppppppppppppppppppppppppppppppppppppppppppppppppppppppppppppppppppppppppppppppppppppppppppppppp",
"pppppppppppppppppppppppppppppppppppppppppppppppppppppppppppppppppppppppppppppppppppppppppppppppppppppppppppppppppppppppp",
"pppppppppppppppppppppppppppppppppppppppppppppppppppppppppppppppppppppppppppppppppppppppppppppppppppppppppppppppppppppppp",
"pppppppppppppppppppppppppppppppppppppppppppppppppppppppppppppppppppppppppppppppppppppppppppppppppppppppppppppppppppppppp",
"pppppppppppppppppppppppppppppppppppppppppppppppppppppppppppppppppppppppppppppppppppppppppppppppppppppppppppppppppppppppp",
"pppppppppppppppppppppppppppppppppppppppppppppppppppppppppppppppppppppppppppppppppppppppppppppppppppppppppppppppppppppppp",
"pppppppppppppppppppppppppppppppppppppppppppppppppppppppppppppppppppppppppppppppppppppppppppppppppppppppppppppppppppppppp",
"pppppppppppppppppppppppppppppppppppppppppppppppppppppppppppppppppppppppppppppppppppppppppppppppppppppppppppppppppppppppp",
"pppppppppppppppppppppppppppppppppppppppppppppppppppppppppppppppppppppppppppppppppppppppppppppppppppppppppppppppppppppppp",
"pppppppppppppppppppppppppppppppppppppppppppppppppppppppppppppppppppppppppppppppppppppppppppppppppppppppppppppppppppppppp",
"pppppppppppppppppppppppppppppppppppppppppppppppppppppppppppppppppppppppppppppppppppppppppppppppppppppppppppppppppppppppp",
"ppppppppppppppppppppppppppppppppppppppppppppppppppppppppppppppppp         pppppppppppppppppppppppppppppppppppppppppppppp",
"ppppppppppppppppppppppppppppppppppppppppppppppppppppppppp       190000qiur07& pppppppppppppppppppppppppppppppppppppppppp",
"pppppppppppppppppppppppppppppppppppppppppppp   %33333333330wryiiiiiiiiiiiiiiiyw5 ppppppppppppppppppppppppppppppppppppppp",
"pppppppppppppppppppppppppppppppppppppppp    19riiiiiiiiiiiiiiiiiiiiiiiiiiiiiiiiiuw6ppppppppppppppppppppppppppppppppppppp",
"pppppppppppppppppppppppp ppppppppppp     5qyiiiiiiiiiiiiiiiiiiiiiiiiiiiiiiiiiiiiiiiu9=pppppppppppppppppppppppppppppppppp",
"ppppppppppppppppppppppp80  pppppp    :7euiiiiiiiiiiiiiiiiiiiiiiiiiiiiiiiiiiiiiiiiiiiii0 pppppppppppppppppppppppppppppppp",
"pppppppppppppppppppppp2i0  ppp    10tiiiiiiiiiiiiiiiiiiiiiiiiiiiiiiiiiiiiiiiiiiiiiiiiiir% pppppppppppppppppppppppppppppp",
"pppppppppppppppppppppp4i0     %5wyiiiiiiiiiiiiiiiiiiiiiiiiiiiiiiiiiiiiiiiiiiiiiiiiiiiiiiy1 ppppppppppppppppppppppppppppp",
"pppppppppppppppppppppp%r:  :7wiiiiiiiiiiiiiiiiiiiiiiiiiiiiiiiiiiiiiiiiiiiiiiiiiiiiiiiiiiiu1  ppppppppppppppppppppppppppp",
"pppppppppppppppppppppp   1wiiiiiiiiiiiiiiiiiiiiiiiiiiiiiiiiiiiiiiiiiiiiiiiiiiiiiiiiiiiiiiiu1  pppppppppppppppppppppppppp",
"pppppppppppppppppppppp  wiiiiiiiiiiiiiiiiiiiiiiiiiiiiiiiiiiiiiiiiiiiiiiiiiiiiiiiiiiiiiiiiiiu1  ppppppppppppppppppppppppp",
"pppppppppppppppppppp  %tiiiiiiiiiiiiiiiiiiiiiiiiiiiiiiiiiiiiiiiiiiiiiiiiiiiiiiiiiiiiiiiiiiiit% ppppppppppppppppppppppppp",
"pppppppppppppppppppp  wiiiiiiiiiiiiiiiiiiiiiiiiiiiiiiiiiiiiiiiiiiiiiiiiiiiiiiiiiiiiiiiiiiiiiie  pppppppppppppppppppppppp",
"ppppppppppppppppppp  9iiiiiiiiiiiiiiiiiiiiiiiiiiiiiiiiiiiiiiiiiiiiiiiiiiiiiiiiiiiiiiiiiiiiiy30: pppppppppppppppppppppppp",
"pppppppppppppppppp  7iiiiiiiiiiiiiiiiiiiiiiiiiiiiiiiiiiiiiiiiiiiiiiiiiiiiiiiiiiiiiiiiiiiiiiq    pppppppppppppppppppppppp",
"ppppppppppppppppp  1iiiiiiiiiiiiiiiiiiiiiiiiiiiiiiiiiiiiiiiiiiiiiiiiiiiiiiiiiiiiiiiiiiiiiiiq ppppppppppppppppppppppppppp",
"ppppppppppppp pp  %uiiiiiiiiiiiiiiiiiiiiiiiiiiiiiiiiiiiiiiiiiiiiiiiiiiiiiiiiiiiiiiiiiiiiiiir ppppppppppppppppppppppppppp",
"ppppppppppppp p   wiiiii3riiiiiiiiiiiiiiiiiiiiiiiiiiiiiiiiiiiiiiiiiiiiiiiiiiiiiriiiiiiiiiiii: pppppppppppppppppppppppppp",
"ppppppppppppp    qiiiii5 riiiiiiiiiiiiiiiiiiiiiiiiiiiiiiiiiiiiiiiiiiiiiiiiiiiie tiiiiiiiiiii7 pppppppppppppppppppppppppp",
"ppppppppppppp   3iiiiiq  uiiiiiiiiiiiiiiiiiiiiiiiiiiiiiiiiiiiiiiiiiiiiiiiiiiii7 uiiiiiiiiiiiw pppppppppppppppppppppppppp",
"pppppppppppp   %uiiiii3  iiiiiiiiiiiiiiiiiiiiiiiiiiiiiiiiiiiiiiiiiiiiiiiiiiiii%:iiiiiiiiiiiiy pppppppppppppppppppppppppp",
"pppppppppppp   riiiiii3 3iiiiiiiiiiiiiiiiiiiiiiiiiiiiiiiiiiiiiiiiiiiiiiiiiiiit 9iiiiiiiiiiiii:pppppppppppppppppppppppppp",
"pppppppppppp  5iiiiiii3 5iiiiiiiiiiiiiiiiiiiiiiiiiiiiiiiiiiiiiiiiiiiiiiiiiiiiq tiiiiiiiiiiiii7 ppppppppppppppppppppppppp",
"pppppppppppp  uiiiiiii3 0iiiiiiiiiiiiiiiiiiiiiiiiiiiiiiiiiiiiiiiiiiiiiiiiiiii9:iiiiiiiiiiiiii0 ppppppppppppppppppppppppp",
"pppppppppppp 3iiiiiiii9 0iiiiiiiiiiiiiiiiiiiiiiiiiiiiiiiiiiiiiiiiiiiiiiiiiiii37iiiiiiiiiiiiiir ppppppppppppppppppppppppp",
"pppppppppppp %iiiiiiiiq 0iiiiiiiiiiiiiiiiiiiiiiiiiiiiiiiiiiiiiiiiiiiiiiiiiiii:wiiiiiiiiiiiiiir ppppppppppppppppppppppppp",
"ppppppppppppp eiiiiiiiy:tiiiiiiiiiiiriiiiiiiiiiiiiiiiiiiiiiiiiiiiiiiiiiiiiiii uiiiiiiiiiiiiiir ppppppppppppppppppppppppp",
"pppppppppppppp3iiiiiiiiiiiiiiiiiiiir7iiiiiii5iiiiiiiiiiiiiiiiiiiiiiiiiiiiiiiu1iiiiiiiiiiiiiiiq ppppppppppppppppppppppppp",
"pppppppppppppp wiiiiiiiiiiiiiiiuw5  3iiiiiii%tiiiiiiiiiiiiiiiiiiiiiiiiiiiiiir3iiiiiiiiiiiiiii5pppppppppppppppppppppppppp",
"ppppppppppppppp&yiiiiiiiiiiiit0      iiiiiii  :riiiiiiiiiiiiiiiiiiiiiiiiyye5 3iiiiiiiiiiiiiiu pppppppppppppppppppppppppp",
"pppppppppppppppp:tiiiiiiiue73  ppppp iiiiiii  p   3337yiiiiiiiiiiiiiitq31  773iiiiiiiiiiiiii0 pppppppppppppppppppppppppp",
"ppppppppppppppppp 9000073   pppppppp tiiiiii: pppppp   :900000000033%  p 7ii03iiiiiiiiiiiiiu%ppppppppppppppppppppppppppp",
"pppppppppppppppppppppppppppppppppppp eiiiiii7 ppppppppppppppppppppppppppp1ii03iiiiiiiiiiiii0 ppppppppppppppppppppppppppp",
"pppppppppppppppppppppppppppppppppppp 0iiiiiie ppppppppppppppppppppppppppp ui97iiiiiiiiiiiiu%pppppppppppppppppppppppppppp",
"pppppppppppppppppppppppppppppppppppp 5iiiiiii:ppppppppppppppppppppppppppp ri30iiiiiiiiiiiiw pppppppppppppppppppppppppppp",
"pppppppppppppppppppppppppppppppppppp :iiiiiii0 pppppppppppppppppppppppppp qi30iiiiiiiiiiii: pppppppppppppppppppppppppppp",
"pppppppppppppppppppppppppppppppppppp  riiiiiiu%pppppppppppppppppppppppppp 7i30iiiiiiiiiiiw ppppppppppppppppppppppppppppp",
"pppppppppppppppppppppppppppppppppppp  7iiiiiii0 ppppppppppppppppppppppppp :i30iiiiiiiiiii:pppppppppppppppppppppppppppppp",
"pppppppppppppppppppppppppppppppppppp   riiiiiiu:pppppppppppppppppppppppppp e:0iiiiiiiiiiw pppppppppppppppppppppppppppppp",
"ppppppppppppppppppppppppppppppppppppp2::uiiiiiiq ppppppppppppppppppppppppp 7:0iiiiiiiiii:ppppppppppppppppppppppppppppppp",
"ppppppppppppppppppppppppppppppppppppp%r 1uiiiiii1pppppppppppppppppppppppppO :3iiiiiiiiiq+ppppppppppppppppppppppppppppppp",
"ppppppppppppppppppppppppppppppppppppp yw :riiiiy ;pppppppppppppppppppppppp;  3iiiiiiiiu:;ppppppppppppppppppppppppppppppp",
"pppppppppppppppppppppppppppppppppppppowie% 7rrr1.<ppppppppppppppppppppppppp# 1iiiiiiii7$pppppppppppppppppppppppppppppppp",
"ppppppppppppppppppppppppppppppppppppp&3iiy7%   X;ppppppppppppppppppppppppppp- uiiiiiitX<pppppppppppppppppppppppppppppppp",
"ppppppppppppppppppppppppppppppppppppp, eiiii7&pppppppppppppppppppppppppppppppXwiiiiiu:;ppppppppppppppppppppppppppppppppp",
"pppppppppppppppppppppppppppppppppppppp#%uiii &ppppppppppppppppppppppppppppppp*:uiiii7$pppppppppppppppppppppppppppppppppp",
"pppppppppppppppppppppppppppppppppppppp<.1uir >ppppppppppppppppppppppppppppppp<o1yii7+ppppppppppppppppppppppppppppppppppp",
"ppppppppppppppppppppppppppppppppppppppp>.   @ppppppppppppppppppppppppppppppppp<+   +<ppppppppppppppppppppppppppppppppppp",
"pppppppppppppppppppppppppppppppppppppppp<;;;pppppppppppppppppppppppppppppppppppp;;;ppppppppppppppppppppppppppppppppppppp",
"pppppppppppppppppppppppppppppppppppppppppppppppppppppppppppppppppppppppppppppppppppppppppppppppppppppppppppppppppppppppp",
"pppppppppppppppppppppppppppppppppppppppppppppppppppppppppppppppppppppppppppppppppppppppppppppppppppppppppppppppppppppppp",
"pppppppppppppppppppppppppppppppppppppppppppppppppppppppppppppppppppppppppppppppppppppppppppppppppppppppppppppppppppppppp",
"pppppppppppppppppppppppppppppppppppppppppppppppppppppppppppppppppppppppppppppppppppppppppppppppppppppppppppppppppppppppp",
"pppppppppppppppppppppppppppppppppppppppppppppppppppppppppppppppppppppppppppppppppppppppppppppppppppppppppppppppppppppppp",
"pppppppppppppppppppppppppppppppppppppppppppppppppppppppppppppppppppppppppppppppppppppppppppppppppppppppppppppppppppppppp",
"pppppppppppppppppppppppppppppppppppppppppppppppppppppppppppppppppppppppppppppppppppppppppppppppppppppppppppppppppppppppp",
"pppppppppppppppppppppppppppppppppppppppppppppppppppppppppppppppppppppppppppppppppppppppppppppppppppppppppppppppppppppppp",
"pppppppppppppppppppppppppppppppppppppppppppppppppppppppppppppppppppppppppppppppppppppppppppppppppppppppppppppppppppppppp",
"pppppppppppppppppppppppppppppppppppppppppppppppppppppppppppppppppppppppppppppppppppppppppppppppppppppppppppppppppppppppp",
"pppppppppppppppppppppppppppppppppppppppppppppppppppppppppppppppppppppppppppppppppppppppppppppppppppppppppppppppppppppppp",
"pppppppppppppppppppppppppppppppppppppppppppppppppppppppppppppppppppppppppppppppppppppppppppppppppppppppppppppppppppppppp",
"pppppppppppppppppppppppppppppppppppppppppppppppppppppppppppppppppppppppppppppppppppppppppppppppppppppppppppppppppppppppp",
"pppppppppppppppppppppppppppppppppppppppppppppppppppppppppppppppppppppppppppppppppppppppppppppppppppppppppppppppppppppppp",
"pppppppppppppppppppppppppppppppppppppppppppppppppppppppppppppppppppppppppppppppppppppppppppppppppppppppppppppppppppppppp",
"pppppppppppppppppppppppppppppppppppppppppppppppppppppppppppppppppppppppppppppppppppppppppppppppppppppppppppppppppppppppp",
"pppppppppppppppppppppppppppppppppppppppppppppppppppppppppppppppppppppppppppppppppppppppppppppppppppppppppppppppppppppppp",
"pppppppppppppppppppppppppppppppppppppppppppppppppppppppppppppppppppppppppppppppppppppppppppppppppppppppppppppppppppppppp",
"pppppppppppppppppppppppppppppppppppppppppppppppppppppppppppppppppppppppppppppppppppppppppppppppppppppppppppppppppppppppp",
"pppppppppppppppppppppppppppppppppppppppppppppppppppppppppppppppppppppppppppppppppppppppppppppppppppppppppppppppppppppppp",
"pppppppppppppppppppppppppppppppppppppppppppppppppppppppppppppppppppppppppppppppppppppppppppppppppppppppppppppppppppppppp",
"pppppppppppppppppppppppppppppppppppppppppppppppppppppppppppppppppppppppppppppppppppppppppppppppppppppppppppppppppppppppp",
"pppppppppppppppppppppppppppppppppppppppppppppppppppppppppppppppppppppppppppppppppppppppppppppppppppppppppppppppppppppppp",
"pppppppppppppppppppppppppppppppppppppppppppppppppppppppppppppppppppppppppppppppppppppppppppppppppppppppppppppppppppppppp",
"pppppppppppppppppppppppppppppppppppppppppppppppppppppppppppppppppppppppppppppppppppppppppppppppppppppppppppppppppppppppp",
"pppppppppppppppppppppppppppppppppppppppppppppppppppppppppppppppppppppppppppppppppppppppppppppppppppppppppppppppppppppppp",
"pppppppppppppppppppppppppppppppppppppppppppppppppppppppppppppppppppppppppppppppppppppppppppppppppppppppppppppppppppppppp",
"pppppppppppppppppppppppppppppppppppppppppppppppppppppppppppppppppppppppppppppppppppppppppppppppppppppppppppppppppppppppp",
"pppppppppppppppppppppppppppppppppppppppppppppppppppppppppppppppppppppppppppppppppppppppppppppppppppppppppppppppppppppppp",
"pppppppppppppppppppppppppppppppppppppppppppppppppppppppppppppppppppppppppppppppppppppppppppppppppppppppppppppppppppppppp",
"pppppppppppppppppppppppppppppppppppppppppppppppppppppppppppppppppppppppppppppppppppppppppppppppppppppppppppppppppppppppp",
"pppppppppppppppppppppppppppppppppppppppppppppppppppppppppppppppppppppppppppppppppppppppppppppppppppppppppppppppppppppppp",
"pppppppppppppppppppppppppppppppppppppppppppppppppppppppppppppppppppppppppppppppppppppppppppppppppppppppppppppppppppppppp",
"pppppppppppppppppppppppppppppppppppppppppppppppppppppppppppppppppppppppppppppppppppppppppppppppppppppppppppppppppppppppp",
"pppppppppppppppppppppppppppppppppppppppppppppppppppppppppppppppppppppppppppppppppppppppppppppppppppppppppppppppppppppppp",
"pppppppppppppppppppppppppppppppppppppppppppppppppppppppppppppppppppppppppppppppppppppppppppppppppppppppppppppppppppppppp",
"pppppppppppppppppppppppppppppppppppppppppppppppppppppppppppppppppppppppppppppppppppppppppppppppppppppppppppppppppppppppp",
"pppppppppppppppppppppppppppppppppppppppppppppppppppppppppppppppppppppppppppppppppppppppppppppppppppppppppppppppppppppppp",
"pppppppppppppppppppppppppppppppppppppppppppppppppppppppppppppppppppppppppppppppppppppppppppppppppppppppppppppppppppppppp",
"pppppppppppppppppppppppppppppppppppppppppppppppppppppppppppppppppppppppppppppppppppppppppppppppppppppppppppppppppppppppp",
"pppppppppppppppppppppppppppppppppppppppppppppppppppppppppppppppppppppppppppppppppppppppppppppppppppppppppppppppppppppppp",
"pppppppppppppppppppppppppppppppppppppppppppppppppppppppppppppppppppppppppppppppppppppppppppppppppppppppppppppppppppppppp",
"pppppppppppppppppppppppppppppppppppppppppppppppppppppppppppppppppppppppppppppppppppppppppppppppppppppppppppppppppppppppp"
};
